<svg width="729" height="729" viewBox="0 0 729 729" fill="none" xmlns="http://www.w3.org/2000/svg">
<path fill-rule="evenodd" clip-rule="evenodd" d="M318.895 475.246C317.052 474.648 314.845 475.178 313.965 476.429L271.111 537.336C269.09 540.21 271.146 543.642 275.548 544.741C279.653 545.765 284.206 544.35 285.746 541.571L320.762 478.396C321.439 477.176 320.627 475.808 318.895 475.246ZM528.895 485.246C527.052 484.648 524.845 485.178 523.965 486.429L481.111 547.336C479.09 550.21 481.146 553.642 485.548 554.741C489.653 555.765 494.206 554.35 495.746 551.571L530.762 488.396C531.439 487.176 530.627 485.808 528.895 485.246ZM418.895 535.246C417.052 534.648 414.845 535.178 413.965 536.429L371.111 597.336C369.09 600.21 371.146 603.642 375.548 604.741C379.653 605.765 384.206 604.35 385.746 601.571L420.762 538.396C421.439 537.176 420.627 535.808 418.895 535.246ZM193.965 536.429C194.845 535.178 197.052 534.648 198.895 535.246C200.627 535.808 201.439 537.176 200.762 538.396L165.746 601.571C164.206 604.35 159.653 605.765 155.548 604.741C151.146 603.642 149.09 600.21 151.111 597.336L193.965 536.429Z" fill="url(#paint0_linear_1_129)"/>
<path fill-rule="evenodd" clip-rule="evenodd" d="M253.634 506.429C254.515 505.178 256.722 504.648 258.565 505.246C260.296 505.808 261.108 507.176 260.432 508.396L225.415 571.571C223.875 574.35 219.322 575.765 215.217 574.741C210.815 573.642 208.759 570.21 210.78 567.336L253.634 506.429ZM383.634 506.429C384.515 505.178 386.722 504.648 388.565 505.246C390.296 505.808 391.108 507.176 390.432 508.396L355.415 571.571C353.875 574.35 349.322 575.765 345.217 574.741C340.815 573.642 338.759 570.21 340.78 567.336L383.634 506.429ZM518.565 505.246C516.722 504.648 514.514 505.178 513.634 506.429L470.78 567.336C468.759 570.21 470.815 573.642 475.217 574.741C479.322 575.765 483.875 574.35 485.415 571.571L520.432 508.396C521.108 507.176 520.296 505.808 518.565 505.246Z" fill="url(#paint1_linear_1_129)"/>
<path fill-rule="evenodd" clip-rule="evenodd" d="M558.565 515.246C556.722 514.648 554.514 515.178 553.634 516.429L510.78 577.336C508.759 580.21 510.815 583.642 515.217 584.741C519.322 585.765 523.875 584.35 525.415 581.571L560.432 518.396C561.108 517.176 560.296 515.808 558.565 515.246ZM333.634 516.429C334.515 515.178 336.722 514.648 338.565 515.246C340.296 515.808 341.108 517.176 340.432 518.396L305.415 581.571C303.875 584.35 299.322 585.765 295.217 584.741C290.815 583.642 288.759 580.21 290.78 577.336L333.634 516.429ZM463.634 516.429C464.515 515.178 466.722 514.648 468.565 515.246C470.296 515.808 471.108 517.176 470.432 518.396L435.415 581.571C433.875 584.35 429.322 585.765 425.217 584.741C420.815 583.642 418.759 580.21 420.78 577.336L463.634 516.429Z" fill="url(#paint2_linear_1_129)"/>
<g filter="url(#filter0_bi_1_129)">
<mask id="path-4-inside-1_1_129" fill="white">
<path fill-rule="evenodd" clip-rule="evenodd" d="M569 446H250H247V445.96C187.636 444.37 140 395.748 140 336C140 282.765 177.817 238.362 228.052 228.19C229.529 188.071 262.519 156 303 156C317.569 156 331.169 160.154 342.677 167.343C364.016 128.966 404.976 103 452 103C521.036 103 577 158.964 577 228C577 234.189 576.55 240.272 575.682 246.22C627.795 249.658 669 293.017 669 346C669 401.228 624.228 446 569 446Z"/>
</mask>
<path fill-rule="evenodd" clip-rule="evenodd" d="M569 446H250H247V445.96C187.636 444.37 140 395.748 140 336C140 282.765 177.817 238.362 228.052 228.19C229.529 188.071 262.519 156 303 156C317.569 156 331.169 160.154 342.677 167.343C364.016 128.966 404.976 103 452 103C521.036 103 577 158.964 577 228C577 234.189 576.55 240.272 575.682 246.22C627.795 249.658 669 293.017 669 346C669 401.228 624.228 446 569 446Z" fill="url(#paint3_linear_1_129)" fill-opacity="0.6"/>
<path d="M247 446H245V448H247V446ZM247 445.96H249V444.013L247.054 443.961L247 445.96ZM228.052 228.19L228.449 230.15L229.992 229.838L230.05 228.264L228.052 228.19ZM342.677 167.343L341.618 169.039L343.403 170.154L344.425 168.315L342.677 167.343ZM575.682 246.22L573.703 245.931L573.39 248.073L575.55 248.215L575.682 246.22ZM569 444H250V448H569V444ZM250 444H247V448H250V444ZM249 446V445.96H245V446H249ZM138 336C138 396.835 186.502 446.341 246.946 447.959L247.054 443.961C188.77 442.4 142 394.661 142 336H138ZM227.655 226.23C176.506 236.587 138 281.794 138 336H142C142 283.735 179.128 240.137 228.449 230.15L227.655 226.23ZM303 154C261.44 154 227.57 186.926 226.053 228.116L230.05 228.264C231.489 189.215 263.599 158 303 158V154ZM343.737 165.647C331.92 158.265 317.955 154 303 154V158C317.184 158 330.418 162.043 341.618 169.039L343.737 165.647ZM452 101C404.221 101 362.607 127.386 340.929 166.371L344.425 168.315C365.425 130.547 405.731 105 452 105V101ZM579 228C579 157.86 522.14 101 452 101V105C519.931 105 575 160.069 575 228H579ZM577.661 246.509C578.543 240.466 579 234.286 579 228H575C575 234.092 574.557 240.079 573.703 245.931L577.661 246.509ZM671 346C671 291.956 628.971 247.731 575.813 244.224L575.55 248.215C626.619 251.584 667 294.077 667 346H671ZM569 448C625.333 448 671 402.333 671 346H667C667 400.124 623.124 444 569 444V448Z" fill="white" fill-opacity="0.3" style="mix-blend-mode:overlay" mask="url(#path-4-inside-1_1_129)"/>
</g>
<g filter="url(#filter1_bi_1_129)">
<path fill-rule="evenodd" clip-rule="evenodd" d="M529 496H210H207V495.96C147.636 494.37 100 445.748 100 386C100 332.765 137.817 288.362 188.052 278.19C189.529 238.071 222.519 206 263 206C277.569 206 291.169 210.154 302.677 217.343C324.016 178.966 364.976 153 412 153C481.036 153 537 208.964 537 278C537 284.189 536.55 290.272 535.682 296.22C587.795 299.658 629 343.017 629 396C629 451.228 584.228 496 529 496Z" fill="url(#paint4_linear_1_129)" fill-opacity="0.6"/>
<path d="M207 496H206.5V496.5H207V496ZM207 495.96H207.5V495.473L207.013 495.46L207 495.96ZM188.052 278.19L188.151 278.68L188.537 278.602L188.551 278.208L188.052 278.19ZM302.677 217.343L302.413 217.767L302.859 218.046L303.114 217.586L302.677 217.343ZM535.682 296.22L535.187 296.147L535.109 296.683L535.649 296.719L535.682 296.22ZM529 495.5H210V496.5H529V495.5ZM210 495.5H207V496.5H210V495.5ZM207.5 496V495.96H206.5V496H207.5ZM99.5 386C99.5 446.02 147.352 494.863 206.987 496.46L207.013 495.46C147.919 493.878 100.5 445.476 100.5 386H99.5ZM187.952 277.7C137.489 287.918 99.5 332.522 99.5 386H100.5C100.5 333.007 138.144 288.806 188.151 278.68L187.952 277.7ZM263 205.5C222.25 205.5 189.04 237.784 187.552 278.172L188.551 278.208C190.019 238.357 222.789 206.5 263 206.5V205.5ZM302.942 216.919C291.356 209.682 277.666 205.5 263 205.5V206.5C277.473 206.5 290.981 210.627 302.413 217.767L302.942 216.919ZM412 152.5C364.787 152.5 323.664 178.571 302.24 217.1L303.114 217.586C324.368 179.362 365.164 153.5 412 153.5V152.5ZM537.5 278C537.5 208.688 481.312 152.5 412 152.5V153.5C480.759 153.5 536.5 209.241 536.5 278H537.5ZM536.176 296.292C537.049 290.321 537.5 284.213 537.5 278H536.5C536.5 284.164 536.052 290.224 535.187 296.147L536.176 296.292ZM629.5 396C629.5 342.752 588.089 299.176 535.715 295.721L535.649 296.719C587.501 300.139 628.5 343.282 628.5 396H629.5ZM529 496.5C584.505 496.5 629.5 451.505 629.5 396H628.5C628.5 450.952 583.952 495.5 529 495.5V496.5Z" fill="white" fill-opacity="0.8"/>
</g>
<defs>
<filter id="filter0_bi_1_129" x="124" y="87" width="561" height="375" filterUnits="userSpaceOnUse" color-interpolation-filters="sRGB">
<feFlood flood-opacity="0" result="BackgroundImageFix"/>
<feGaussianBlur in="BackgroundImageFix" stdDeviation="8"/>
<feComposite in2="SourceAlpha" operator="in" result="effect1_backgroundBlur_1_129"/>
<feBlend mode="normal" in="SourceGraphic" in2="effect1_backgroundBlur_1_129" result="shape"/>
<feColorMatrix in="SourceAlpha" type="matrix" values="0 0 0 0 0 0 0 0 0 0 0 0 0 0 0 0 0 0 127 0" result="hardAlpha"/>
<feOffset dy="4"/>
<feGaussianBlur stdDeviation="8"/>
<feComposite in2="hardAlpha" operator="arithmetic" k2="-1" k3="1"/>
<feColorMatrix type="matrix" values="0 0 0 0 1 0 0 0 0 1 0 0 0 0 1 0 0 0 1 0"/>
<feBlend mode="normal" in2="shape" result="effect2_innerShadow_1_129"/>
</filter>
<filter id="filter1_bi_1_129" x="83.5" y="136.5" width="562" height="376" filterUnits="userSpaceOnUse" color-interpolation-filters="sRGB">
<feFlood flood-opacity="0" result="BackgroundImageFix"/>
<feGaussianBlur in="BackgroundImageFix" stdDeviation="8"/>
<feComposite in2="SourceAlpha" operator="in" result="effect1_backgroundBlur_1_129"/>
<feBlend mode="normal" in="SourceGraphic" in2="effect1_backgroundBlur_1_129" result="shape"/>
<feColorMatrix in="SourceAlpha" type="matrix" values="0 0 0 0 0 0 0 0 0 0 0 0 0 0 0 0 0 0 127 0" result="hardAlpha"/>
<feOffset dy="4"/>
<feGaussianBlur stdDeviation="8"/>
<feComposite in2="hardAlpha" operator="arithmetic" k2="-1" k3="1"/>
<feColorMatrix type="matrix" values="0 0 0 0 1 0 0 0 0 1 0 0 0 0 1 0 0 0 1 0"/>
<feBlend mode="normal" in2="shape" result="effect2_innerShadow_1_129"/>
</filter>
<linearGradient id="paint0_linear_1_129" x1="318.759" y1="475.201" x2="294.053" y2="551.358" gradientUnits="userSpaceOnUse">
<stop stop-color="#B0CEFC" stop-opacity="0.48"/>
<stop offset="1" stop-color="#4597EE" stop-opacity="0.85"/>
</linearGradient>
<linearGradient id="paint1_linear_1_129" x1="518.428" y1="505.201" x2="493.722" y2="581.358" gradientUnits="userSpaceOnUse">
<stop stop-color="#B0CEFC" stop-opacity="0.48"/>
<stop offset="1" stop-color="#4597EE" stop-opacity="0.85"/>
</linearGradient>
<linearGradient id="paint2_linear_1_129" x1="598.428" y1="515.201" x2="573.722" y2="591.358" gradientUnits="userSpaceOnUse">
<stop stop-color="#B0CEFC" stop-opacity="0.48"/>
<stop offset="1" stop-color="#4597EE" stop-opacity="0.85"/>
</linearGradient>
<linearGradient id="paint3_linear_1_129" x1="398" y1="442" x2="398" y2="122.5" gradientUnits="userSpaceOnUse">
<stop stop-color="#AABFE1"/>
<stop offset="0.0001" stop-color="#576479"/>
<stop offset="1" stop-color="#D7DEE9" stop-opacity="0.9"/>
</linearGradient>
<linearGradient id="paint4_linear_1_129" x1="309.5" y1="542" x2="476" y2="112" gradientUnits="userSpaceOnUse">
<stop stop-color="#7096D2"/>
<stop offset="1" stop-color="white" stop-opacity="0.9"/>
</linearGradient>
</defs>
</svg>
