<svg width="729" height="729" viewBox="0 0 729 729" fill="none" xmlns="http://www.w3.org/2000/svg">
<g filter="url(#filter0_bif_1_92)">
<mask id="path-1-inside-1_1_92" fill="white">
<path fill-rule="evenodd" clip-rule="evenodd" d="M569 476H250H247V475.96C187.636 474.37 140 425.748 140 366C140 312.765 177.817 268.362 228.052 258.19C229.529 218.071 262.519 186 303 186C317.569 186 331.169 190.154 342.677 197.343C364.016 158.966 404.976 133 452 133C521.036 133 577 188.964 577 258C577 264.189 576.55 270.272 575.682 276.22C627.795 279.658 669 323.017 669 376C669 431.228 624.228 476 569 476Z"/>
</mask>
<path fill-rule="evenodd" clip-rule="evenodd" d="M569 476H250H247V475.96C187.636 474.37 140 425.748 140 366C140 312.765 177.817 268.362 228.052 258.19C229.529 218.071 262.519 186 303 186C317.569 186 331.169 190.154 342.677 197.343C364.016 158.966 404.976 133 452 133C521.036 133 577 188.964 577 258C577 264.189 576.55 270.272 575.682 276.22C627.795 279.658 669 323.017 669 376C669 431.228 624.228 476 569 476Z" fill="url(#paint0_linear_1_92)" fill-opacity="0.6"/>
<path d="M247 476H245V478H247V476ZM247 475.96H249V474.013L247.054 473.961L247 475.96ZM228.052 258.19L228.449 260.15L229.992 259.838L230.05 258.264L228.052 258.19ZM342.677 197.343L341.618 199.039L343.403 200.154L344.425 198.315L342.677 197.343ZM575.682 276.22L573.703 275.931L573.39 278.073L575.55 278.215L575.682 276.22ZM569 474H250V478H569V474ZM250 474H247V478H250V474ZM249 476V475.96H245V476H249ZM138 366C138 426.835 186.502 476.341 246.946 477.959L247.054 473.961C188.77 472.4 142 424.661 142 366H138ZM227.655 256.23C176.506 266.587 138 311.794 138 366H142C142 313.735 179.128 270.137 228.449 260.15L227.655 256.23ZM303 184C261.44 184 227.57 216.926 226.053 258.116L230.05 258.264C231.489 219.215 263.599 188 303 188V184ZM343.737 195.647C331.92 188.265 317.955 184 303 184V188C317.184 188 330.418 192.043 341.618 199.039L343.737 195.647ZM452 131C404.221 131 362.607 157.386 340.929 196.371L344.425 198.315C365.425 160.547 405.731 135 452 135V131ZM579 258C579 187.86 522.14 131 452 131V135C519.931 135 575 190.069 575 258H579ZM577.661 276.509C578.543 270.466 579 264.286 579 258H575C575 264.092 574.557 270.079 573.703 275.931L577.661 276.509ZM671 376C671 321.956 628.971 277.731 575.813 274.224L575.55 278.215C626.619 281.584 667 324.077 667 376H671ZM569 478C625.333 478 671 432.333 671 376H667C667 430.124 623.124 474 569 474V478Z" fill="white" fill-opacity="0.3" style="mix-blend-mode:overlay" mask="url(#path-1-inside-1_1_92)"/>
</g>
<g filter="url(#filter1_di_1_92)">
<path d="M270.019 256.371C267.857 258.088 267.496 261.234 269.213 263.396L297.197 298.637C298.914 300.799 302.059 301.161 304.221 299.443C306.384 297.726 306.745 294.581 305.028 292.418L280.153 261.093L311.479 236.219C313.641 234.502 314.002 231.356 312.285 229.194C310.568 227.031 307.423 226.67 305.26 228.388L270.019 256.371ZM315.687 270.205C318.43 270.52 320.91 268.551 321.224 265.807C321.539 263.064 319.571 260.585 316.827 260.27L315.687 270.205ZM255.618 253.464C252.874 253.149 250.395 255.118 250.08 257.861C249.765 260.605 251.734 263.084 254.477 263.399L255.618 253.464ZM297.606 268.349C300.349 268.664 302.828 266.696 303.143 263.952C303.458 261.209 301.489 258.73 298.746 258.415L297.606 268.349ZM199.458 254.087C201.621 252.37 201.982 249.225 200.265 247.062L172.281 211.821C170.564 209.659 167.419 209.298 165.256 211.015C163.094 212.732 162.733 215.878 164.45 218.04L189.324 249.365L157.999 274.24C155.836 275.957 155.475 279.102 157.192 281.265C158.91 283.427 162.055 283.788 164.217 282.071L199.458 254.087ZM153.791 240.254C151.047 239.939 148.568 241.908 148.253 244.651C147.938 247.394 149.907 249.874 152.65 250.188L153.791 240.254ZM210.726 256.836C213.469 257.151 215.948 255.183 216.263 252.439C216.578 249.696 214.61 247.217 211.866 246.902L210.726 256.836ZM168.738 241.951C165.994 241.636 163.515 243.605 163.2 246.348C162.885 249.092 164.854 251.571 167.597 251.886L168.738 241.951ZM218.152 226.204C220.704 227.26 223.628 226.047 224.684 223.495L241.884 181.912C242.939 179.36 241.726 176.436 239.175 175.38C236.623 174.325 233.699 175.538 232.643 178.089L217.354 215.052L180.391 199.763C177.84 198.708 174.915 199.921 173.86 202.473C172.804 205.024 174.017 207.949 176.569 209.004L218.152 226.204ZM208.049 179.569C206.991 177.018 204.065 175.808 201.515 176.866C198.964 177.924 197.754 180.85 198.812 183.401L208.049 179.569ZM221.225 237.387C222.283 239.938 225.209 241.148 227.759 240.09C230.31 239.032 231.52 236.106 230.462 233.556L221.225 237.387ZM213.829 193.457C212.771 190.906 209.846 189.696 207.295 190.754C204.744 191.812 203.534 194.737 204.592 197.288L213.829 193.457ZM250.171 285.785C247.619 284.73 244.695 285.943 243.64 288.494L226.44 330.078C225.384 332.629 226.597 335.554 229.149 336.609C231.701 337.665 234.625 336.452 235.68 333.9L250.969 296.937L287.932 312.226C290.484 313.281 293.408 312.068 294.464 309.517C295.519 306.965 294.306 304.041 291.754 302.985L250.171 285.785ZM260.275 332.42C261.333 334.971 264.258 336.181 266.809 335.123C269.359 334.065 270.569 331.139 269.511 328.589L260.275 332.42ZM246.741 273.661C245.683 271.111 242.757 269.901 240.207 270.959C237.656 272.017 236.446 274.942 237.504 277.493L246.741 273.661ZM254.137 317.592C255.195 320.142 258.121 321.352 260.671 320.294C263.222 319.236 264.432 316.311 263.374 313.76L254.137 317.592ZM249.652 228.132C250.036 230.867 252.564 232.772 255.299 232.388L299.862 226.133C302.596 225.749 304.502 223.221 304.118 220.487C303.734 217.752 301.206 215.846 298.472 216.23L258.86 221.791L253.3 182.179C252.916 179.444 250.388 177.539 247.653 177.922C244.919 178.306 243.013 180.834 243.397 183.569L249.652 228.132ZM285.092 195.298C286.754 193.093 286.314 189.958 284.109 188.296C281.904 186.634 278.769 187.074 277.107 189.279L285.092 195.298ZM242.529 235.148C240.867 237.353 241.307 240.488 243.512 242.151C245.717 243.813 248.852 243.373 250.515 241.168L242.529 235.148ZM277.01 206.019C278.672 203.814 278.232 200.679 276.027 199.017C273.822 197.355 270.687 197.795 269.025 200L277.01 206.019ZM215.331 285.409C214.947 282.674 212.419 280.769 209.684 281.152L165.121 287.408C162.387 287.791 160.481 290.319 160.865 293.054C161.249 295.789 163.777 297.694 166.511 297.311L206.123 291.75L211.683 331.362C212.067 334.097 214.595 336.002 217.33 335.618C220.064 335.235 221.97 332.707 221.586 329.972L215.331 285.409ZM179.891 318.242C178.229 320.448 178.669 323.583 180.874 325.245C183.079 326.907 186.214 326.467 187.877 324.262L179.891 318.242ZM223.911 276.46C225.573 274.255 225.133 271.12 222.928 269.458C220.723 267.795 217.587 268.236 215.925 270.441L223.911 276.46ZM189.43 305.589C187.767 307.794 188.207 310.929 190.413 312.591C192.618 314.254 195.753 313.814 197.415 311.609L189.43 305.589ZM272.558 265.254L315.687 270.205L316.827 260.27L273.699 255.319L272.558 265.254ZM254.477 263.399L297.606 268.349L298.746 258.415L255.618 253.464L254.477 263.399ZM196.919 245.204L153.791 240.254L152.65 250.188L195.779 255.139L196.919 245.204ZM211.866 246.902L168.738 241.951L167.597 251.886L210.726 256.836L211.866 246.902ZM224.682 219.668L208.049 179.569L198.812 183.401L215.445 223.499L224.682 219.668ZM230.462 233.556L213.829 193.457L204.592 197.288L221.225 237.387L230.462 233.556ZM243.642 292.321L260.275 332.42L269.511 328.589L252.878 288.49L243.642 292.321ZM237.504 277.493L254.137 317.592L263.374 313.76L246.741 273.661L237.504 277.493ZM258.596 230.447L285.092 195.298L277.107 189.279L250.611 224.427L258.596 230.447ZM250.515 241.168L277.01 206.019L269.025 200L242.529 235.148L250.515 241.168ZM206.387 283.094L179.891 318.242L187.877 324.262L214.372 289.114L206.387 283.094ZM215.925 270.441L189.43 305.589L197.415 311.609L223.911 276.46L215.925 270.441ZM242.974 263.27C238.73 268.9 230.925 269.974 225.577 265.943L219.558 273.928C229.454 281.389 243.497 279.189 250.96 269.29L242.974 263.27ZM225.577 265.943C220.229 261.912 219.113 254.112 223.357 248.482L215.372 242.463C207.909 252.363 209.661 266.468 219.558 273.928L225.577 265.943ZM223.357 248.482C227.601 242.853 235.406 241.778 240.754 245.81L246.774 237.824C236.877 230.364 222.834 232.563 215.372 242.463L223.357 248.482ZM240.754 245.81C246.102 249.841 247.218 257.64 242.974 263.27L250.96 269.29C258.422 259.39 256.67 245.285 246.774 237.824L240.754 245.81Z" fill="url(#paint1_linear_1_92)"/>
</g>
<g filter="url(#filter2_bif_1_92)">
<path fill-rule="evenodd" clip-rule="evenodd" d="M529 547H210H207V546.96C147.636 545.37 100 496.748 100 437C100 383.765 137.817 339.362 188.052 329.19C189.529 289.071 222.519 257 263 257C277.569 257 291.169 261.154 302.677 268.343C324.016 229.966 364.976 204 412 204C481.036 204 537 259.964 537 329C537 335.189 536.55 341.272 535.682 347.22C587.795 350.658 629 394.017 629 447C629 502.228 584.228 547 529 547Z" fill="url(#paint2_linear_1_92)" fill-opacity="0.6"/>
<path d="M207 547H206.5V547.5H207V547ZM207 546.96H207.5V546.473L207.013 546.46L207 546.96ZM188.052 329.19L188.151 329.68L188.537 329.602L188.551 329.208L188.052 329.19ZM302.677 268.343L302.413 268.767L302.859 269.046L303.114 268.586L302.677 268.343ZM535.682 347.22L535.187 347.147L535.109 347.683L535.649 347.719L535.682 347.22ZM529 546.5H210V547.5H529V546.5ZM210 546.5H207V547.5H210V546.5ZM207.5 547V546.96H206.5V547H207.5ZM99.5 437C99.5 497.02 147.352 545.863 206.987 547.46L207.013 546.46C147.919 544.878 100.5 496.476 100.5 437H99.5ZM187.952 328.7C137.489 338.918 99.5 383.522 99.5 437H100.5C100.5 384.007 138.144 339.806 188.151 329.68L187.952 328.7ZM263 256.5C222.25 256.5 189.04 288.784 187.552 329.172L188.551 329.208C190.019 289.357 222.789 257.5 263 257.5V256.5ZM302.942 267.919C291.356 260.682 277.666 256.5 263 256.5V257.5C277.473 257.5 290.981 261.627 302.413 268.767L302.942 267.919ZM412 203.5C364.787 203.5 323.664 229.571 302.24 268.1L303.114 268.586C324.368 230.362 365.164 204.5 412 204.5V203.5ZM537.5 329C537.5 259.688 481.312 203.5 412 203.5V204.5C480.759 204.5 536.5 260.241 536.5 329H537.5ZM536.176 347.292C537.049 341.321 537.5 335.213 537.5 329H536.5C536.5 335.164 536.052 341.224 535.187 347.147L536.176 347.292ZM629.5 447C629.5 393.752 588.089 350.176 535.715 346.721L535.649 347.719C587.501 351.139 628.5 394.282 628.5 447H629.5ZM529 547.5C584.505 547.5 629.5 502.505 629.5 447H628.5C628.5 501.952 583.952 546.5 529 546.5V547.5Z" fill="white" fill-opacity="0.8"/>
</g>
<defs>
<filter id="filter0_bif_1_92" x="108" y="101" width="593" height="407" filterUnits="userSpaceOnUse" color-interpolation-filters="sRGB">
<feFlood flood-opacity="0" result="BackgroundImageFix"/>
<feGaussianBlur in="BackgroundImageFix" stdDeviation="8"/>
<feComposite in2="SourceAlpha" operator="in" result="effect1_backgroundBlur_1_92"/>
<feBlend mode="normal" in="SourceGraphic" in2="effect1_backgroundBlur_1_92" result="shape"/>
<feColorMatrix in="SourceAlpha" type="matrix" values="0 0 0 0 0 0 0 0 0 0 0 0 0 0 0 0 0 0 127 0" result="hardAlpha"/>
<feOffset dy="4"/>
<feGaussianBlur stdDeviation="8"/>
<feComposite in2="hardAlpha" operator="arithmetic" k2="-1" k3="1"/>
<feColorMatrix type="matrix" values="0 0 0 0 1 0 0 0 0 1 0 0 0 0 1 0 0 0 1 0"/>
<feBlend mode="normal" in2="shape" result="effect2_innerShadow_1_92"/>
<feGaussianBlur stdDeviation="16" result="effect3_foregroundBlur_1_92"/>
</filter>
<filter id="filter1_di_1_92" x="138.22" y="164.999" width="203.038" height="191.991" filterUnits="userSpaceOnUse" color-interpolation-filters="sRGB">
<feFlood flood-opacity="0" result="BackgroundImageFix"/>
<feColorMatrix in="SourceAlpha" type="matrix" values="0 0 0 0 0 0 0 0 0 0 0 0 0 0 0 0 0 0 127 0" result="hardAlpha"/>
<feOffset dx="5" dy="5"/>
<feGaussianBlur stdDeviation="7.5"/>
<feComposite in2="hardAlpha" operator="out"/>
<feColorMatrix type="matrix" values="0 0 0 0 0.768627 0 0 0 0 0.768627 0 0 0 0 0.768627 0 0 0 0.5 0"/>
<feBlend mode="normal" in2="BackgroundImageFix" result="effect1_dropShadow_1_92"/>
<feBlend mode="normal" in="SourceGraphic" in2="effect1_dropShadow_1_92" result="shape"/>
<feColorMatrix in="SourceAlpha" type="matrix" values="0 0 0 0 0 0 0 0 0 0 0 0 0 0 0 0 0 0 127 0" result="hardAlpha"/>
<feOffset dy="4"/>
<feGaussianBlur stdDeviation="2"/>
<feComposite in2="hardAlpha" operator="arithmetic" k2="-1" k3="1"/>
<feColorMatrix type="matrix" values="0 0 0 0 1 0 0 0 0 1 0 0 0 0 1 0 0 0 0.45 0"/>
<feBlend mode="normal" in2="shape" result="effect2_innerShadow_1_92"/>
</filter>
<filter id="filter2_bif_1_92" x="49.5" y="153.5" width="630" height="444" filterUnits="userSpaceOnUse" color-interpolation-filters="sRGB">
<feFlood flood-opacity="0" result="BackgroundImageFix"/>
<feGaussianBlur in="BackgroundImageFix" stdDeviation="25"/>
<feComposite in2="SourceAlpha" operator="in" result="effect1_backgroundBlur_1_92"/>
<feBlend mode="normal" in="SourceGraphic" in2="effect1_backgroundBlur_1_92" result="shape"/>
<feColorMatrix in="SourceAlpha" type="matrix" values="0 0 0 0 0 0 0 0 0 0 0 0 0 0 0 0 0 0 127 0" result="hardAlpha"/>
<feOffset dy="4"/>
<feGaussianBlur stdDeviation="8"/>
<feComposite in2="hardAlpha" operator="arithmetic" k2="-1" k3="1"/>
<feColorMatrix type="matrix" values="0 0 0 0 1 0 0 0 0 1 0 0 0 0 1 0 0 0 1 0"/>
<feBlend mode="normal" in2="shape" result="effect2_innerShadow_1_92"/>
<feGaussianBlur stdDeviation="25" result="effect3_foregroundBlur_1_92"/>
</filter>
<linearGradient id="paint0_linear_1_92" x1="398" y1="472" x2="398" y2="152.5" gradientUnits="userSpaceOnUse">
<stop stop-color="#AABFE1"/>
<stop offset="0.0001" stop-color="#576479"/>
<stop offset="1" stop-color="#D7DEE9" stop-opacity="0.9"/>
</linearGradient>
<linearGradient id="paint1_linear_1_92" x1="385" y1="150" x2="67.6698" y2="359.19" gradientUnits="userSpaceOnUse">
<stop stop-color="#57B7ED"/>
<stop offset="0.565934" stop-color="#53B3EA" stop-opacity="0.5"/>
</linearGradient>
<linearGradient id="paint2_linear_1_92" x1="309.5" y1="593" x2="476" y2="163" gradientUnits="userSpaceOnUse">
<stop stop-color="#7096D2"/>
<stop offset="1" stop-color="white" stop-opacity="0.9"/>
</linearGradient>
</defs>
</svg>
