<svg width="729" height="729" viewBox="0 0 729 729" fill="none" xmlns="http://www.w3.org/2000/svg">
<g filter="url(#filter0_bif_1_107)">
<mask id="path-1-inside-1_1_107" fill="white">
<path fill-rule="evenodd" clip-rule="evenodd" d="M569 476H250H247V475.96C187.636 474.37 140 425.748 140 366C140 312.765 177.817 268.362 228.052 258.19C229.529 218.071 262.519 186 303 186C317.569 186 331.169 190.154 342.677 197.343C364.016 158.966 404.976 133 452 133C521.036 133 577 188.964 577 258C577 264.189 576.55 270.272 575.682 276.22C627.795 279.658 669 323.017 669 376C669 431.228 624.228 476 569 476Z"/>
</mask>
<path fill-rule="evenodd" clip-rule="evenodd" d="M569 476H250H247V475.96C187.636 474.37 140 425.748 140 366C140 312.765 177.817 268.362 228.052 258.19C229.529 218.071 262.519 186 303 186C317.569 186 331.169 190.154 342.677 197.343C364.016 158.966 404.976 133 452 133C521.036 133 577 188.964 577 258C577 264.189 576.55 270.272 575.682 276.22C627.795 279.658 669 323.017 669 376C669 431.228 624.228 476 569 476Z" fill="url(#paint0_linear_1_107)" fill-opacity="0.6"/>
<path d="M247 476H245V478H247V476ZM247 475.96H249V474.013L247.054 473.961L247 475.96ZM228.052 258.19L228.449 260.15L229.992 259.838L230.05 258.264L228.052 258.19ZM342.677 197.343L341.618 199.039L343.403 200.154L344.425 198.315L342.677 197.343ZM575.682 276.22L573.703 275.931L573.39 278.073L575.55 278.215L575.682 276.22ZM569 474H250V478H569V474ZM250 474H247V478H250V474ZM249 476V475.96H245V476H249ZM138 366C138 426.835 186.502 476.341 246.946 477.959L247.054 473.961C188.77 472.4 142 424.661 142 366H138ZM227.655 256.23C176.506 266.587 138 311.794 138 366H142C142 313.735 179.128 270.137 228.449 260.15L227.655 256.23ZM303 184C261.44 184 227.57 216.926 226.053 258.116L230.05 258.264C231.489 219.215 263.599 188 303 188V184ZM343.737 195.647C331.92 188.265 317.955 184 303 184V188C317.184 188 330.418 192.043 341.618 199.039L343.737 195.647ZM452 131C404.221 131 362.607 157.386 340.929 196.371L344.425 198.315C365.425 160.547 405.731 135 452 135V131ZM579 258C579 187.86 522.14 131 452 131V135C519.931 135 575 190.069 575 258H579ZM577.661 276.509C578.543 270.466 579 264.286 579 258H575C575 264.092 574.557 270.079 573.703 275.931L577.661 276.509ZM671 376C671 321.956 628.971 277.731 575.813 274.224L575.55 278.215C626.619 281.584 667 324.077 667 376H671ZM569 478C625.333 478 671 432.333 671 376H667C667 430.124 623.124 474 569 474V478Z" fill="white" fill-opacity="0.3" style="mix-blend-mode:overlay" mask="url(#path-1-inside-1_1_107)"/>
</g>
<g filter="url(#filter1_if_1_107)">
<circle cx="302.5" cy="328.5" r="124.5" fill="url(#paint1_radial_1_107)"/>
</g>
<g filter="url(#filter2_bif_1_107)">
<path fill-rule="evenodd" clip-rule="evenodd" d="M529 547H210H207V546.96C147.636 545.37 100 496.748 100 437C100 383.765 137.817 339.362 188.052 329.19C189.529 289.071 222.519 257 263 257C277.569 257 291.169 261.154 302.677 268.343C324.016 229.966 364.976 204 412 204C481.036 204 537 259.964 537 329C537 335.189 536.55 341.272 535.682 347.22C587.795 350.658 629 394.017 629 447C629 502.228 584.228 547 529 547Z" fill="url(#paint2_linear_1_107)" fill-opacity="0.6"/>
<path d="M207 547H206.5V547.5H207V547ZM207 546.96H207.5V546.473L207.013 546.46L207 546.96ZM188.052 329.19L188.151 329.68L188.537 329.602L188.551 329.208L188.052 329.19ZM302.677 268.343L302.413 268.767L302.859 269.046L303.114 268.586L302.677 268.343ZM535.682 347.22L535.187 347.147L535.109 347.683L535.649 347.719L535.682 347.22ZM529 546.5H210V547.5H529V546.5ZM210 546.5H207V547.5H210V546.5ZM207.5 547V546.96H206.5V547H207.5ZM99.5 437C99.5 497.02 147.352 545.863 206.987 547.46L207.013 546.46C147.919 544.878 100.5 496.476 100.5 437H99.5ZM187.952 328.7C137.489 338.918 99.5 383.522 99.5 437H100.5C100.5 384.007 138.144 339.806 188.151 329.68L187.952 328.7ZM263 256.5C222.25 256.5 189.04 288.784 187.552 329.172L188.551 329.208C190.019 289.357 222.789 257.5 263 257.5V256.5ZM302.942 267.919C291.356 260.682 277.666 256.5 263 256.5V257.5C277.473 257.5 290.981 261.627 302.413 268.767L302.942 267.919ZM412 203.5C364.787 203.5 323.664 229.571 302.24 268.1L303.114 268.586C324.368 230.362 365.164 204.5 412 204.5V203.5ZM537.5 329C537.5 259.688 481.312 203.5 412 203.5V204.5C480.759 204.5 536.5 260.241 536.5 329H537.5ZM536.176 347.292C537.049 341.321 537.5 335.213 537.5 329H536.5C536.5 335.164 536.052 341.224 535.187 347.147L536.176 347.292ZM629.5 447C629.5 393.752 588.089 350.176 535.715 346.721L535.649 347.719C587.501 351.139 628.5 394.282 628.5 447H629.5ZM529 547.5C584.505 547.5 629.5 502.505 629.5 447H628.5C628.5 501.952 583.952 546.5 529 546.5V547.5Z" fill="white" fill-opacity="0.8"/>
</g>
<defs>
<filter id="filter0_bif_1_107" x="108" y="101" width="593" height="407" filterUnits="userSpaceOnUse" color-interpolation-filters="sRGB">
<feFlood flood-opacity="0" result="BackgroundImageFix"/>
<feGaussianBlur in="BackgroundImageFix" stdDeviation="8"/>
<feComposite in2="SourceAlpha" operator="in" result="effect1_backgroundBlur_1_107"/>
<feBlend mode="normal" in="SourceGraphic" in2="effect1_backgroundBlur_1_107" result="shape"/>
<feColorMatrix in="SourceAlpha" type="matrix" values="0 0 0 0 0 0 0 0 0 0 0 0 0 0 0 0 0 0 127 0" result="hardAlpha"/>
<feOffset dy="4"/>
<feGaussianBlur stdDeviation="8"/>
<feComposite in2="hardAlpha" operator="arithmetic" k2="-1" k3="1"/>
<feColorMatrix type="matrix" values="0 0 0 0 1 0 0 0 0 1 0 0 0 0 1 0 0 0 1 0"/>
<feBlend mode="normal" in2="shape" result="effect2_innerShadow_1_107"/>
<feGaussianBlur stdDeviation="16" result="effect3_foregroundBlur_1_107"/>
</filter>
<filter id="filter1_if_1_107" x="78" y="104" width="449" height="449" filterUnits="userSpaceOnUse" color-interpolation-filters="sRGB">
<feFlood flood-opacity="0" result="BackgroundImageFix"/>
<feBlend mode="normal" in="SourceGraphic" in2="BackgroundImageFix" result="shape"/>
<feColorMatrix in="SourceAlpha" type="matrix" values="0 0 0 0 0 0 0 0 0 0 0 0 0 0 0 0 0 0 127 0" result="hardAlpha"/>
<feOffset dy="4"/>
<feGaussianBlur stdDeviation="8"/>
<feComposite in2="hardAlpha" operator="arithmetic" k2="-1" k3="1"/>
<feColorMatrix type="matrix" values="0 0 0 0 1 0 0 0 0 1 0 0 0 0 1 0 0 0 0.7 0"/>
<feBlend mode="overlay" in2="shape" result="effect1_innerShadow_1_107"/>
<feGaussianBlur stdDeviation="50" result="effect2_foregroundBlur_1_107"/>
</filter>
<filter id="filter2_bif_1_107" x="49.5" y="153.5" width="630" height="444" filterUnits="userSpaceOnUse" color-interpolation-filters="sRGB">
<feFlood flood-opacity="0" result="BackgroundImageFix"/>
<feGaussianBlur in="BackgroundImageFix" stdDeviation="16"/>
<feComposite in2="SourceAlpha" operator="in" result="effect1_backgroundBlur_1_107"/>
<feBlend mode="normal" in="SourceGraphic" in2="effect1_backgroundBlur_1_107" result="shape"/>
<feColorMatrix in="SourceAlpha" type="matrix" values="0 0 0 0 0 0 0 0 0 0 0 0 0 0 0 0 0 0 127 0" result="hardAlpha"/>
<feOffset dy="4"/>
<feGaussianBlur stdDeviation="8"/>
<feComposite in2="hardAlpha" operator="arithmetic" k2="-1" k3="1"/>
<feColorMatrix type="matrix" values="0 0 0 0 1 0 0 0 0 1 0 0 0 0 1 0 0 0 1 0"/>
<feBlend mode="normal" in2="shape" result="effect2_innerShadow_1_107"/>
<feGaussianBlur stdDeviation="25" result="effect3_foregroundBlur_1_107"/>
</filter>
<linearGradient id="paint0_linear_1_107" x1="398" y1="472" x2="398" y2="152.5" gradientUnits="userSpaceOnUse">
<stop stop-color="#AABFE1"/>
<stop offset="0.0001" stop-color="#576479"/>
<stop offset="1" stop-color="#D7DEE9" stop-opacity="0.9"/>
</linearGradient>
<radialGradient id="paint1_radial_1_107" cx="0" cy="0" r="1" gradientUnits="userSpaceOnUse" gradientTransform="translate(229.045 453) rotate(-57.5981) scale(184.322)">
<stop stop-color="#FF951A"/>
<stop offset="1" stop-color="#FFD55E"/>
</radialGradient>
<linearGradient id="paint2_linear_1_107" x1="309.5" y1="593" x2="476" y2="163" gradientUnits="userSpaceOnUse">
<stop stop-color="#7096D2"/>
<stop offset="1" stop-color="white" stop-opacity="0.9"/>
</linearGradient>
</defs>
</svg>
