<svg width="729" height="729" viewBox="0 0 729 729" fill="none" xmlns="http://www.w3.org/2000/svg">
<g filter="url(#filter0_di_1_343)">
<circle cx="365" cy="575" r="15" fill="url(#paint0_radial_1_343)"/>
</g>
<g filter="url(#filter1_di_1_343)">
<circle cx="420" cy="514" r="15" fill="url(#paint1_radial_1_343)"/>
</g>
<g filter="url(#filter2_di_1_343)">
<circle cx="183" cy="605" r="15" fill="url(#paint2_radial_1_343)"/>
</g>
<g filter="url(#filter3_di_1_343)">
<circle cx="259" cy="616" r="15" fill="url(#paint3_radial_1_343)"/>
</g>
<g filter="url(#filter4_di_1_343)">
<circle cx="493" cy="525" r="15" fill="url(#paint4_radial_1_343)"/>
</g>
<g filter="url(#filter5_di_1_343)">
<circle cx="244" cy="529" r="15" fill="url(#paint5_radial_1_343)"/>
</g>
<g filter="url(#filter6_di_1_343)">
<circle cx="278" cy="635" r="19" fill="url(#paint6_radial_1_343)"/>
</g>
<g filter="url(#filter7_di_1_343)">
<circle cx="198" cy="676" r="15" fill="url(#paint7_radial_1_343)"/>
</g>
<g filter="url(#filter8_di_1_343)">
<circle cx="386" cy="631" r="19" fill="url(#paint8_radial_1_343)"/>
</g>
<g filter="url(#filter9_bi_1_343)">
<mask id="path-10-inside-1_1_343" fill="white">
<path fill-rule="evenodd" clip-rule="evenodd" d="M569 446H250H247V445.96C187.636 444.37 140 395.748 140 336C140 282.765 177.817 238.362 228.052 228.19C229.529 188.071 262.519 156 303 156C317.569 156 331.169 160.154 342.677 167.343C364.016 128.966 404.976 103 452 103C521.036 103 577 158.964 577 228C577 234.189 576.55 240.272 575.682 246.22C627.795 249.658 669 293.017 669 346C669 401.228 624.228 446 569 446Z"/>
</mask>
<path fill-rule="evenodd" clip-rule="evenodd" d="M569 446H250H247V445.96C187.636 444.37 140 395.748 140 336C140 282.765 177.817 238.362 228.052 228.19C229.529 188.071 262.519 156 303 156C317.569 156 331.169 160.154 342.677 167.343C364.016 128.966 404.976 103 452 103C521.036 103 577 158.964 577 228C577 234.189 576.55 240.272 575.682 246.22C627.795 249.658 669 293.017 669 346C669 401.228 624.228 446 569 446Z" fill="url(#paint9_linear_1_343)" fill-opacity="0.6"/>
<path d="M247 446H245V448H247V446ZM247 445.96H249V444.013L247.054 443.961L247 445.96ZM228.052 228.19L228.449 230.15L229.992 229.838L230.05 228.264L228.052 228.19ZM342.677 167.343L341.618 169.039L343.403 170.154L344.425 168.315L342.677 167.343ZM575.682 246.22L573.703 245.931L573.39 248.073L575.55 248.215L575.682 246.22ZM569 444H250V448H569V444ZM250 444H247V448H250V444ZM249 446V445.96H245V446H249ZM138 336C138 396.835 186.502 446.341 246.946 447.959L247.054 443.961C188.77 442.4 142 394.661 142 336H138ZM227.655 226.23C176.506 236.587 138 281.794 138 336H142C142 283.735 179.128 240.137 228.449 230.15L227.655 226.23ZM303 154C261.44 154 227.57 186.926 226.053 228.116L230.05 228.264C231.489 189.215 263.599 158 303 158V154ZM343.737 165.647C331.92 158.265 317.955 154 303 154V158C317.184 158 330.418 162.043 341.618 169.039L343.737 165.647ZM452 101C404.221 101 362.607 127.386 340.929 166.371L344.425 168.315C365.425 130.547 405.731 105 452 105V101ZM579 228C579 157.86 522.14 101 452 101V105C519.931 105 575 160.069 575 228H579ZM577.661 246.509C578.543 240.466 579 234.286 579 228H575C575 234.092 574.557 240.079 573.703 245.931L577.661 246.509ZM671 346C671 291.956 628.971 247.731 575.813 244.224L575.55 248.215C626.619 251.584 667 294.077 667 346H671ZM569 448C625.333 448 671 402.333 671 346H667C667 400.124 623.124 444 569 444V448Z" fill="white" fill-opacity="0.3" style="mix-blend-mode:overlay" mask="url(#path-10-inside-1_1_343)"/>
</g>
<g filter="url(#filter10_bi_1_343)">
<path fill-rule="evenodd" clip-rule="evenodd" d="M529 496H210H207V495.96C147.636 494.37 100 445.748 100 386C100 332.765 137.817 288.362 188.052 278.19C189.529 238.071 222.519 206 263 206C277.569 206 291.169 210.154 302.677 217.343C324.016 178.966 364.976 153 412 153C481.036 153 537 208.964 537 278C537 284.189 536.55 290.272 535.682 296.22C587.795 299.658 629 343.017 629 396C629 451.228 584.228 496 529 496Z" fill="url(#paint10_linear_1_343)" fill-opacity="0.6"/>
<path d="M207 496H206.5V496.5H207V496ZM207 495.96H207.5V495.473L207.013 495.46L207 495.96ZM188.052 278.19L188.151 278.68L188.537 278.602L188.551 278.208L188.052 278.19ZM302.677 217.343L302.413 217.767L302.859 218.046L303.114 217.586L302.677 217.343ZM535.682 296.22L535.187 296.147L535.109 296.683L535.649 296.719L535.682 296.22ZM529 495.5H210V496.5H529V495.5ZM210 495.5H207V496.5H210V495.5ZM207.5 496V495.96H206.5V496H207.5ZM99.5 386C99.5 446.02 147.352 494.863 206.987 496.46L207.013 495.46C147.919 493.878 100.5 445.476 100.5 386H99.5ZM187.952 277.7C137.489 287.918 99.5 332.522 99.5 386H100.5C100.5 333.007 138.144 288.806 188.151 278.68L187.952 277.7ZM263 205.5C222.25 205.5 189.04 237.784 187.552 278.172L188.551 278.208C190.019 238.357 222.789 206.5 263 206.5V205.5ZM302.942 216.919C291.356 209.682 277.666 205.5 263 205.5V206.5C277.473 206.5 290.981 210.627 302.413 217.767L302.942 216.919ZM412 152.5C364.787 152.5 323.664 178.571 302.24 217.1L303.114 217.586C324.368 179.362 365.164 153.5 412 153.5V152.5ZM537.5 278C537.5 208.688 481.312 152.5 412 152.5V153.5C480.759 153.5 536.5 209.241 536.5 278H537.5ZM536.176 296.292C537.049 290.321 537.5 284.213 537.5 278H536.5C536.5 284.164 536.052 290.224 535.187 296.147L536.176 296.292ZM629.5 396C629.5 342.752 588.089 299.176 535.715 295.721L535.649 296.719C587.501 300.139 628.5 343.282 628.5 396H629.5ZM529 496.5C584.505 496.5 629.5 451.505 629.5 396H628.5C628.5 450.952 583.952 495.5 529 495.5V496.5Z" fill="white" fill-opacity="0.8"/>
</g>
<defs>
<filter id="filter0_di_1_343" x="346" y="556" width="38" height="42" filterUnits="userSpaceOnUse" color-interpolation-filters="sRGB">
<feFlood flood-opacity="0" result="BackgroundImageFix"/>
<feColorMatrix in="SourceAlpha" type="matrix" values="0 0 0 0 0 0 0 0 0 0 0 0 0 0 0 0 0 0 127 0" result="hardAlpha"/>
<feOffset dy="4"/>
<feGaussianBlur stdDeviation="2"/>
<feComposite in2="hardAlpha" operator="out"/>
<feColorMatrix type="matrix" values="0 0 0 0 0 0 0 0 0 0 0 0 0 0 0 0 0 0 0.25 0"/>
<feBlend mode="normal" in2="BackgroundImageFix" result="effect1_dropShadow_1_343"/>
<feBlend mode="normal" in="SourceGraphic" in2="effect1_dropShadow_1_343" result="shape"/>
<feColorMatrix in="SourceAlpha" type="matrix" values="0 0 0 0 0 0 0 0 0 0 0 0 0 0 0 0 0 0 127 0" result="hardAlpha"/>
<feOffset dx="3" dy="-9"/>
<feGaussianBlur stdDeviation="2"/>
<feComposite in2="hardAlpha" operator="arithmetic" k2="-1" k3="1"/>
<feColorMatrix type="matrix" values="0 0 0 0 0.0666667 0 0 0 0 0.0666667 0 0 0 0 0.0666667 0 0 0 0.25 0"/>
<feBlend mode="normal" in2="shape" result="effect2_innerShadow_1_343"/>
</filter>
<filter id="filter1_di_1_343" x="401" y="495" width="38" height="42" filterUnits="userSpaceOnUse" color-interpolation-filters="sRGB">
<feFlood flood-opacity="0" result="BackgroundImageFix"/>
<feColorMatrix in="SourceAlpha" type="matrix" values="0 0 0 0 0 0 0 0 0 0 0 0 0 0 0 0 0 0 127 0" result="hardAlpha"/>
<feOffset dy="4"/>
<feGaussianBlur stdDeviation="2"/>
<feComposite in2="hardAlpha" operator="out"/>
<feColorMatrix type="matrix" values="0 0 0 0 0 0 0 0 0 0 0 0 0 0 0 0 0 0 0.25 0"/>
<feBlend mode="normal" in2="BackgroundImageFix" result="effect1_dropShadow_1_343"/>
<feBlend mode="normal" in="SourceGraphic" in2="effect1_dropShadow_1_343" result="shape"/>
<feColorMatrix in="SourceAlpha" type="matrix" values="0 0 0 0 0 0 0 0 0 0 0 0 0 0 0 0 0 0 127 0" result="hardAlpha"/>
<feOffset dx="3" dy="-9"/>
<feGaussianBlur stdDeviation="2"/>
<feComposite in2="hardAlpha" operator="arithmetic" k2="-1" k3="1"/>
<feColorMatrix type="matrix" values="0 0 0 0 0.0666667 0 0 0 0 0.0666667 0 0 0 0 0.0666667 0 0 0 0.25 0"/>
<feBlend mode="normal" in2="shape" result="effect2_innerShadow_1_343"/>
</filter>
<filter id="filter2_di_1_343" x="164" y="586" width="38" height="42" filterUnits="userSpaceOnUse" color-interpolation-filters="sRGB">
<feFlood flood-opacity="0" result="BackgroundImageFix"/>
<feColorMatrix in="SourceAlpha" type="matrix" values="0 0 0 0 0 0 0 0 0 0 0 0 0 0 0 0 0 0 127 0" result="hardAlpha"/>
<feOffset dy="4"/>
<feGaussianBlur stdDeviation="2"/>
<feComposite in2="hardAlpha" operator="out"/>
<feColorMatrix type="matrix" values="0 0 0 0 0 0 0 0 0 0 0 0 0 0 0 0 0 0 0.25 0"/>
<feBlend mode="normal" in2="BackgroundImageFix" result="effect1_dropShadow_1_343"/>
<feBlend mode="normal" in="SourceGraphic" in2="effect1_dropShadow_1_343" result="shape"/>
<feColorMatrix in="SourceAlpha" type="matrix" values="0 0 0 0 0 0 0 0 0 0 0 0 0 0 0 0 0 0 127 0" result="hardAlpha"/>
<feOffset dx="3" dy="-9"/>
<feGaussianBlur stdDeviation="2"/>
<feComposite in2="hardAlpha" operator="arithmetic" k2="-1" k3="1"/>
<feColorMatrix type="matrix" values="0 0 0 0 0.0666667 0 0 0 0 0.0666667 0 0 0 0 0.0666667 0 0 0 0.25 0"/>
<feBlend mode="normal" in2="shape" result="effect2_innerShadow_1_343"/>
</filter>
<filter id="filter3_di_1_343" x="240" y="597" width="38" height="42" filterUnits="userSpaceOnUse" color-interpolation-filters="sRGB">
<feFlood flood-opacity="0" result="BackgroundImageFix"/>
<feColorMatrix in="SourceAlpha" type="matrix" values="0 0 0 0 0 0 0 0 0 0 0 0 0 0 0 0 0 0 127 0" result="hardAlpha"/>
<feOffset dy="4"/>
<feGaussianBlur stdDeviation="2"/>
<feComposite in2="hardAlpha" operator="out"/>
<feColorMatrix type="matrix" values="0 0 0 0 0 0 0 0 0 0 0 0 0 0 0 0 0 0 0.25 0"/>
<feBlend mode="normal" in2="BackgroundImageFix" result="effect1_dropShadow_1_343"/>
<feBlend mode="normal" in="SourceGraphic" in2="effect1_dropShadow_1_343" result="shape"/>
<feColorMatrix in="SourceAlpha" type="matrix" values="0 0 0 0 0 0 0 0 0 0 0 0 0 0 0 0 0 0 127 0" result="hardAlpha"/>
<feOffset dx="3" dy="-9"/>
<feGaussianBlur stdDeviation="2"/>
<feComposite in2="hardAlpha" operator="arithmetic" k2="-1" k3="1"/>
<feColorMatrix type="matrix" values="0 0 0 0 0.0666667 0 0 0 0 0.0666667 0 0 0 0 0.0666667 0 0 0 0.25 0"/>
<feBlend mode="normal" in2="shape" result="effect2_innerShadow_1_343"/>
</filter>
<filter id="filter4_di_1_343" x="474" y="506" width="38" height="42" filterUnits="userSpaceOnUse" color-interpolation-filters="sRGB">
<feFlood flood-opacity="0" result="BackgroundImageFix"/>
<feColorMatrix in="SourceAlpha" type="matrix" values="0 0 0 0 0 0 0 0 0 0 0 0 0 0 0 0 0 0 127 0" result="hardAlpha"/>
<feOffset dy="4"/>
<feGaussianBlur stdDeviation="2"/>
<feComposite in2="hardAlpha" operator="out"/>
<feColorMatrix type="matrix" values="0 0 0 0 0 0 0 0 0 0 0 0 0 0 0 0 0 0 0.25 0"/>
<feBlend mode="normal" in2="BackgroundImageFix" result="effect1_dropShadow_1_343"/>
<feBlend mode="normal" in="SourceGraphic" in2="effect1_dropShadow_1_343" result="shape"/>
<feColorMatrix in="SourceAlpha" type="matrix" values="0 0 0 0 0 0 0 0 0 0 0 0 0 0 0 0 0 0 127 0" result="hardAlpha"/>
<feOffset dx="3" dy="-9"/>
<feGaussianBlur stdDeviation="2"/>
<feComposite in2="hardAlpha" operator="arithmetic" k2="-1" k3="1"/>
<feColorMatrix type="matrix" values="0 0 0 0 0.0666667 0 0 0 0 0.0666667 0 0 0 0 0.0666667 0 0 0 0.25 0"/>
<feBlend mode="normal" in2="shape" result="effect2_innerShadow_1_343"/>
</filter>
<filter id="filter5_di_1_343" x="225" y="510" width="38" height="42" filterUnits="userSpaceOnUse" color-interpolation-filters="sRGB">
<feFlood flood-opacity="0" result="BackgroundImageFix"/>
<feColorMatrix in="SourceAlpha" type="matrix" values="0 0 0 0 0 0 0 0 0 0 0 0 0 0 0 0 0 0 127 0" result="hardAlpha"/>
<feOffset dy="4"/>
<feGaussianBlur stdDeviation="2"/>
<feComposite in2="hardAlpha" operator="out"/>
<feColorMatrix type="matrix" values="0 0 0 0 0 0 0 0 0 0 0 0 0 0 0 0 0 0 0.25 0"/>
<feBlend mode="normal" in2="BackgroundImageFix" result="effect1_dropShadow_1_343"/>
<feBlend mode="normal" in="SourceGraphic" in2="effect1_dropShadow_1_343" result="shape"/>
<feColorMatrix in="SourceAlpha" type="matrix" values="0 0 0 0 0 0 0 0 0 0 0 0 0 0 0 0 0 0 127 0" result="hardAlpha"/>
<feOffset dx="3" dy="-9"/>
<feGaussianBlur stdDeviation="2"/>
<feComposite in2="hardAlpha" operator="arithmetic" k2="-1" k3="1"/>
<feColorMatrix type="matrix" values="0 0 0 0 0.0666667 0 0 0 0 0.0666667 0 0 0 0 0.0666667 0 0 0 0.25 0"/>
<feBlend mode="normal" in2="shape" result="effect2_innerShadow_1_343"/>
</filter>
<filter id="filter6_di_1_343" x="255" y="612" width="46" height="50" filterUnits="userSpaceOnUse" color-interpolation-filters="sRGB">
<feFlood flood-opacity="0" result="BackgroundImageFix"/>
<feColorMatrix in="SourceAlpha" type="matrix" values="0 0 0 0 0 0 0 0 0 0 0 0 0 0 0 0 0 0 127 0" result="hardAlpha"/>
<feOffset dy="4"/>
<feGaussianBlur stdDeviation="2"/>
<feComposite in2="hardAlpha" operator="out"/>
<feColorMatrix type="matrix" values="0 0 0 0 0 0 0 0 0 0 0 0 0 0 0 0 0 0 0.25 0"/>
<feBlend mode="normal" in2="BackgroundImageFix" result="effect1_dropShadow_1_343"/>
<feBlend mode="normal" in="SourceGraphic" in2="effect1_dropShadow_1_343" result="shape"/>
<feColorMatrix in="SourceAlpha" type="matrix" values="0 0 0 0 0 0 0 0 0 0 0 0 0 0 0 0 0 0 127 0" result="hardAlpha"/>
<feOffset dx="3" dy="-9"/>
<feGaussianBlur stdDeviation="2"/>
<feComposite in2="hardAlpha" operator="arithmetic" k2="-1" k3="1"/>
<feColorMatrix type="matrix" values="0 0 0 0 0.0666667 0 0 0 0 0.0666667 0 0 0 0 0.0666667 0 0 0 0.25 0"/>
<feBlend mode="normal" in2="shape" result="effect2_innerShadow_1_343"/>
</filter>
<filter id="filter7_di_1_343" x="179" y="657" width="38" height="42" filterUnits="userSpaceOnUse" color-interpolation-filters="sRGB">
<feFlood flood-opacity="0" result="BackgroundImageFix"/>
<feColorMatrix in="SourceAlpha" type="matrix" values="0 0 0 0 0 0 0 0 0 0 0 0 0 0 0 0 0 0 127 0" result="hardAlpha"/>
<feOffset dy="4"/>
<feGaussianBlur stdDeviation="2"/>
<feComposite in2="hardAlpha" operator="out"/>
<feColorMatrix type="matrix" values="0 0 0 0 0 0 0 0 0 0 0 0 0 0 0 0 0 0 0.25 0"/>
<feBlend mode="normal" in2="BackgroundImageFix" result="effect1_dropShadow_1_343"/>
<feBlend mode="normal" in="SourceGraphic" in2="effect1_dropShadow_1_343" result="shape"/>
<feColorMatrix in="SourceAlpha" type="matrix" values="0 0 0 0 0 0 0 0 0 0 0 0 0 0 0 0 0 0 127 0" result="hardAlpha"/>
<feOffset dx="3" dy="-9"/>
<feGaussianBlur stdDeviation="2"/>
<feComposite in2="hardAlpha" operator="arithmetic" k2="-1" k3="1"/>
<feColorMatrix type="matrix" values="0 0 0 0 0.0666667 0 0 0 0 0.0666667 0 0 0 0 0.0666667 0 0 0 0.25 0"/>
<feBlend mode="normal" in2="shape" result="effect2_innerShadow_1_343"/>
</filter>
<filter id="filter8_di_1_343" x="363" y="608" width="46" height="50" filterUnits="userSpaceOnUse" color-interpolation-filters="sRGB">
<feFlood flood-opacity="0" result="BackgroundImageFix"/>
<feColorMatrix in="SourceAlpha" type="matrix" values="0 0 0 0 0 0 0 0 0 0 0 0 0 0 0 0 0 0 127 0" result="hardAlpha"/>
<feOffset dy="4"/>
<feGaussianBlur stdDeviation="2"/>
<feComposite in2="hardAlpha" operator="out"/>
<feColorMatrix type="matrix" values="0 0 0 0 0 0 0 0 0 0 0 0 0 0 0 0 0 0 0.25 0"/>
<feBlend mode="normal" in2="BackgroundImageFix" result="effect1_dropShadow_1_343"/>
<feBlend mode="normal" in="SourceGraphic" in2="effect1_dropShadow_1_343" result="shape"/>
<feColorMatrix in="SourceAlpha" type="matrix" values="0 0 0 0 0 0 0 0 0 0 0 0 0 0 0 0 0 0 127 0" result="hardAlpha"/>
<feOffset dx="3" dy="-9"/>
<feGaussianBlur stdDeviation="2"/>
<feComposite in2="hardAlpha" operator="arithmetic" k2="-1" k3="1"/>
<feColorMatrix type="matrix" values="0 0 0 0 0.0666667 0 0 0 0 0.0666667 0 0 0 0 0.0666667 0 0 0 0.25 0"/>
<feBlend mode="normal" in2="shape" result="effect2_innerShadow_1_343"/>
</filter>
<filter id="filter9_bi_1_343" x="124" y="87" width="561" height="375" filterUnits="userSpaceOnUse" color-interpolation-filters="sRGB">
<feFlood flood-opacity="0" result="BackgroundImageFix"/>
<feGaussianBlur in="BackgroundImageFix" stdDeviation="8"/>
<feComposite in2="SourceAlpha" operator="in" result="effect1_backgroundBlur_1_343"/>
<feBlend mode="normal" in="SourceGraphic" in2="effect1_backgroundBlur_1_343" result="shape"/>
<feColorMatrix in="SourceAlpha" type="matrix" values="0 0 0 0 0 0 0 0 0 0 0 0 0 0 0 0 0 0 127 0" result="hardAlpha"/>
<feOffset dy="4"/>
<feGaussianBlur stdDeviation="8"/>
<feComposite in2="hardAlpha" operator="arithmetic" k2="-1" k3="1"/>
<feColorMatrix type="matrix" values="0 0 0 0 1 0 0 0 0 1 0 0 0 0 1 0 0 0 1 0"/>
<feBlend mode="normal" in2="shape" result="effect2_innerShadow_1_343"/>
</filter>
<filter id="filter10_bi_1_343" x="83.5" y="136.5" width="562" height="376" filterUnits="userSpaceOnUse" color-interpolation-filters="sRGB">
<feFlood flood-opacity="0" result="BackgroundImageFix"/>
<feGaussianBlur in="BackgroundImageFix" stdDeviation="8"/>
<feComposite in2="SourceAlpha" operator="in" result="effect1_backgroundBlur_1_343"/>
<feBlend mode="normal" in="SourceGraphic" in2="effect1_backgroundBlur_1_343" result="shape"/>
<feColorMatrix in="SourceAlpha" type="matrix" values="0 0 0 0 0 0 0 0 0 0 0 0 0 0 0 0 0 0 127 0" result="hardAlpha"/>
<feOffset dy="4"/>
<feGaussianBlur stdDeviation="8"/>
<feComposite in2="hardAlpha" operator="arithmetic" k2="-1" k3="1"/>
<feColorMatrix type="matrix" values="0 0 0 0 1 0 0 0 0 1 0 0 0 0 1 0 0 0 1 0"/>
<feBlend mode="normal" in2="shape" result="effect2_innerShadow_1_343"/>
</filter>
<radialGradient id="paint0_radial_1_343" cx="0" cy="0" r="1" gradientUnits="userSpaceOnUse" gradientTransform="translate(358.067 590) rotate(-66.7298) scale(26.482)">
<stop stop-color="#1462D6"/>
<stop offset="0.993116" stop-color="#ECF3FD"/>
</radialGradient>
<radialGradient id="paint1_radial_1_343" cx="0" cy="0" r="1" gradientUnits="userSpaceOnUse" gradientTransform="translate(413.067 529) rotate(-66.7298) scale(26.482)">
<stop stop-color="#1462D6"/>
<stop offset="0.993116" stop-color="#ECF3FD"/>
</radialGradient>
<radialGradient id="paint2_radial_1_343" cx="0" cy="0" r="1" gradientUnits="userSpaceOnUse" gradientTransform="translate(176.067 620) rotate(-66.7298) scale(26.482)">
<stop stop-color="#1462D6"/>
<stop offset="0.993116" stop-color="#ECF3FD"/>
</radialGradient>
<radialGradient id="paint3_radial_1_343" cx="0" cy="0" r="1" gradientUnits="userSpaceOnUse" gradientTransform="translate(252.067 631) rotate(-66.7298) scale(26.482)">
<stop stop-color="#1462D6"/>
<stop offset="0.993116" stop-color="#ECF3FD"/>
</radialGradient>
<radialGradient id="paint4_radial_1_343" cx="0" cy="0" r="1" gradientUnits="userSpaceOnUse" gradientTransform="translate(486.067 540) rotate(-66.7298) scale(26.482)">
<stop stop-color="#1462D6"/>
<stop offset="0.993116" stop-color="#ECF3FD"/>
</radialGradient>
<radialGradient id="paint5_radial_1_343" cx="0" cy="0" r="1" gradientUnits="userSpaceOnUse" gradientTransform="translate(237.067 544) rotate(-66.7298) scale(26.482)">
<stop stop-color="#1462D6"/>
<stop offset="0.993116" stop-color="#ECF3FD"/>
</radialGradient>
<radialGradient id="paint6_radial_1_343" cx="0" cy="0" r="1" gradientUnits="userSpaceOnUse" gradientTransform="translate(269.218 654) rotate(-66.7298) scale(33.5439)">
<stop stop-color="#1462D6"/>
<stop offset="0.993116" stop-color="#ECF3FD"/>
</radialGradient>
<radialGradient id="paint7_radial_1_343" cx="0" cy="0" r="1" gradientUnits="userSpaceOnUse" gradientTransform="translate(191.067 691) rotate(-66.7298) scale(26.482)">
<stop stop-color="#1462D6"/>
<stop offset="0.993116" stop-color="#ECF3FD"/>
</radialGradient>
<radialGradient id="paint8_radial_1_343" cx="0" cy="0" r="1" gradientUnits="userSpaceOnUse" gradientTransform="translate(377.218 650) rotate(-66.7298) scale(33.5439)">
<stop stop-color="#1462D6"/>
<stop offset="0.993116" stop-color="#ECF3FD"/>
</radialGradient>
<linearGradient id="paint9_linear_1_343" x1="398" y1="442" x2="398" y2="122.5" gradientUnits="userSpaceOnUse">
<stop stop-color="#AABFE1"/>
<stop offset="0.0001" stop-color="#576479"/>
<stop offset="1" stop-color="#D7DEE9" stop-opacity="0.9"/>
</linearGradient>
<linearGradient id="paint10_linear_1_343" x1="309.5" y1="542" x2="476" y2="112" gradientUnits="userSpaceOnUse">
<stop stop-color="#7096D2"/>
<stop offset="1" stop-color="white" stop-opacity="0.9"/>
</linearGradient>
</defs>
</svg>
