<svg width="729" height="729" viewBox="0 0 729 729" fill="none" xmlns="http://www.w3.org/2000/svg">
<g filter="url(#filter0_bi_1_387)">
<mask id="path-1-inside-1_1_387" fill="white">
<path fill-rule="evenodd" clip-rule="evenodd" d="M569 446H250H247V445.96C187.636 444.37 140 395.748 140 336C140 282.765 177.817 238.362 228.052 228.19C229.53 188.071 262.52 156 303 156C317.57 156 331.169 160.154 342.678 167.343C364.016 128.966 404.976 103 452 103C521.036 103 577 158.964 577 228C577 234.189 576.55 240.272 575.682 246.22C627.795 249.658 669 293.017 669 346C669 401.228 624.229 446 569 446Z"/>
</mask>
<path fill-rule="evenodd" clip-rule="evenodd" d="M569 446H250H247V445.96C187.636 444.37 140 395.748 140 336C140 282.765 177.817 238.362 228.052 228.19C229.53 188.071 262.52 156 303 156C317.57 156 331.169 160.154 342.678 167.343C364.016 128.966 404.976 103 452 103C521.036 103 577 158.964 577 228C577 234.189 576.55 240.272 575.682 246.22C627.795 249.658 669 293.017 669 346C669 401.228 624.229 446 569 446Z" fill="url(#paint0_linear_1_387)" fill-opacity="0.6"/>
<path d="M247 446H245V448H247V446ZM247 445.96H249V444.013L247.054 443.961L247 445.96ZM228.052 228.19L228.449 230.15L229.992 229.838L230.05 228.264L228.052 228.19ZM342.678 167.343L341.618 169.039L343.403 170.154L344.426 168.315L342.678 167.343ZM575.682 246.22L573.703 245.931L573.39 248.073L575.55 248.215L575.682 246.22ZM569 444H250V448H569V444ZM250 444H247V448H250V444ZM249 446V445.96H245V446H249ZM138 336C138 396.835 186.502 446.341 246.947 447.959L247.054 443.961C188.77 442.4 142 394.661 142 336H138ZM227.655 226.23C176.506 236.587 138 281.794 138 336H142C142 283.735 179.128 240.137 228.449 230.15L227.655 226.23ZM303 154C261.44 154 227.57 186.926 226.053 228.116L230.05 228.264C231.489 189.215 263.6 158 303 158V154ZM343.737 165.647C331.92 158.265 317.955 154 303 154V158C317.184 158 330.418 162.043 341.618 169.039L343.737 165.647ZM452 101C404.221 101 362.607 127.386 340.93 166.371L344.426 168.315C365.426 130.547 405.731 105 452 105V101ZM579 228C579 157.86 522.14 101 452 101V105C519.931 105 575 160.069 575 228H579ZM577.661 246.509C578.543 240.466 579 234.286 579 228H575C575 234.092 574.557 240.079 573.703 245.931L577.661 246.509ZM671 346C671 291.956 628.971 247.731 575.814 244.224L575.55 248.215C626.619 251.584 667 294.077 667 346H671ZM569 448C625.333 448 671 402.333 671 346H667C667 400.124 623.124 444 569 444V448Z" fill="white" fill-opacity="0.3" style="mix-blend-mode:overlay" mask="url(#path-1-inside-1_1_387)"/>
</g>
<g filter="url(#filter1_bi_1_387)">
<path fill-rule="evenodd" clip-rule="evenodd" d="M529 496H210H207V495.96C147.636 494.37 100 445.748 100 386C100 332.765 137.817 288.362 188.052 278.19C189.53 238.071 222.52 206 263 206C277.57 206 291.169 210.154 302.678 217.343C324.016 178.966 364.976 153 412 153C481.036 153 537 208.964 537 278C537 284.189 536.55 290.272 535.682 296.22C587.795 299.658 629 343.017 629 396C629 451.228 584.229 496 529 496Z" fill="url(#paint1_linear_1_387)" fill-opacity="0.6"/>
<path d="M207 496H206.5V496.5H207V496ZM207 495.96H207.5V495.473L207.014 495.46L207 495.96ZM188.052 278.19L188.151 278.68L188.537 278.602L188.551 278.208L188.052 278.19ZM302.678 217.343L302.413 217.767L302.859 218.046L303.115 217.586L302.678 217.343ZM535.682 296.22L535.187 296.147L535.109 296.683L535.649 296.719L535.682 296.22ZM529 495.5H210V496.5H529V495.5ZM210 495.5H207V496.5H210V495.5ZM207.5 496V495.96H206.5V496H207.5ZM99.5001 386C99.5001 446.02 147.352 494.863 206.987 496.46L207.014 495.46C147.919 493.878 100.5 445.476 100.5 386H99.5001ZM187.953 277.7C137.489 287.918 99.5001 332.522 99.5001 386H100.5C100.5 333.007 138.145 288.806 188.151 278.68L187.953 277.7ZM263 205.5C222.25 205.5 189.04 237.784 187.552 278.172L188.551 278.208C190.019 238.357 222.79 206.5 263 206.5V205.5ZM302.942 216.919C291.356 209.682 277.666 205.5 263 205.5V206.5C277.473 206.5 290.981 210.627 302.413 217.767L302.942 216.919ZM412 152.5C364.787 152.5 323.664 178.571 302.241 217.1L303.115 217.586C324.369 179.362 365.165 153.5 412 153.5V152.5ZM537.5 278C537.5 208.688 481.312 152.5 412 152.5V153.5C480.76 153.5 536.5 209.241 536.5 278H537.5ZM536.177 296.292C537.049 290.321 537.5 284.213 537.5 278H536.5C536.5 284.164 536.052 290.224 535.187 296.147L536.177 296.292ZM629.5 396C629.5 342.752 588.089 299.176 535.715 295.721L535.649 296.719C587.501 300.139 628.5 343.282 628.5 396H629.5ZM529 496.5C584.505 496.5 629.5 451.505 629.5 396H628.5C628.5 450.952 583.952 495.5 529 495.5V496.5Z" fill="white" fill-opacity="0.8"/>
</g>
<g filter="url(#filter2_ii_1_387)">
<path d="M567.069 571.151C564.042 573.555 563.536 577.958 565.94 580.986L605.117 630.323C607.521 633.351 611.925 633.856 614.952 631.452C617.98 629.048 618.485 624.645 616.081 621.617L581.257 577.762L625.112 542.938C628.14 540.534 628.645 536.131 626.241 533.103C623.837 530.075 619.434 529.57 616.406 531.974L567.069 571.151ZM631.876 590.618C635.717 591.059 639.188 588.303 639.629 584.462C640.07 580.621 637.314 577.15 633.473 576.71L631.876 590.618ZM546.541 567.044C542.7 566.603 539.229 569.359 538.788 573.2C538.347 577.041 541.104 580.512 544.944 580.953L546.541 567.044ZM606.197 587.983C610.038 588.424 613.509 585.668 613.95 581.827C614.39 577.987 611.634 574.516 607.793 574.075L606.197 587.983ZM466.73 567.749C469.758 565.345 470.263 560.942 467.859 557.914L428.682 508.577C426.278 505.549 421.875 505.044 418.847 507.448C415.82 509.852 415.314 514.255 417.718 517.283L452.542 561.138L408.687 595.962C405.659 598.366 405.154 602.77 407.558 605.797C409.962 608.825 414.365 609.33 417.393 606.926L466.73 567.749ZM401.923 548.282C398.082 547.841 394.611 550.597 394.17 554.438C393.729 558.279 396.486 561.75 400.326 562.191L401.923 548.282ZM482.807 571.632C486.648 572.073 490.119 569.317 490.56 565.476C491.001 561.635 488.244 558.164 484.404 557.723L482.807 571.632ZM423.151 550.693C419.31 550.252 415.839 553.008 415.398 556.849C414.958 560.689 417.714 564.16 421.554 564.601L423.151 550.693ZM493.382 528.134C496.954 529.612 501.048 527.914 502.526 524.341L526.606 466.125C528.083 462.552 526.385 458.458 522.813 456.981C519.24 455.503 515.146 457.201 513.669 460.774L492.264 512.522L440.516 491.117C436.944 489.64 432.85 491.338 431.372 494.91C429.895 498.483 431.593 502.577 435.165 504.054L493.382 528.134ZM478.9 462.034C477.419 458.463 473.324 456.769 469.753 458.25C466.182 459.731 464.488 463.827 465.969 467.398L478.9 462.034ZM497.801 544.071C499.282 547.642 503.378 549.336 506.949 547.855C510.52 546.374 512.214 542.278 510.732 538.707L497.801 544.071ZM487.11 481.757C485.628 478.186 481.533 476.492 477.962 477.974C474.391 479.455 472.697 483.55 474.178 487.121L487.11 481.757ZM538.779 612.94C535.206 611.463 531.112 613.161 529.634 616.733L505.555 674.95C504.077 678.522 505.775 682.616 509.347 684.094C512.92 685.571 517.014 683.873 518.492 680.301L539.896 628.553L591.644 649.957C595.216 651.435 599.31 649.737 600.788 646.164C602.266 642.592 600.567 638.498 596.995 637.02L538.779 612.94ZM553.26 679.041C554.741 682.612 558.837 684.306 562.408 682.824C565.979 681.343 567.673 677.248 566.192 673.677L553.26 679.041ZM533.852 595.667C532.371 592.096 528.275 590.402 524.704 591.883C521.133 593.364 519.439 597.46 520.921 601.031L533.852 595.667ZM544.543 657.981C546.024 661.552 550.12 663.246 553.691 661.764C557.262 660.283 558.956 656.188 557.475 652.617L544.543 657.981ZM538.18 530.952C538.718 534.78 542.257 537.448 546.085 536.911L608.474 528.153C612.302 527.616 614.97 524.077 614.433 520.248C613.895 516.42 610.356 513.752 606.528 514.289L551.071 522.074L543.287 466.617C542.75 462.789 539.211 460.121 535.382 460.658C531.554 461.196 528.886 464.735 529.423 468.563L538.18 530.952ZM588.332 484.273C590.659 481.186 590.043 476.797 586.956 474.47C583.869 472.143 579.48 472.759 577.153 475.846L588.332 484.273ZM528.045 540.991C525.718 544.078 526.334 548.468 529.421 550.795C532.508 553.122 536.897 552.506 539.224 549.419L528.045 540.991ZM576.854 499.5C579.181 496.413 578.565 492.023 575.478 489.696C572.391 487.369 568.002 487.985 565.675 491.072L576.854 499.5ZM489.236 612.326C488.698 608.498 485.159 605.83 481.331 606.367L418.942 615.125C415.114 615.662 412.446 619.201 412.983 623.03C413.521 626.858 417.06 629.526 420.888 628.989L476.345 621.204L484.129 676.661C484.666 680.489 488.206 683.157 492.034 682.62C495.863 682.082 498.531 678.543 497.993 674.715L489.236 612.326ZM439.084 659.004C436.757 662.092 437.373 666.481 440.46 668.808C443.547 671.135 447.936 670.519 450.264 667.432L439.084 659.004ZM501.44 599.542C503.767 596.455 503.151 592.066 500.064 589.739C496.977 587.412 492.588 588.028 490.261 591.115L501.44 599.542ZM452.631 641.034C450.304 644.121 450.92 648.51 454.007 650.837C457.094 653.164 461.483 652.548 463.81 649.461L452.631 641.034ZM570.624 583.587L631.876 590.618L633.473 576.71L572.22 569.679L570.624 583.587ZM544.944 580.953L606.197 587.983L607.793 574.075L546.541 567.044L544.944 580.953ZM463.175 555.313L401.923 548.282L400.326 562.191L461.579 569.221L463.175 555.313ZM484.404 557.723L423.151 550.693L421.554 564.601L482.807 571.632L484.404 557.723ZM502.523 518.984L478.9 462.034L465.969 467.398L489.592 524.348L502.523 518.984ZM510.732 538.707L487.11 481.757L474.178 487.121L497.801 544.071L510.732 538.707ZM529.637 622.091L553.26 679.041L566.192 673.677L542.569 616.727L529.637 622.091ZM520.921 601.031L544.543 657.981L557.475 652.617L533.852 595.667L520.921 601.031ZM550.702 534.192L588.332 484.273L577.153 475.846L539.523 525.765L550.702 534.192ZM539.224 549.419L576.854 499.5L565.675 491.072L528.045 540.991L539.224 549.419ZM476.714 609.086L439.084 659.004L450.264 667.432L487.893 617.513L476.714 609.086ZM490.261 591.115L452.631 641.034L463.81 649.461L501.44 599.542L490.261 591.115ZM528.677 580.931C522.617 588.97 511.468 590.507 503.827 584.747L495.4 595.926C509.409 606.487 529.29 603.375 539.856 589.358L528.677 580.931ZM503.827 584.747C496.186 578.987 494.594 567.846 500.654 559.807L489.475 551.38C478.908 565.396 481.39 585.366 495.4 595.926L503.827 584.747ZM500.654 559.807C506.714 551.768 517.863 550.231 525.504 555.991L533.931 544.812C519.921 534.251 500.041 537.363 489.475 551.38L500.654 559.807ZM525.504 555.991C533.145 561.751 534.737 572.892 528.677 580.931L539.856 589.358C550.422 575.341 547.941 555.372 533.931 544.812L525.504 555.991Z" fill="url(#paint2_linear_1_387)"/>
</g>
<g filter="url(#filter3_ii_1_387)">
<path d="M306.679 483.195C304.733 484.741 304.408 487.572 305.953 489.518L331.139 521.235C332.684 523.181 335.515 523.506 337.461 521.96C339.408 520.415 339.732 517.584 338.187 515.638L315.8 487.445L343.993 465.058C345.939 463.513 346.264 460.682 344.718 458.736C343.173 456.79 340.342 456.465 338.396 458.01L306.679 483.195ZM329.581 493.557C332.05 493.84 334.281 492.068 334.565 489.599C334.848 487.13 333.076 484.899 330.607 484.615L329.581 493.557ZM301.348 481.362C298.878 481.079 296.647 482.85 296.364 485.32C296.08 487.789 297.852 490.02 300.321 490.303L301.348 481.362ZM320.938 492.67C323.407 492.953 325.638 491.181 325.921 488.712C326.205 486.243 324.433 484.012 321.964 483.729L320.938 492.67ZM275.574 485.408C277.52 483.863 277.845 481.032 276.299 479.086L251.114 447.369C249.569 445.423 246.738 445.098 244.792 446.643C242.845 448.189 242.52 451.02 244.066 452.966L266.453 481.159L238.26 503.545C236.314 505.091 235.989 507.922 237.534 509.868C239.08 511.814 241.911 512.139 243.857 510.594L275.574 485.408ZM252.672 475.047C250.203 474.764 247.972 476.536 247.688 479.005C247.405 481.474 249.177 483.705 251.646 483.988L252.672 475.047ZM279.407 487.166C281.876 487.45 284.107 485.678 284.391 483.209C284.674 480.74 282.902 478.508 280.433 478.225L279.407 487.166ZM259.817 475.859C257.348 475.575 255.117 477.347 254.833 479.816C254.55 482.285 256.322 484.516 258.791 484.8L259.817 475.859ZM282.391 472.377C284.688 473.327 287.32 472.235 288.27 469.939L303.75 432.514C304.7 430.217 303.608 427.585 301.311 426.635C299.015 425.686 296.383 426.777 295.433 429.074L281.673 462.34L248.406 448.58C246.11 447.63 243.478 448.722 242.528 451.019C241.578 453.315 242.67 455.947 244.966 456.897L282.391 472.377ZM280.317 447.326C279.365 445.031 276.732 443.942 274.436 444.894C272.141 445.846 271.052 448.479 272.004 450.775L280.317 447.326ZM282.718 476.581C283.67 478.877 286.303 479.966 288.599 479.014C290.894 478.062 291.983 475.429 291.031 473.133L282.718 476.581ZM283.08 453.965C282.128 451.669 279.495 450.58 277.199 451.532C274.904 452.485 273.815 455.118 274.767 457.413L283.08 453.965ZM299.31 496.959C297.013 496.009 294.381 497.1 293.432 499.397L277.952 536.822C277.002 539.118 278.093 541.75 280.39 542.7C282.686 543.65 285.318 542.558 286.268 540.262L300.028 506.995L333.295 520.755C335.591 521.705 338.223 520.614 339.173 518.317C340.123 516.02 339.031 513.389 336.735 512.439L299.31 496.959ZM301.384 522.009C302.336 524.305 304.969 525.394 307.265 524.442C309.561 523.49 310.65 520.857 309.697 518.561L301.384 522.009ZM298.813 492.304C297.86 490.009 295.227 488.92 292.932 489.872C290.636 490.824 289.547 493.457 290.499 495.753L298.813 492.304ZM298.45 514.921C299.403 517.217 302.035 518.306 304.331 517.353C306.627 516.401 307.716 513.768 306.764 511.473L298.45 514.921ZM296.166 471.642C296.511 474.103 298.787 475.818 301.248 475.473L341.355 469.843C343.816 469.498 345.531 467.223 345.185 464.761C344.84 462.3 342.565 460.585 340.104 460.931L304.453 465.935L299.449 430.284C299.103 427.823 296.828 426.108 294.367 426.454C291.906 426.799 290.191 429.074 290.536 431.535L296.166 471.642ZM316.881 456.924C318.377 454.939 317.981 452.118 315.997 450.622C314.012 449.126 311.19 449.522 309.694 451.506L316.881 456.924ZM293.166 473.433C291.67 475.417 292.066 478.239 294.05 479.735C296.035 481.231 298.856 480.835 300.352 478.85L293.166 473.433ZM313.018 462.049C314.514 460.064 314.118 457.242 312.133 455.746C310.149 454.25 307.327 454.646 305.831 456.631L313.018 462.049ZM283.938 498.435C283.593 495.974 281.318 494.259 278.857 494.604L238.75 500.234C236.289 500.58 234.574 502.855 234.919 505.316C235.264 507.777 237.54 509.492 240.001 509.147L275.651 504.143L280.656 539.793C281.001 542.254 283.276 543.969 285.737 543.624C288.199 543.278 289.914 541.003 289.568 538.542L283.938 498.435ZM263.223 513.154C261.727 515.138 262.123 517.96 264.108 519.456C266.092 520.952 268.914 520.556 270.41 518.571L263.223 513.154ZM287.635 495.721C289.131 493.736 288.735 490.915 286.75 489.419C284.766 487.923 281.944 488.319 280.448 490.303L287.635 495.721ZM267.783 507.105C266.287 509.09 266.683 511.911 268.667 513.407C270.652 514.903 273.474 514.507 274.97 512.523L267.783 507.105ZM308.964 491.19L329.581 493.557L330.607 484.615L309.991 482.249L308.964 491.19ZM300.321 490.303L320.938 492.67L321.964 483.729L301.348 481.362L300.321 490.303ZM273.288 477.414L252.672 475.047L251.646 483.988L272.262 486.355L273.288 477.414ZM280.433 478.225L259.817 475.859L258.791 484.8L279.407 487.166L280.433 478.225ZM288.268 466.494L280.317 447.326L272.004 450.775L279.955 469.943L288.268 466.494ZM291.031 473.133L283.08 453.965L274.767 457.413L282.718 476.581L291.031 473.133ZM293.433 502.841L301.384 522.009L309.697 518.561L301.746 499.393L293.433 502.841ZM290.499 495.753L298.45 514.921L306.764 511.473L298.813 492.304L290.499 495.753ZM304.216 473.725L316.881 456.924L309.694 451.506L297.029 468.308L304.216 473.725ZM300.352 478.85L313.018 462.049L305.831 456.631L293.166 473.433L300.352 478.85ZM275.889 496.352L263.223 513.154L270.41 518.571L283.076 501.769L275.889 496.352ZM280.448 490.303L267.783 507.105L274.97 512.523L287.635 495.721L280.448 490.303ZM293.378 486.876C292.029 488.666 289.614 488.942 288.017 487.738L282.599 494.925C288.29 499.215 296.319 497.926 300.565 492.293L293.378 486.876ZM288.017 487.738C286.42 486.535 286.021 484.137 287.37 482.347L280.184 476.929C275.937 482.562 276.909 490.636 282.599 494.925L288.017 487.738ZM287.37 482.347C288.72 480.557 291.135 480.28 292.732 481.484L298.149 474.297C292.459 470.007 284.43 471.296 280.184 476.929L287.37 482.347ZM292.732 481.484C294.328 482.687 294.728 485.085 293.378 486.876L300.565 492.293C304.812 486.66 303.84 478.587 298.149 474.297L292.732 481.484Z" fill="url(#paint3_linear_1_387)"/>
</g>
<g filter="url(#filter4_ii_1_387)">
<path d="M184.509 641.816C182.347 643.533 181.986 646.678 183.703 648.841L211.687 684.081C213.404 686.244 216.549 686.605 218.711 684.888C220.874 683.171 221.235 680.025 219.518 677.863L194.644 646.538L225.969 621.663C228.131 619.946 228.492 616.801 226.775 614.638C225.058 612.476 221.913 612.115 219.75 613.832L184.509 641.816ZM221.356 654.637C224.1 654.952 226.579 652.983 226.894 650.24C227.209 647.496 225.24 645.017 222.497 644.702L221.356 654.637ZM173.805 639.288C171.062 638.973 168.583 640.942 168.268 643.685C167.953 646.429 169.922 648.908 172.665 649.223L173.805 639.288ZM206.973 653.161C209.717 653.476 212.196 651.507 212.511 648.764C212.826 646.02 210.857 643.541 208.114 643.226L206.973 653.161ZM129.651 641.601C131.814 639.883 132.175 636.738 130.457 634.576L102.474 599.335C100.757 597.172 97.6114 596.811 95.4488 598.528C93.2863 600.246 92.9252 603.391 94.6425 605.553L119.517 636.879L88.1916 661.753C86.029 663.47 85.668 666.615 87.3852 668.778C89.1024 670.94 92.2476 671.301 94.4102 669.584L129.651 641.601ZM92.8039 628.779C90.0604 628.465 87.5812 630.433 87.2663 633.177C86.9514 635.92 88.9201 638.399 91.6635 638.714L92.8039 628.779ZM137.862 644.003C140.605 644.317 143.084 642.349 143.399 639.605C143.714 636.862 141.745 634.383 139.002 634.068L137.862 644.003ZM104.694 630.13C101.95 629.815 99.4712 631.783 99.1563 634.527C98.8414 637.27 100.81 639.75 103.554 640.064L104.694 630.13ZM143.495 619.564C146.047 620.62 148.971 619.407 150.027 616.855L167.227 575.272C168.282 572.72 167.069 569.796 164.517 568.74C161.966 567.685 159.041 568.898 157.986 571.449L142.697 608.412L105.734 593.123C103.182 592.068 100.258 593.281 99.2027 595.833C98.1472 598.384 99.3602 601.309 101.912 602.364L143.495 619.564ZM136.793 581.13C135.735 578.579 132.81 577.369 130.259 578.427C127.709 579.485 126.498 582.411 127.556 584.961L136.793 581.13ZM145.386 627.907C146.444 630.457 149.369 631.667 151.92 630.609C154.471 629.551 155.681 626.626 154.623 624.075L145.386 627.907ZM141.391 592.177C140.333 589.627 137.408 588.417 134.857 589.475C132.307 590.533 131.097 593.458 132.155 596.009L141.391 592.177ZM169.747 665.07C167.195 664.015 164.271 665.227 163.216 667.779L146.016 709.362C144.96 711.914 146.173 714.838 148.725 715.894C151.277 716.949 154.201 715.736 155.256 713.185L170.545 676.222L207.508 691.511C210.06 692.566 212.984 691.353 214.04 688.801C215.095 686.25 213.882 683.325 211.33 682.27L169.747 665.07ZM176.449 703.504C177.507 706.055 180.432 707.265 182.983 706.207C185.534 705.149 186.744 702.223 185.686 699.673L176.449 703.504ZM167.572 655.979C166.514 653.428 163.589 652.218 161.038 653.276C158.487 654.334 157.277 657.26 158.335 659.81L167.572 655.979ZM171.567 691.708C172.625 694.259 175.55 695.469 178.101 694.411C180.651 693.353 181.862 690.427 180.804 687.877L171.567 691.708ZM167.931 620.295C168.315 623.03 170.843 624.935 173.577 624.551L218.14 618.296C220.875 617.912 222.781 615.384 222.397 612.65C222.013 609.915 219.485 608.009 216.75 608.393L177.139 613.953L171.579 574.342C171.195 571.607 168.667 569.701 165.932 570.085C163.197 570.469 161.292 572.997 161.676 575.732L167.931 620.295ZM197.952 594.65C199.614 592.445 199.174 589.31 196.969 587.647C194.764 585.985 191.629 586.425 189.966 588.63L197.952 594.65ZM162.461 625.118C160.799 627.324 161.239 630.459 163.444 632.121C165.649 633.783 168.784 633.343 170.446 631.138L162.461 625.118ZM191.523 603.178C193.185 600.973 192.745 597.838 190.54 596.176C188.335 594.513 185.2 594.953 183.538 597.159L191.523 603.178ZM142.654 665.573C142.27 662.839 139.742 660.933 137.008 661.317L92.4446 667.572C89.71 667.956 87.8043 670.484 88.1881 673.219C88.572 675.953 91.1 677.859 93.8346 677.475L133.446 671.915L139.006 711.527C139.39 714.261 141.918 716.167 144.653 715.783C147.388 715.399 149.293 712.871 148.909 710.136L142.654 665.573ZM112.633 691.219C110.971 693.424 111.411 696.559 113.616 698.221C115.821 699.883 118.956 699.443 120.619 697.238L112.633 691.219ZM149.283 659.213C150.945 657.007 150.505 653.872 148.3 652.21C146.095 650.548 142.96 650.988 141.298 653.193L149.283 659.213ZM120.221 681.153C118.559 683.358 118.999 686.493 121.204 688.155C123.409 689.818 126.544 689.378 128.206 687.172L120.221 681.153ZM187.048 650.699L221.356 654.637L222.497 644.702L188.189 640.764L187.048 650.699ZM172.665 649.223L206.973 653.161L208.114 643.226L173.805 639.288L172.665 649.223ZM127.112 632.718L92.8039 628.779L91.6635 638.714L125.972 642.652L127.112 632.718ZM139.002 634.068L104.694 630.13L103.554 640.064L137.862 644.003L139.002 634.068ZM150.025 613.028L136.793 581.13L127.556 584.961L140.788 616.859L150.025 613.028ZM154.623 624.075L141.391 592.177L132.155 596.009L145.386 627.907L154.623 624.075ZM163.218 671.606L176.449 703.504L185.686 699.673L172.455 667.775L163.218 671.606ZM158.335 659.81L171.567 691.708L180.804 687.877L167.572 655.979L158.335 659.81ZM176.875 622.61L197.952 594.65L189.966 588.63L168.89 616.59L176.875 622.61ZM170.446 631.138L191.523 603.178L183.538 597.159L162.461 625.118L170.446 631.138ZM133.71 663.259L112.633 691.219L120.619 697.238L141.695 669.278L133.71 663.259ZM141.298 653.193L120.221 681.153L128.206 687.172L149.283 659.213L141.298 653.193ZM162.815 647.489C159.768 651.531 154.197 652.27 150.408 649.414L144.388 657.399C152.726 663.685 164.535 661.82 170.8 653.509L162.815 647.489ZM150.408 649.414C146.619 646.558 145.796 640.998 148.843 636.957L140.857 630.937C134.592 639.249 136.05 651.114 144.388 657.399L150.408 649.414ZM148.843 636.957C151.889 632.915 157.461 632.175 161.25 635.031L167.269 627.046C158.931 620.761 147.123 622.625 140.857 630.937L148.843 636.957ZM161.25 635.031C165.039 637.888 165.862 643.447 162.815 647.489L170.8 653.509C177.066 645.197 175.607 633.331 167.269 627.046L161.25 635.031Z" fill="url(#paint4_linear_1_387)"/>
</g>
<defs>
<filter id="filter0_bi_1_387" x="124" y="87" width="561" height="375" filterUnits="userSpaceOnUse" color-interpolation-filters="sRGB">
<feFlood flood-opacity="0" result="BackgroundImageFix"/>
<feGaussianBlur in="BackgroundImageFix" stdDeviation="8"/>
<feComposite in2="SourceAlpha" operator="in" result="effect1_backgroundBlur_1_387"/>
<feBlend mode="normal" in="SourceGraphic" in2="effect1_backgroundBlur_1_387" result="shape"/>
<feColorMatrix in="SourceAlpha" type="matrix" values="0 0 0 0 0 0 0 0 0 0 0 0 0 0 0 0 0 0 127 0" result="hardAlpha"/>
<feOffset dy="4"/>
<feGaussianBlur stdDeviation="8"/>
<feComposite in2="hardAlpha" operator="arithmetic" k2="-1" k3="1"/>
<feColorMatrix type="matrix" values="0 0 0 0 1 0 0 0 0 1 0 0 0 0 1 0 0 0 1 0"/>
<feBlend mode="normal" in2="shape" result="effect2_innerShadow_1_387"/>
</filter>
<filter id="filter1_bi_1_387" x="83.5001" y="136.5" width="562" height="376" filterUnits="userSpaceOnUse" color-interpolation-filters="sRGB">
<feFlood flood-opacity="0" result="BackgroundImageFix"/>
<feGaussianBlur in="BackgroundImageFix" stdDeviation="8"/>
<feComposite in2="SourceAlpha" operator="in" result="effect1_backgroundBlur_1_387"/>
<feBlend mode="normal" in="SourceGraphic" in2="effect1_backgroundBlur_1_387" result="shape"/>
<feColorMatrix in="SourceAlpha" type="matrix" values="0 0 0 0 0 0 0 0 0 0 0 0 0 0 0 0 0 0 127 0" result="hardAlpha"/>
<feOffset dy="4"/>
<feGaussianBlur stdDeviation="8"/>
<feComposite in2="hardAlpha" operator="arithmetic" k2="-1" k3="1"/>
<feColorMatrix type="matrix" values="0 0 0 0 1 0 0 0 0 1 0 0 0 0 1 0 0 0 1 0"/>
<feBlend mode="normal" in2="shape" result="effect2_innerShadow_1_387"/>
</filter>
<filter id="filter2_ii_1_387" x="394.124" y="453.447" width="249.551" height="231.18" filterUnits="userSpaceOnUse" color-interpolation-filters="sRGB">
<feFlood flood-opacity="0" result="BackgroundImageFix"/>
<feBlend mode="normal" in="SourceGraphic" in2="BackgroundImageFix" result="shape"/>
<feColorMatrix in="SourceAlpha" type="matrix" values="0 0 0 0 0 0 0 0 0 0 0 0 0 0 0 0 0 0 127 0" result="hardAlpha"/>
<feOffset dx="4" dy="-3"/>
<feGaussianBlur stdDeviation="2"/>
<feComposite in2="hardAlpha" operator="arithmetic" k2="-1" k3="1"/>
<feColorMatrix type="matrix" values="0 0 0 0 1 0 0 0 0 1 0 0 0 0 1 0 0 0 0.8 0"/>
<feBlend mode="normal" in2="shape" result="effect1_innerShadow_1_387"/>
<feColorMatrix in="SourceAlpha" type="matrix" values="0 0 0 0 0 0 0 0 0 0 0 0 0 0 0 0 0 0 127 0" result="hardAlpha"/>
<feOffset dy="-2"/>
<feGaussianBlur stdDeviation="2"/>
<feComposite in2="hardAlpha" operator="arithmetic" k2="-1" k3="1"/>
<feColorMatrix type="matrix" values="0 0 0 0 1 0 0 0 0 1 0 0 0 0 1 0 0 0 0.9 0"/>
<feBlend mode="normal" in2="effect1_innerShadow_1_387" result="effect2_innerShadow_1_387"/>
</filter>
<filter id="filter3_ii_1_387" x="234.875" y="423.292" width="114.82" height="120.375" filterUnits="userSpaceOnUse" color-interpolation-filters="sRGB">
<feFlood flood-opacity="0" result="BackgroundImageFix"/>
<feBlend mode="normal" in="SourceGraphic" in2="BackgroundImageFix" result="shape"/>
<feColorMatrix in="SourceAlpha" type="matrix" values="0 0 0 0 0 0 0 0 0 0 0 0 0 0 0 0 0 0 127 0" result="hardAlpha"/>
<feOffset dx="4" dy="-3"/>
<feGaussianBlur stdDeviation="2"/>
<feComposite in2="hardAlpha" operator="arithmetic" k2="-1" k3="1"/>
<feColorMatrix type="matrix" values="0 0 0 0 1 0 0 0 0 1 0 0 0 0 1 0 0 0 0.8 0"/>
<feBlend mode="normal" in2="shape" result="effect1_innerShadow_1_387"/>
<feColorMatrix in="SourceAlpha" type="matrix" values="0 0 0 0 0 0 0 0 0 0 0 0 0 0 0 0 0 0 127 0" result="hardAlpha"/>
<feOffset dy="-2"/>
<feGaussianBlur stdDeviation="2"/>
<feComposite in2="hardAlpha" operator="arithmetic" k2="-1" k3="1"/>
<feColorMatrix type="matrix" values="0 0 0 0 1 0 0 0 0 1 0 0 0 0 1 0 0 0 0.9 0"/>
<feBlend mode="normal" in2="effect1_innerShadow_1_387" result="effect2_innerShadow_1_387"/>
</filter>
<filter id="filter4_ii_1_387" x="86.3007" y="565.359" width="145.559" height="150.916" filterUnits="userSpaceOnUse" color-interpolation-filters="sRGB">
<feFlood flood-opacity="0" result="BackgroundImageFix"/>
<feBlend mode="normal" in="SourceGraphic" in2="BackgroundImageFix" result="shape"/>
<feColorMatrix in="SourceAlpha" type="matrix" values="0 0 0 0 0 0 0 0 0 0 0 0 0 0 0 0 0 0 127 0" result="hardAlpha"/>
<feOffset dx="4" dy="-3"/>
<feGaussianBlur stdDeviation="2"/>
<feComposite in2="hardAlpha" operator="arithmetic" k2="-1" k3="1"/>
<feColorMatrix type="matrix" values="0 0 0 0 1 0 0 0 0 1 0 0 0 0 1 0 0 0 0.8 0"/>
<feBlend mode="normal" in2="shape" result="effect1_innerShadow_1_387"/>
<feColorMatrix in="SourceAlpha" type="matrix" values="0 0 0 0 0 0 0 0 0 0 0 0 0 0 0 0 0 0 127 0" result="hardAlpha"/>
<feOffset dy="-2"/>
<feGaussianBlur stdDeviation="2"/>
<feComposite in2="hardAlpha" operator="arithmetic" k2="-1" k3="1"/>
<feColorMatrix type="matrix" values="0 0 0 0 1 0 0 0 0 1 0 0 0 0 1 0 0 0 0.9 0"/>
<feBlend mode="normal" in2="effect1_innerShadow_1_387" result="effect2_innerShadow_1_387"/>
</filter>
<linearGradient id="paint0_linear_1_387" x1="398" y1="442" x2="398" y2="122.5" gradientUnits="userSpaceOnUse">
<stop stop-color="#AABFE1"/>
<stop offset="0.0001" stop-color="#576479"/>
<stop offset="1" stop-color="#D7DEE9" stop-opacity="0.9"/>
</linearGradient>
<linearGradient id="paint1_linear_1_387" x1="309.5" y1="542" x2="476" y2="112" gradientUnits="userSpaceOnUse">
<stop stop-color="#7096D2"/>
<stop offset="1" stop-color="white" stop-opacity="0.9"/>
</linearGradient>
<linearGradient id="paint2_linear_1_387" x1="730.306" y1="420" x2="279.623" y2="717.098" gradientUnits="userSpaceOnUse">
<stop offset="0.15625" stop-color="#69A3D9"/>
<stop offset="0.848958" stop-color="#53B3EA" stop-opacity="0.5"/>
</linearGradient>
<linearGradient id="paint3_linear_1_387" x1="362.955" y1="434" x2="211.264" y2="533.997" gradientUnits="userSpaceOnUse">
<stop offset="0.15625" stop-color="#69A3D9"/>
<stop offset="0.848958" stop-color="#53B3EA" stop-opacity="0.5"/>
</linearGradient>
<linearGradient id="paint4_linear_1_387" x1="276.611" y1="558" x2="24.1795" y2="724.407" gradientUnits="userSpaceOnUse">
<stop offset="0.15625" stop-color="#69A3D9"/>
<stop offset="0.848958" stop-color="#53B3EA" stop-opacity="0.5"/>
</linearGradient>
</defs>
</svg>
