<svg width="729" height="729" viewBox="0 0 729 729" fill="none" xmlns="http://www.w3.org/2000/svg">
<path fill-rule="evenodd" clip-rule="evenodd" d="M583.889 407.19C582.48 405.454 580.41 406.552 579.267 409.643L523.606 560.073C520.98 567.171 521.707 576.158 525.174 579.466C528.408 582.549 532.775 579.461 534.956 572.549L584.539 415.437C585.496 412.403 585.214 408.821 583.889 407.19ZM323.498 411.083C324.798 408.055 326.92 407.063 328.24 408.868C329.479 410.565 329.579 414.157 328.468 417.138L270.936 571.517C268.405 578.308 263.886 581.169 260.814 577.926C257.519 574.445 257.252 565.433 260.236 558.477L323.498 411.083ZM448.752 411.177C450.06 408.153 452.186 407.168 453.5 408.977C454.734 410.677 454.823 414.27 453.702 417.248L395.694 571.448C393.142 578.232 388.615 581.078 385.553 577.825C382.269 574.335 382.029 565.321 385.035 558.376L448.752 411.177Z" fill="url(#paint0_linear_1_203)"/>
<g filter="url(#filter0_bi_1_203)">
<mask id="path-2-inside-1_1_203" fill="white">
<path fill-rule="evenodd" clip-rule="evenodd" d="M569 446H250H247V445.96C187.636 444.37 140 395.748 140 336C140 282.765 177.817 238.362 228.052 228.19C229.529 188.071 262.519 156 303 156C317.569 156 331.169 160.154 342.677 167.343C364.016 128.966 404.976 103 452 103C521.036 103 577 158.964 577 228C577 234.189 576.55 240.272 575.682 246.22C627.795 249.658 669 293.017 669 346C669 401.228 624.228 446 569 446Z"/>
</mask>
<path fill-rule="evenodd" clip-rule="evenodd" d="M569 446H250H247V445.96C187.636 444.37 140 395.748 140 336C140 282.765 177.817 238.362 228.052 228.19C229.529 188.071 262.519 156 303 156C317.569 156 331.169 160.154 342.677 167.343C364.016 128.966 404.976 103 452 103C521.036 103 577 158.964 577 228C577 234.189 576.55 240.272 575.682 246.22C627.795 249.658 669 293.017 669 346C669 401.228 624.228 446 569 446Z" fill="url(#paint1_linear_1_203)" fill-opacity="0.6"/>
<path d="M247 446H245V448H247V446ZM247 445.96H249V444.013L247.054 443.961L247 445.96ZM228.052 228.19L228.449 230.15L229.992 229.838L230.05 228.264L228.052 228.19ZM342.677 167.343L341.618 169.039L343.403 170.154L344.425 168.315L342.677 167.343ZM575.682 246.22L573.703 245.931L573.39 248.073L575.55 248.215L575.682 246.22ZM569 444H250V448H569V444ZM250 444H247V448H250V444ZM249 446V445.96H245V446H249ZM138 336C138 396.835 186.502 446.341 246.946 447.959L247.054 443.961C188.77 442.4 142 394.661 142 336H138ZM227.655 226.23C176.506 236.587 138 281.794 138 336H142C142 283.735 179.128 240.137 228.449 230.15L227.655 226.23ZM303 154C261.44 154 227.57 186.926 226.053 228.116L230.05 228.264C231.489 189.215 263.599 158 303 158V154ZM343.737 165.647C331.92 158.265 317.955 154 303 154V158C317.184 158 330.418 162.043 341.618 169.039L343.737 165.647ZM452 101C404.221 101 362.607 127.386 340.929 166.371L344.425 168.315C365.425 130.547 405.731 105 452 105V101ZM579 228C579 157.86 522.14 101 452 101V105C519.931 105 575 160.069 575 228H579ZM577.661 246.509C578.543 240.466 579 234.286 579 228H575C575 234.092 574.557 240.079 573.703 245.931L577.661 246.509ZM671 346C671 291.956 628.971 247.731 575.813 244.224L575.55 248.215C626.619 251.584 667 294.077 667 346H671ZM569 448C625.333 448 671 402.333 671 346H667C667 400.124 623.124 444 569 444V448Z" fill="white" fill-opacity="0.3" style="mix-blend-mode:overlay" mask="url(#path-2-inside-1_1_203)"/>
</g>
<g filter="url(#filter1_di_1_203)">
<path d="M240.019 216.371C237.857 218.088 237.496 221.234 239.213 223.396L267.197 258.637C268.914 260.799 272.059 261.161 274.221 259.443C276.384 257.726 276.745 254.581 275.028 252.418L250.153 221.093L281.479 196.219C283.641 194.502 284.002 191.356 282.285 189.194C280.568 187.031 277.423 186.67 275.26 188.388L240.019 216.371ZM285.687 230.205C288.43 230.52 290.91 228.551 291.224 225.807C291.539 223.064 289.571 220.585 286.827 220.27L285.687 230.205ZM225.618 213.464C222.874 213.149 220.395 215.118 220.08 217.861C219.765 220.605 221.734 223.084 224.477 223.399L225.618 213.464ZM267.606 228.349C270.349 228.664 272.828 226.696 273.143 223.952C273.458 221.209 271.489 218.73 268.746 218.415L267.606 228.349ZM169.458 214.087C171.621 212.37 171.982 209.225 170.265 207.062L142.281 171.821C140.564 169.659 137.419 169.298 135.256 171.015C133.094 172.732 132.733 175.878 134.45 178.04L159.324 209.365L127.999 234.24C125.836 235.957 125.475 239.102 127.192 241.265C128.91 243.427 132.055 243.788 134.217 242.071L169.458 214.087ZM123.791 200.254C121.047 199.939 118.568 201.908 118.253 204.651C117.938 207.394 119.907 209.874 122.65 210.188L123.791 200.254ZM180.726 216.836C183.469 217.151 185.948 215.183 186.263 212.439C186.578 209.696 184.61 207.217 181.866 206.902L180.726 216.836ZM138.738 201.951C135.994 201.636 133.515 203.605 133.2 206.348C132.885 209.092 134.854 211.571 137.597 211.886L138.738 201.951ZM188.152 186.204C190.704 187.26 193.628 186.047 194.684 183.495L211.884 141.912C212.939 139.36 211.726 136.436 209.175 135.38C206.623 134.325 203.699 135.538 202.643 138.089L187.354 175.052L150.391 159.763C147.84 158.708 144.915 159.921 143.86 162.473C142.804 165.024 144.017 167.949 146.569 169.004L188.152 186.204ZM178.049 139.569C176.991 137.018 174.065 135.808 171.515 136.866C168.964 137.924 167.754 140.85 168.812 143.401L178.049 139.569ZM191.225 197.387C192.283 199.938 195.209 201.148 197.759 200.09C200.31 199.032 201.52 196.106 200.462 193.556L191.225 197.387ZM183.829 153.457C182.771 150.906 179.846 149.696 177.295 150.754C174.744 151.812 173.534 154.737 174.592 157.288L183.829 153.457ZM220.171 245.785C217.619 244.73 214.695 245.943 213.64 248.494L196.44 290.078C195.384 292.629 196.597 295.554 199.149 296.609C201.701 297.665 204.625 296.452 205.68 293.9L220.969 256.937L257.932 272.226C260.484 273.281 263.408 272.068 264.464 269.517C265.519 266.965 264.306 264.041 261.754 262.985L220.171 245.785ZM230.275 292.42C231.333 294.971 234.258 296.181 236.809 295.123C239.359 294.065 240.569 291.139 239.511 288.589L230.275 292.42ZM216.741 233.661C215.683 231.111 212.757 229.901 210.207 230.959C207.656 232.017 206.446 234.942 207.504 237.493L216.741 233.661ZM224.137 277.592C225.195 280.142 228.121 281.352 230.671 280.294C233.222 279.236 234.432 276.311 233.374 273.76L224.137 277.592ZM219.652 188.132C220.036 190.867 222.564 192.772 225.299 192.388L269.862 186.133C272.596 185.749 274.502 183.221 274.118 180.487C273.734 177.752 271.206 175.846 268.472 176.23L228.86 181.791L223.3 142.179C222.916 139.444 220.388 137.539 217.653 137.922C214.919 138.306 213.013 140.834 213.397 143.569L219.652 188.132ZM255.092 155.298C256.754 153.093 256.314 149.958 254.109 148.296C251.904 146.634 248.769 147.074 247.107 149.279L255.092 155.298ZM212.529 195.148C210.867 197.353 211.307 200.488 213.512 202.151C215.717 203.813 218.852 203.373 220.515 201.168L212.529 195.148ZM247.01 166.019C248.672 163.814 248.232 160.679 246.027 159.017C243.822 157.355 240.687 157.795 239.025 160L247.01 166.019ZM185.331 245.409C184.947 242.674 182.419 240.769 179.684 241.152L135.121 247.408C132.387 247.791 130.481 250.319 130.865 253.054C131.249 255.789 133.777 257.694 136.511 257.311L176.123 251.75L181.683 291.362C182.067 294.097 184.595 296.002 187.33 295.618C190.064 295.235 191.97 292.707 191.586 289.972L185.331 245.409ZM149.891 278.242C148.229 280.448 148.669 283.583 150.874 285.245C153.079 286.907 156.214 286.467 157.877 284.262L149.891 278.242ZM193.911 236.46C195.573 234.255 195.133 231.12 192.928 229.458C190.723 227.795 187.587 228.236 185.925 230.441L193.911 236.46ZM159.43 265.589C157.767 267.794 158.207 270.929 160.413 272.591C162.618 274.254 165.753 273.814 167.415 271.609L159.43 265.589ZM242.558 225.254L285.687 230.205L286.827 220.27L243.699 215.319L242.558 225.254ZM224.477 223.399L267.606 228.349L268.746 218.415L225.618 213.464L224.477 223.399ZM166.919 205.204L123.791 200.254L122.65 210.188L165.779 215.139L166.919 205.204ZM181.866 206.902L138.738 201.951L137.597 211.886L180.726 216.836L181.866 206.902ZM194.682 179.668L178.049 139.569L168.812 143.401L185.445 183.499L194.682 179.668ZM200.462 193.556L183.829 153.457L174.592 157.288L191.225 197.387L200.462 193.556ZM213.642 252.321L230.275 292.42L239.511 288.589L222.878 248.49L213.642 252.321ZM207.504 237.493L224.137 277.592L233.374 273.76L216.741 233.661L207.504 237.493ZM228.596 190.447L255.092 155.298L247.107 149.279L220.611 184.427L228.596 190.447ZM220.515 201.168L247.01 166.019L239.025 160L212.529 195.148L220.515 201.168ZM176.387 243.094L149.891 278.242L157.877 284.262L184.372 249.114L176.387 243.094ZM185.925 230.441L159.43 265.589L167.415 271.609L193.911 236.46L185.925 230.441ZM212.974 223.27C208.73 228.9 200.925 229.974 195.577 225.943L189.558 233.928C199.454 241.389 213.497 239.189 220.96 229.29L212.974 223.27ZM195.577 225.943C190.229 221.912 189.113 214.112 193.357 208.482L185.372 202.463C177.909 212.363 179.661 226.468 189.558 233.928L195.577 225.943ZM193.357 208.482C197.601 202.853 205.406 201.778 210.754 205.81L216.774 197.824C206.877 190.364 192.834 192.563 185.372 202.463L193.357 208.482ZM210.754 205.81C216.102 209.841 217.218 217.64 212.974 223.27L220.96 229.29C228.422 219.39 226.67 205.285 216.774 197.824L210.754 205.81Z" fill="url(#paint2_linear_1_203)"/>
</g>
<g filter="url(#filter2_bi_1_203)">
<path fill-rule="evenodd" clip-rule="evenodd" d="M529 496H210H207V495.96C147.636 494.37 100 445.748 100 386C100 332.765 137.817 288.362 188.052 278.19C189.529 238.071 222.519 206 263 206C277.569 206 291.169 210.154 302.677 217.343C324.016 178.966 364.976 153 412 153C481.036 153 537 208.964 537 278C537 284.189 536.55 290.272 535.682 296.22C587.795 299.658 629 343.017 629 396C629 451.228 584.228 496 529 496Z" fill="url(#paint3_linear_1_203)" fill-opacity="0.6"/>
<path d="M207 496H206.5V496.5H207V496ZM207 495.96H207.5V495.473L207.013 495.46L207 495.96ZM188.052 278.19L188.151 278.68L188.537 278.602L188.551 278.208L188.052 278.19ZM302.677 217.343L302.413 217.767L302.859 218.046L303.114 217.586L302.677 217.343ZM535.682 296.22L535.187 296.147L535.109 296.683L535.649 296.719L535.682 296.22ZM529 495.5H210V496.5H529V495.5ZM210 495.5H207V496.5H210V495.5ZM207.5 496V495.96H206.5V496H207.5ZM99.5 386C99.5 446.02 147.352 494.863 206.987 496.46L207.013 495.46C147.919 493.878 100.5 445.476 100.5 386H99.5ZM187.952 277.7C137.489 287.918 99.5 332.522 99.5 386H100.5C100.5 333.007 138.144 288.806 188.151 278.68L187.952 277.7ZM263 205.5C222.25 205.5 189.04 237.784 187.552 278.172L188.551 278.208C190.019 238.357 222.789 206.5 263 206.5V205.5ZM302.942 216.919C291.356 209.682 277.666 205.5 263 205.5V206.5C277.473 206.5 290.981 210.627 302.413 217.767L302.942 216.919ZM412 152.5C364.787 152.5 323.664 178.571 302.24 217.1L303.114 217.586C324.368 179.362 365.164 153.5 412 153.5V152.5ZM537.5 278C537.5 208.688 481.312 152.5 412 152.5V153.5C480.759 153.5 536.5 209.241 536.5 278H537.5ZM536.176 296.292C537.049 290.321 537.5 284.213 537.5 278H536.5C536.5 284.164 536.052 290.224 535.187 296.147L536.176 296.292ZM629.5 396C629.5 342.752 588.089 299.176 535.715 295.721L535.649 296.719C587.501 300.139 628.5 343.282 628.5 396H629.5ZM529 496.5C584.505 496.5 629.5 451.505 629.5 396H628.5C628.5 450.952 583.952 495.5 529 495.5V496.5Z" fill="white" fill-opacity="0.8"/>
</g>
<path fill-rule="evenodd" clip-rule="evenodd" d="M221.596 467.109C219.127 465.455 216.059 466.672 214.743 469.828L150.649 623.414C147.625 630.661 150.133 639.603 156.059 642.71C161.587 645.605 167.944 642.267 170.301 635.231L223.87 475.316C224.905 472.228 223.916 468.663 221.596 467.109ZM364.743 469.828C366.059 466.672 369.127 465.455 371.596 467.109C373.916 468.663 374.905 472.228 373.87 475.316L320.301 635.231C317.944 642.267 311.587 645.605 306.059 642.71C300.133 639.603 297.625 630.661 300.649 623.414L364.743 469.828ZM504.743 469.828C506.059 466.672 509.128 465.455 511.596 467.109C513.916 468.663 514.905 472.228 513.87 475.316L460.301 635.231C457.944 642.267 451.587 645.605 446.059 642.71C440.133 639.603 437.625 630.661 440.649 623.414L504.743 469.828Z" fill="url(#paint4_linear_1_203)"/>
<defs>
<filter id="filter0_bi_1_203" x="124" y="87" width="561" height="375" filterUnits="userSpaceOnUse" color-interpolation-filters="sRGB">
<feFlood flood-opacity="0" result="BackgroundImageFix"/>
<feGaussianBlur in="BackgroundImageFix" stdDeviation="8"/>
<feComposite in2="SourceAlpha" operator="in" result="effect1_backgroundBlur_1_203"/>
<feBlend mode="normal" in="SourceGraphic" in2="effect1_backgroundBlur_1_203" result="shape"/>
<feColorMatrix in="SourceAlpha" type="matrix" values="0 0 0 0 0 0 0 0 0 0 0 0 0 0 0 0 0 0 127 0" result="hardAlpha"/>
<feOffset dy="4"/>
<feGaussianBlur stdDeviation="8"/>
<feComposite in2="hardAlpha" operator="arithmetic" k2="-1" k3="1"/>
<feColorMatrix type="matrix" values="0 0 0 0 1 0 0 0 0 1 0 0 0 0 1 0 0 0 1 0"/>
<feBlend mode="normal" in2="shape" result="effect2_innerShadow_1_203"/>
</filter>
<filter id="filter1_di_1_203" x="108.22" y="124.999" width="203.038" height="191.991" filterUnits="userSpaceOnUse" color-interpolation-filters="sRGB">
<feFlood flood-opacity="0" result="BackgroundImageFix"/>
<feColorMatrix in="SourceAlpha" type="matrix" values="0 0 0 0 0 0 0 0 0 0 0 0 0 0 0 0 0 0 127 0" result="hardAlpha"/>
<feOffset dx="5" dy="5"/>
<feGaussianBlur stdDeviation="7.5"/>
<feComposite in2="hardAlpha" operator="out"/>
<feColorMatrix type="matrix" values="0 0 0 0 0.768627 0 0 0 0 0.768627 0 0 0 0 0.768627 0 0 0 0.5 0"/>
<feBlend mode="normal" in2="BackgroundImageFix" result="effect1_dropShadow_1_203"/>
<feBlend mode="normal" in="SourceGraphic" in2="effect1_dropShadow_1_203" result="shape"/>
<feColorMatrix in="SourceAlpha" type="matrix" values="0 0 0 0 0 0 0 0 0 0 0 0 0 0 0 0 0 0 127 0" result="hardAlpha"/>
<feOffset dy="4"/>
<feGaussianBlur stdDeviation="2"/>
<feComposite in2="hardAlpha" operator="arithmetic" k2="-1" k3="1"/>
<feColorMatrix type="matrix" values="0 0 0 0 1 0 0 0 0 1 0 0 0 0 1 0 0 0 0.45 0"/>
<feBlend mode="normal" in2="shape" result="effect2_innerShadow_1_203"/>
</filter>
<filter id="filter2_bi_1_203" x="83.5" y="136.5" width="562" height="376" filterUnits="userSpaceOnUse" color-interpolation-filters="sRGB">
<feFlood flood-opacity="0" result="BackgroundImageFix"/>
<feGaussianBlur in="BackgroundImageFix" stdDeviation="8"/>
<feComposite in2="SourceAlpha" operator="in" result="effect1_backgroundBlur_1_203"/>
<feBlend mode="normal" in="SourceGraphic" in2="effect1_backgroundBlur_1_203" result="shape"/>
<feColorMatrix in="SourceAlpha" type="matrix" values="0 0 0 0 0 0 0 0 0 0 0 0 0 0 0 0 0 0 127 0" result="hardAlpha"/>
<feOffset dy="4"/>
<feGaussianBlur stdDeviation="8"/>
<feComposite in2="hardAlpha" operator="arithmetic" k2="-1" k3="1"/>
<feColorMatrix type="matrix" values="0 0 0 0 1 0 0 0 0 1 0 0 0 0 1 0 0 0 1 0"/>
<feBlend mode="normal" in2="shape" result="effect2_innerShadow_1_203"/>
</filter>
<linearGradient id="paint0_linear_1_203" x1="573.785" y1="407.06" x2="453.219" y2="504.964" gradientUnits="userSpaceOnUse">
<stop stop-color="#B0CEFC" stop-opacity="0.48"/>
<stop offset="1" stop-color="#4597EE" stop-opacity="0.85"/>
</linearGradient>
<linearGradient id="paint1_linear_1_203" x1="398" y1="442" x2="398" y2="122.5" gradientUnits="userSpaceOnUse">
<stop stop-color="#AABFE1"/>
<stop offset="0.0001" stop-color="#576479"/>
<stop offset="1" stop-color="#D7DEE9" stop-opacity="0.9"/>
</linearGradient>
<linearGradient id="paint2_linear_1_203" x1="355" y1="110" x2="37.6698" y2="319.19" gradientUnits="userSpaceOnUse">
<stop stop-color="#57B7ED"/>
<stop offset="0.565934" stop-color="#53B3EA" stop-opacity="0.5"/>
</linearGradient>
<linearGradient id="paint3_linear_1_203" x1="309.5" y1="542" x2="476" y2="112" gradientUnits="userSpaceOnUse">
<stop stop-color="#7096D2"/>
<stop offset="1" stop-color="white" stop-opacity="0.9"/>
</linearGradient>
<linearGradient id="paint4_linear_1_203" x1="492.804" y1="467.064" x2="370.378" y2="576.582" gradientUnits="userSpaceOnUse">
<stop stop-color="#B0CEFC" stop-opacity="0.48"/>
<stop offset="1" stop-color="#4597EE" stop-opacity="0.85"/>
</linearGradient>
</defs>
</svg>
