<svg width="729" height="729" viewBox="0 0 729 729" fill="none" xmlns="http://www.w3.org/2000/svg">
<path fill-rule="evenodd" clip-rule="evenodd" d="M318.895 475.246C317.052 474.648 314.845 475.178 313.965 476.429L271.111 537.336C269.09 540.21 271.146 543.642 275.548 544.741C279.653 545.765 284.206 544.35 285.746 541.571L320.762 478.396C321.439 477.176 320.627 475.808 318.895 475.246ZM528.895 485.246C527.052 484.648 524.845 485.178 523.965 486.429L481.111 547.336C479.09 550.21 481.146 553.642 485.548 554.741C489.653 555.765 494.206 554.35 495.746 551.571L530.762 488.396C531.439 487.176 530.627 485.808 528.895 485.246ZM418.895 535.246C417.052 534.648 414.845 535.178 413.965 536.429L371.111 597.336C369.09 600.21 371.146 603.642 375.548 604.741C379.653 605.765 384.206 604.35 385.746 601.571L420.762 538.396C421.439 537.176 420.627 535.808 418.895 535.246ZM193.965 536.429C194.845 535.178 197.052 534.648 198.895 535.246C200.627 535.808 201.439 537.176 200.762 538.396L165.746 601.571C164.206 604.35 159.653 605.765 155.548 604.741C151.146 603.642 149.09 600.21 151.111 597.336L193.965 536.429Z" fill="url(#paint0_linear_1_249)"/>
<path fill-rule="evenodd" clip-rule="evenodd" d="M253.634 506.429C254.515 505.178 256.722 504.648 258.565 505.246C260.296 505.808 261.108 507.176 260.432 508.396L225.415 571.571C223.875 574.35 219.322 575.765 215.217 574.741C210.815 573.642 208.759 570.21 210.78 567.336L253.634 506.429ZM383.634 506.429C384.515 505.178 386.722 504.648 388.565 505.246C390.296 505.808 391.108 507.176 390.432 508.396L355.415 571.571C353.875 574.35 349.322 575.765 345.217 574.741C340.815 573.642 338.759 570.21 340.78 567.336L383.634 506.429ZM518.565 505.246C516.722 504.648 514.514 505.178 513.634 506.429L470.78 567.336C468.759 570.21 470.815 573.642 475.217 574.741C479.322 575.765 483.875 574.35 485.415 571.571L520.432 508.396C521.108 507.176 520.296 505.808 518.565 505.246Z" fill="url(#paint1_linear_1_249)"/>
<path fill-rule="evenodd" clip-rule="evenodd" d="M558.565 515.246C556.722 514.648 554.514 515.178 553.634 516.429L510.78 577.336C508.759 580.21 510.815 583.642 515.217 584.741C519.322 585.765 523.875 584.35 525.415 581.571L560.432 518.396C561.108 517.176 560.296 515.808 558.565 515.246ZM333.634 516.429C334.515 515.178 336.722 514.648 338.565 515.246C340.296 515.808 341.108 517.176 340.432 518.396L305.415 581.571C303.875 584.35 299.322 585.765 295.217 584.741C290.815 583.642 288.759 580.21 290.78 577.336L333.634 516.429ZM463.634 516.429C464.515 515.178 466.722 514.648 468.565 515.246C470.296 515.808 471.108 517.176 470.432 518.396L435.415 581.571C433.875 584.35 429.322 585.765 425.217 584.741C420.815 583.642 418.759 580.21 420.78 577.336L463.634 516.429Z" fill="url(#paint2_linear_1_249)"/>
<g filter="url(#filter0_di_1_249)">
<path d="M240.019 216.371C237.857 218.088 237.496 221.234 239.213 223.396L267.197 258.637C268.914 260.799 272.059 261.161 274.221 259.443C276.384 257.726 276.745 254.581 275.028 252.418L250.153 221.093L281.479 196.219C283.641 194.502 284.002 191.356 282.285 189.194C280.568 187.031 277.423 186.67 275.26 188.388L240.019 216.371ZM285.687 230.205C288.43 230.52 290.91 228.551 291.224 225.807C291.539 223.064 289.571 220.585 286.827 220.27L285.687 230.205ZM225.618 213.464C222.874 213.149 220.395 215.118 220.08 217.861C219.765 220.605 221.734 223.084 224.477 223.399L225.618 213.464ZM267.606 228.349C270.349 228.664 272.828 226.696 273.143 223.952C273.458 221.209 271.489 218.73 268.746 218.415L267.606 228.349ZM169.458 214.087C171.621 212.37 171.982 209.225 170.265 207.062L142.281 171.821C140.564 169.659 137.419 169.298 135.256 171.015C133.094 172.732 132.733 175.878 134.45 178.04L159.324 209.365L127.999 234.24C125.836 235.957 125.475 239.102 127.192 241.265C128.91 243.427 132.055 243.788 134.217 242.071L169.458 214.087ZM123.791 200.254C121.047 199.939 118.568 201.908 118.253 204.651C117.938 207.394 119.907 209.874 122.65 210.188L123.791 200.254ZM180.726 216.836C183.469 217.151 185.948 215.183 186.263 212.439C186.578 209.696 184.61 207.217 181.866 206.902L180.726 216.836ZM138.738 201.951C135.994 201.636 133.515 203.605 133.2 206.348C132.885 209.092 134.854 211.571 137.597 211.886L138.738 201.951ZM188.152 186.204C190.704 187.26 193.628 186.047 194.684 183.495L211.884 141.912C212.939 139.36 211.726 136.436 209.175 135.38C206.623 134.325 203.699 135.538 202.643 138.089L187.354 175.052L150.391 159.763C147.84 158.708 144.915 159.921 143.86 162.473C142.804 165.024 144.017 167.949 146.569 169.004L188.152 186.204ZM178.049 139.569C176.991 137.018 174.065 135.808 171.515 136.866C168.964 137.924 167.754 140.85 168.812 143.401L178.049 139.569ZM191.225 197.387C192.283 199.938 195.209 201.148 197.759 200.09C200.31 199.032 201.52 196.106 200.462 193.556L191.225 197.387ZM183.829 153.457C182.771 150.906 179.846 149.696 177.295 150.754C174.744 151.812 173.534 154.737 174.592 157.288L183.829 153.457ZM220.171 245.785C217.619 244.73 214.695 245.943 213.64 248.494L196.44 290.078C195.384 292.629 196.597 295.554 199.149 296.609C201.701 297.665 204.625 296.452 205.68 293.9L220.969 256.937L257.932 272.226C260.484 273.281 263.408 272.068 264.464 269.517C265.519 266.965 264.306 264.041 261.754 262.985L220.171 245.785ZM230.275 292.42C231.333 294.971 234.258 296.181 236.809 295.123C239.359 294.065 240.569 291.139 239.511 288.589L230.275 292.42ZM216.741 233.661C215.683 231.111 212.757 229.901 210.207 230.959C207.656 232.017 206.446 234.942 207.504 237.493L216.741 233.661ZM224.137 277.592C225.195 280.142 228.121 281.352 230.671 280.294C233.222 279.236 234.432 276.311 233.374 273.76L224.137 277.592ZM219.652 188.132C220.036 190.867 222.564 192.772 225.299 192.388L269.862 186.133C272.596 185.749 274.502 183.221 274.118 180.487C273.734 177.752 271.206 175.846 268.472 176.23L228.86 181.791L223.3 142.179C222.916 139.444 220.388 137.539 217.653 137.922C214.919 138.306 213.013 140.834 213.397 143.569L219.652 188.132ZM255.092 155.298C256.754 153.093 256.314 149.958 254.109 148.296C251.904 146.634 248.769 147.074 247.107 149.279L255.092 155.298ZM212.529 195.148C210.867 197.353 211.307 200.488 213.512 202.151C215.717 203.813 218.852 203.373 220.515 201.168L212.529 195.148ZM247.01 166.019C248.672 163.814 248.232 160.679 246.027 159.017C243.822 157.355 240.687 157.795 239.025 160L247.01 166.019ZM185.331 245.409C184.947 242.674 182.419 240.769 179.684 241.152L135.121 247.408C132.387 247.791 130.481 250.319 130.865 253.054C131.249 255.789 133.777 257.694 136.511 257.311L176.123 251.75L181.683 291.362C182.067 294.097 184.595 296.002 187.33 295.618C190.064 295.235 191.97 292.707 191.586 289.972L185.331 245.409ZM149.891 278.242C148.229 280.448 148.669 283.583 150.874 285.245C153.079 286.907 156.214 286.467 157.877 284.262L149.891 278.242ZM193.911 236.46C195.573 234.255 195.133 231.12 192.928 229.458C190.723 227.795 187.587 228.236 185.925 230.441L193.911 236.46ZM159.43 265.589C157.767 267.794 158.207 270.929 160.413 272.591C162.618 274.254 165.753 273.814 167.415 271.609L159.43 265.589ZM242.558 225.254L285.687 230.205L286.827 220.27L243.699 215.319L242.558 225.254ZM224.477 223.399L267.606 228.349L268.746 218.415L225.618 213.464L224.477 223.399ZM166.919 205.204L123.791 200.254L122.65 210.188L165.779 215.139L166.919 205.204ZM181.866 206.902L138.738 201.951L137.597 211.886L180.726 216.836L181.866 206.902ZM194.682 179.668L178.049 139.569L168.812 143.401L185.445 183.499L194.682 179.668ZM200.462 193.556L183.829 153.457L174.592 157.288L191.225 197.387L200.462 193.556ZM213.642 252.321L230.275 292.42L239.511 288.589L222.878 248.49L213.642 252.321ZM207.504 237.493L224.137 277.592L233.374 273.76L216.741 233.661L207.504 237.493ZM228.596 190.447L255.092 155.298L247.107 149.279L220.611 184.427L228.596 190.447ZM220.515 201.168L247.01 166.019L239.025 160L212.529 195.148L220.515 201.168ZM176.387 243.094L149.891 278.242L157.877 284.262L184.372 249.114L176.387 243.094ZM185.925 230.441L159.43 265.589L167.415 271.609L193.911 236.46L185.925 230.441ZM212.974 223.27C208.73 228.9 200.925 229.974 195.577 225.943L189.558 233.928C199.454 241.389 213.497 239.189 220.96 229.29L212.974 223.27ZM195.577 225.943C190.229 221.912 189.113 214.112 193.357 208.482L185.372 202.463C177.909 212.363 179.661 226.468 189.558 233.928L195.577 225.943ZM193.357 208.482C197.601 202.853 205.406 201.778 210.754 205.81L216.774 197.824C206.877 190.364 192.834 192.563 185.372 202.463L193.357 208.482ZM210.754 205.81C216.102 209.841 217.218 217.64 212.974 223.27L220.96 229.29C228.422 219.39 226.67 205.285 216.774 197.824L210.754 205.81Z" fill="url(#paint3_linear_1_249)"/>
</g>
<g filter="url(#filter1_bi_1_249)">
<path fill-rule="evenodd" clip-rule="evenodd" d="M529 506H210H207V505.96C147.636 504.37 100 455.748 100 396C100 342.765 137.817 298.362 188.052 288.19C189.529 248.071 222.519 216 263 216C277.569 216 291.169 220.154 302.677 227.343C324.016 188.966 364.976 163 412 163C481.036 163 537 218.964 537 288C537 294.189 536.55 300.272 535.682 306.22C587.795 309.658 629 353.017 629 406C629 461.228 584.228 506 529 506Z" fill="url(#paint4_linear_1_249)" fill-opacity="0.6"/>
<path d="M207 506H206.5V506.5H207V506ZM207 505.96H207.5V505.473L207.013 505.46L207 505.96ZM188.052 288.19L188.151 288.68L188.537 288.602L188.551 288.208L188.052 288.19ZM302.677 227.343L302.413 227.767L302.859 228.046L303.114 227.586L302.677 227.343ZM535.682 306.22L535.187 306.147L535.109 306.683L535.649 306.719L535.682 306.22ZM529 505.5H210V506.5H529V505.5ZM210 505.5H207V506.5H210V505.5ZM207.5 506V505.96H206.5V506H207.5ZM99.5 396C99.5 456.02 147.352 504.863 206.987 506.46L207.013 505.46C147.919 503.878 100.5 455.476 100.5 396H99.5ZM187.952 287.7C137.489 297.918 99.5 342.522 99.5 396H100.5C100.5 343.007 138.144 298.806 188.151 288.68L187.952 287.7ZM263 215.5C222.25 215.5 189.04 247.784 187.552 288.172L188.551 288.208C190.019 248.357 222.789 216.5 263 216.5V215.5ZM302.942 226.919C291.356 219.682 277.666 215.5 263 215.5V216.5C277.473 216.5 290.981 220.627 302.413 227.767L302.942 226.919ZM412 162.5C364.787 162.5 323.664 188.571 302.24 227.1L303.114 227.586C324.368 189.362 365.164 163.5 412 163.5V162.5ZM537.5 288C537.5 218.688 481.312 162.5 412 162.5V163.5C480.759 163.5 536.5 219.241 536.5 288H537.5ZM536.176 306.292C537.049 300.321 537.5 294.213 537.5 288H536.5C536.5 294.164 536.052 300.224 535.187 306.147L536.176 306.292ZM629.5 406C629.5 352.752 588.089 309.176 535.715 305.721L535.649 306.719C587.501 310.139 628.5 353.282 628.5 406H629.5ZM529 506.5C584.505 506.5 629.5 461.505 629.5 406H628.5C628.5 460.952 583.952 505.5 529 505.5V506.5Z" fill="white" fill-opacity="0.8"/>
</g>
<defs>
<filter id="filter0_di_1_249" x="108.22" y="124.999" width="203.038" height="191.991" filterUnits="userSpaceOnUse" color-interpolation-filters="sRGB">
<feFlood flood-opacity="0" result="BackgroundImageFix"/>
<feColorMatrix in="SourceAlpha" type="matrix" values="0 0 0 0 0 0 0 0 0 0 0 0 0 0 0 0 0 0 127 0" result="hardAlpha"/>
<feOffset dx="5" dy="5"/>
<feGaussianBlur stdDeviation="7.5"/>
<feComposite in2="hardAlpha" operator="out"/>
<feColorMatrix type="matrix" values="0 0 0 0 0.768627 0 0 0 0 0.768627 0 0 0 0 0.768627 0 0 0 0.5 0"/>
<feBlend mode="normal" in2="BackgroundImageFix" result="effect1_dropShadow_1_249"/>
<feBlend mode="normal" in="SourceGraphic" in2="effect1_dropShadow_1_249" result="shape"/>
<feColorMatrix in="SourceAlpha" type="matrix" values="0 0 0 0 0 0 0 0 0 0 0 0 0 0 0 0 0 0 127 0" result="hardAlpha"/>
<feOffset dy="4"/>
<feGaussianBlur stdDeviation="2"/>
<feComposite in2="hardAlpha" operator="arithmetic" k2="-1" k3="1"/>
<feColorMatrix type="matrix" values="0 0 0 0 1 0 0 0 0 1 0 0 0 0 1 0 0 0 0.45 0"/>
<feBlend mode="normal" in2="shape" result="effect2_innerShadow_1_249"/>
</filter>
<filter id="filter1_bi_1_249" x="83.5" y="146.5" width="562" height="376" filterUnits="userSpaceOnUse" color-interpolation-filters="sRGB">
<feFlood flood-opacity="0" result="BackgroundImageFix"/>
<feGaussianBlur in="BackgroundImageFix" stdDeviation="8"/>
<feComposite in2="SourceAlpha" operator="in" result="effect1_backgroundBlur_1_249"/>
<feBlend mode="normal" in="SourceGraphic" in2="effect1_backgroundBlur_1_249" result="shape"/>
<feColorMatrix in="SourceAlpha" type="matrix" values="0 0 0 0 0 0 0 0 0 0 0 0 0 0 0 0 0 0 127 0" result="hardAlpha"/>
<feOffset dy="4"/>
<feGaussianBlur stdDeviation="8"/>
<feComposite in2="hardAlpha" operator="arithmetic" k2="-1" k3="1"/>
<feColorMatrix type="matrix" values="0 0 0 0 1 0 0 0 0 1 0 0 0 0 1 0 0 0 1 0"/>
<feBlend mode="normal" in2="shape" result="effect2_innerShadow_1_249"/>
</filter>
<linearGradient id="paint0_linear_1_249" x1="318.759" y1="475.201" x2="294.053" y2="551.358" gradientUnits="userSpaceOnUse">
<stop stop-color="#B0CEFC" stop-opacity="0.48"/>
<stop offset="1" stop-color="#4597EE" stop-opacity="0.85"/>
</linearGradient>
<linearGradient id="paint1_linear_1_249" x1="518.428" y1="505.201" x2="493.722" y2="581.358" gradientUnits="userSpaceOnUse">
<stop stop-color="#B0CEFC" stop-opacity="0.48"/>
<stop offset="1" stop-color="#4597EE" stop-opacity="0.85"/>
</linearGradient>
<linearGradient id="paint2_linear_1_249" x1="598.428" y1="515.201" x2="573.722" y2="591.358" gradientUnits="userSpaceOnUse">
<stop stop-color="#B0CEFC" stop-opacity="0.48"/>
<stop offset="1" stop-color="#4597EE" stop-opacity="0.85"/>
</linearGradient>
<linearGradient id="paint3_linear_1_249" x1="355" y1="110" x2="37.6698" y2="319.19" gradientUnits="userSpaceOnUse">
<stop stop-color="#57B7ED"/>
<stop offset="0.565934" stop-color="#53B3EA" stop-opacity="0.5"/>
</linearGradient>
<linearGradient id="paint4_linear_1_249" x1="309.5" y1="552" x2="476" y2="122" gradientUnits="userSpaceOnUse">
<stop stop-color="#7096D2"/>
<stop offset="1" stop-color="white" stop-opacity="0.9"/>
</linearGradient>
</defs>
</svg>
