<svg width="729" height="729" viewBox="0 0 729 729" fill="none" xmlns="http://www.w3.org/2000/svg">
<g filter="url(#filter0_i_4_917)">
<circle cx="277" cy="303" r="150" fill="url(#paint0_radial_4_917)"/>
</g>
<circle cx="275" cy="302" r="149" fill="url(#paint1_radial_4_917)"/>
<g style="mix-blend-mode:overlay" filter="url(#filter1_dif_4_917)">
<path fill-rule="evenodd" clip-rule="evenodd" d="M295.115 216.697C295.115 223.486 289.611 228.99 282.822 228.99C276.033 228.99 270.53 223.486 270.53 216.697C270.53 209.908 276.033 204.405 282.822 204.405C289.611 204.405 295.115 209.908 295.115 216.697ZM335.432 294.874C342.4 303.26 354.847 304.41 363.234 297.442C371.621 290.474 372.771 278.027 365.803 269.641C358.835 261.254 346.387 260.104 338.001 267.072C329.614 274.04 328.464 286.487 335.432 294.874ZM237.716 330.578C245.887 337.797 258.364 337.025 265.583 328.854C272.802 320.682 272.03 308.206 263.859 300.987C255.688 293.768 243.211 294.539 235.992 302.711C228.773 310.882 229.545 323.358 237.716 330.578ZM185.6 378.735C191.36 378.735 196.03 374.065 196.03 368.305C196.03 362.544 191.36 357.875 185.6 357.875C179.84 357.875 175.17 362.544 175.17 368.305C175.17 374.065 179.84 378.735 185.6 378.735ZM200.712 246.08C190.884 258.504 175.985 263.092 167.434 256.328C158.882 249.564 159.916 234.009 169.743 221.585C179.57 209.16 194.469 204.572 203.021 211.336C211.573 218.1 210.539 233.656 200.712 246.08ZM310.031 390.801C323.312 403.995 345.244 403.453 359.019 389.588C372.794 375.724 373.195 353.788 359.914 340.593C346.633 327.398 324.701 327.941 310.926 341.806C297.151 355.67 296.75 377.606 310.031 390.801Z" fill="url(#paint2_linear_4_917)" fill-opacity="0.1" shape-rendering="crispEdges"/>
</g>
<g filter="url(#filter2_bi_4_917)">
<path fill-rule="evenodd" clip-rule="evenodd" d="M529 506H210H207V505.96C147.636 504.37 100 455.748 100 396C100 342.765 137.817 298.362 188.052 288.19C189.529 248.071 222.519 216 263 216C277.569 216 291.169 220.154 302.677 227.343C324.016 188.966 364.976 163 412 163C481.036 163 537 218.964 537 288C537 294.189 536.55 300.272 535.682 306.22C587.795 309.658 629 353.017 629 406C629 461.228 584.228 506 529 506Z" fill="url(#paint3_linear_4_917)" fill-opacity="0.6"/>
<path d="M207 506H206.5V506.5H207V506ZM207 505.96H207.5V505.473L207.013 505.46L207 505.96ZM188.052 288.19L188.151 288.68L188.537 288.602L188.551 288.208L188.052 288.19ZM302.677 227.343L302.413 227.767L302.859 228.046L303.114 227.586L302.677 227.343ZM535.682 306.22L535.187 306.147L535.109 306.683L535.649 306.719L535.682 306.22ZM529 505.5H210V506.5H529V505.5ZM210 505.5H207V506.5H210V505.5ZM207.5 506V505.96H206.5V506H207.5ZM99.5 396C99.5 456.02 147.352 504.863 206.987 506.46L207.013 505.46C147.919 503.878 100.5 455.476 100.5 396H99.5ZM187.952 287.7C137.489 297.918 99.5 342.522 99.5 396H100.5C100.5 343.007 138.144 298.806 188.151 288.68L187.952 287.7ZM263 215.5C222.25 215.5 189.04 247.784 187.552 288.172L188.551 288.208C190.019 248.357 222.789 216.5 263 216.5V215.5ZM302.942 226.919C291.356 219.682 277.666 215.5 263 215.5V216.5C277.473 216.5 290.981 220.627 302.413 227.767L302.942 226.919ZM412 162.5C364.787 162.5 323.664 188.571 302.24 227.1L303.114 227.586C324.368 189.362 365.164 163.5 412 163.5V162.5ZM537.5 288C537.5 218.688 481.312 162.5 412 162.5V163.5C480.759 163.5 536.5 219.241 536.5 288H537.5ZM536.176 306.292C537.049 300.321 537.5 294.213 537.5 288H536.5C536.5 294.164 536.052 300.224 535.187 306.147L536.176 306.292ZM629.5 406C629.5 352.752 588.089 309.176 535.715 305.721L535.649 306.719C587.501 310.139 628.5 353.282 628.5 406H629.5ZM529 506.5C584.505 506.5 629.5 461.505 629.5 406H628.5C628.5 460.952 583.952 505.5 529 505.5V506.5Z" fill="white" fill-opacity="0.8"/>
</g>
<path fill-rule="evenodd" clip-rule="evenodd" d="M320.605 467.399C319.589 465.99 317.846 466.598 316.712 468.757L261.498 573.827C258.893 578.785 258.859 585.45 261.425 588.21C263.818 590.782 267.549 588.934 269.783 584.07L320.56 473.514C321.54 471.379 321.559 468.723 320.605 467.399ZM495.605 467.399C494.589 465.99 492.846 466.598 491.712 468.757L436.498 573.827C433.893 578.785 433.86 585.451 436.425 588.21C438.818 590.782 442.549 588.934 444.783 584.07L495.56 473.514C496.54 471.379 496.56 468.723 495.605 467.399ZM215.605 527.399C214.589 525.99 212.846 526.598 211.712 528.757L156.498 633.827C153.894 638.785 153.86 645.45 156.425 648.21C158.819 650.782 162.549 648.934 164.783 644.07L215.56 533.514C216.54 531.379 216.56 528.723 215.605 527.399ZM371.712 528.757C372.846 526.598 374.589 525.99 375.605 527.399C376.56 528.723 376.54 531.379 375.56 533.514L324.783 644.07C322.549 648.934 318.818 650.781 316.425 648.21C313.86 645.45 313.893 638.785 316.498 633.827L371.712 528.757Z" fill="url(#paint4_linear_4_917)"/>
<defs>
<filter id="filter0_i_4_917" x="127" y="153" width="300" height="304" filterUnits="userSpaceOnUse" color-interpolation-filters="sRGB">
<feFlood flood-opacity="0" result="BackgroundImageFix"/>
<feBlend mode="normal" in="SourceGraphic" in2="BackgroundImageFix" result="shape"/>
<feColorMatrix in="SourceAlpha" type="matrix" values="0 0 0 0 0 0 0 0 0 0 0 0 0 0 0 0 0 0 127 0" result="hardAlpha"/>
<feOffset dy="4"/>
<feGaussianBlur stdDeviation="8"/>
<feComposite in2="hardAlpha" operator="arithmetic" k2="-1" k3="1"/>
<feColorMatrix type="matrix" values="0 0 0 0 1 0 0 0 0 1 0 0 0 0 1 0 0 0 0.7 0"/>
<feBlend mode="overlay" in2="shape" result="effect1_innerShadow_4_917"/>
</filter>
<filter id="filter1_dif_4_917" x="157.639" y="202.405" width="216.721" height="205.948" filterUnits="userSpaceOnUse" color-interpolation-filters="sRGB">
<feFlood flood-opacity="0" result="BackgroundImageFix"/>
<feColorMatrix in="SourceAlpha" type="matrix" values="0 0 0 0 0 0 0 0 0 0 0 0 0 0 0 0 0 0 127 0" result="hardAlpha"/>
<feOffset dy="4"/>
<feGaussianBlur stdDeviation="2"/>
<feComposite in2="hardAlpha" operator="out"/>
<feColorMatrix type="matrix" values="0 0 0 0 0 0 0 0 0 0 0 0 0 0 0 0 0 0 0.25 0"/>
<feBlend mode="normal" in2="BackgroundImageFix" result="effect1_dropShadow_4_917"/>
<feBlend mode="normal" in="SourceGraphic" in2="effect1_dropShadow_4_917" result="shape"/>
<feColorMatrix in="SourceAlpha" type="matrix" values="0 0 0 0 0 0 0 0 0 0 0 0 0 0 0 0 0 0 127 0" result="hardAlpha"/>
<feMorphology radius="2" operator="erode" in="SourceAlpha" result="effect2_innerShadow_4_917"/>
<feOffset dx="8" dy="3"/>
<feGaussianBlur stdDeviation="1"/>
<feComposite in2="hardAlpha" operator="arithmetic" k2="-1" k3="1"/>
<feColorMatrix type="matrix" values="0 0 0 0 0.341176 0 0 0 0 0.341176 0 0 0 0 0.341176 0 0 0 0.6 0"/>
<feBlend mode="normal" in2="shape" result="effect2_innerShadow_4_917"/>
<feGaussianBlur stdDeviation="1" result="effect3_foregroundBlur_4_917"/>
</filter>
<filter id="filter2_bi_4_917" x="83.5" y="146.5" width="562" height="376" filterUnits="userSpaceOnUse" color-interpolation-filters="sRGB">
<feFlood flood-opacity="0" result="BackgroundImageFix"/>
<feGaussianBlur in="BackgroundImageFix" stdDeviation="8"/>
<feComposite in2="SourceAlpha" operator="in" result="effect1_backgroundBlur_4_917"/>
<feBlend mode="normal" in="SourceGraphic" in2="effect1_backgroundBlur_4_917" result="shape"/>
<feColorMatrix in="SourceAlpha" type="matrix" values="0 0 0 0 0 0 0 0 0 0 0 0 0 0 0 0 0 0 127 0" result="hardAlpha"/>
<feOffset dy="4"/>
<feGaussianBlur stdDeviation="8"/>
<feComposite in2="hardAlpha" operator="arithmetic" k2="-1" k3="1"/>
<feColorMatrix type="matrix" values="0 0 0 0 1 0 0 0 0 1 0 0 0 0 1 0 0 0 1 0"/>
<feBlend mode="normal" in2="shape" result="effect2_innerShadow_4_917"/>
</filter>
<radialGradient id="paint0_radial_4_917" cx="0" cy="0" r="1" gradientUnits="userSpaceOnUse" gradientTransform="translate(188.5 453) rotate(-57.5981) scale(222.075)">
<stop stop-color="#FF951A"/>
<stop offset="1" stop-color="#FFD55E"/>
</radialGradient>
<radialGradient id="paint1_radial_4_917" cx="0" cy="0" r="1" gradientUnits="userSpaceOnUse" gradientTransform="translate(26.17 190.25) rotate(18.3738) scale(330.886)">
<stop offset="0.0943593" stop-color="white" stop-opacity="0.53"/>
<stop offset="0.990994" stop-color="#315B82"/>
</radialGradient>
<linearGradient id="paint2_linear_4_917" x1="310.045" y1="326.59" x2="365.91" y2="401.848" gradientUnits="userSpaceOnUse">
<stop offset="0.380208" stop-color="#E2EAF1"/>
<stop offset="1" stop-color="#749EC4" stop-opacity="0"/>
</linearGradient>
<linearGradient id="paint3_linear_4_917" x1="309.5" y1="552" x2="476" y2="122" gradientUnits="userSpaceOnUse">
<stop stop-color="#7096D2"/>
<stop offset="1" stop-color="white" stop-opacity="0.9"/>
</linearGradient>
<linearGradient id="paint4_linear_4_917" x1="486.485" y1="527.069" x2="410.312" y2="598.117" gradientUnits="userSpaceOnUse">
<stop stop-color="#B0CEFC" stop-opacity="0.48"/>
<stop offset="1" stop-color="#4597EE" stop-opacity="0.85"/>
</linearGradient>
</defs>
</svg>
