<svg width="729" height="729" viewBox="0 0 729 729" fill="none" xmlns="http://www.w3.org/2000/svg">
<path fill-rule="evenodd" clip-rule="evenodd" d="M320.605 467.399C319.589 465.99 317.846 466.598 316.712 468.757L261.498 573.827C258.893 578.785 258.859 585.45 261.425 588.21C263.818 590.781 267.549 588.934 269.783 584.07L320.56 473.514C321.54 471.379 321.559 468.722 320.605 467.399ZM495.605 467.399C494.589 465.99 492.846 466.598 491.712 468.757L436.498 573.827C433.893 578.785 433.86 585.45 436.425 588.21C438.818 590.782 442.549 588.934 444.783 584.07L495.56 473.514C496.54 471.379 496.56 468.723 495.605 467.399ZM215.605 527.399C214.589 525.99 212.846 526.598 211.712 528.757L156.498 633.827C153.894 638.785 153.86 645.45 156.425 648.21C158.819 650.781 162.549 648.934 164.783 644.07L215.56 533.514C216.54 531.379 216.56 528.722 215.605 527.399ZM371.712 528.757C372.846 526.598 374.589 525.99 375.605 527.398C376.56 528.722 376.54 531.379 375.56 533.513L324.783 644.069C322.549 648.933 318.818 650.781 316.425 648.209C313.86 645.45 313.893 638.785 316.498 633.827L371.712 528.757Z" fill="url(#paint0_linear_1_511)"/>
<g filter="url(#filter0_bi_1_511)">
<path fill-rule="evenodd" clip-rule="evenodd" d="M529 506H210H207V505.96C147.636 504.37 100 455.748 100 396C100 342.765 137.817 298.362 188.052 288.19C189.529 248.071 222.519 216 263 216C277.569 216 291.169 220.154 302.677 227.343C324.016 188.966 364.976 163 412 163C481.036 163 537 218.964 537 288C537 294.189 536.55 300.272 535.682 306.22C587.795 309.658 629 353.017 629 406C629 461.228 584.228 506 529 506Z" fill="url(#paint1_linear_1_511)" fill-opacity="0.6"/>
<path d="M207 506H206.5V506.5H207V506ZM207 505.96H207.5V505.473L207.013 505.46L207 505.96ZM188.052 288.19L188.151 288.68L188.537 288.602L188.551 288.208L188.052 288.19ZM302.677 227.343L302.413 227.767L302.859 228.046L303.114 227.586L302.677 227.343ZM535.682 306.22L535.187 306.147L535.109 306.683L535.649 306.719L535.682 306.22ZM529 505.5H210V506.5H529V505.5ZM210 505.5H207V506.5H210V505.5ZM207.5 506V505.96H206.5V506H207.5ZM99.5 396C99.5 456.02 147.352 504.863 206.987 506.46L207.013 505.46C147.919 503.878 100.5 455.476 100.5 396H99.5ZM187.952 287.7C137.489 297.918 99.5 342.522 99.5 396H100.5C100.5 343.007 138.144 298.806 188.151 288.68L187.952 287.7ZM263 215.5C222.25 215.5 189.04 247.784 187.552 288.172L188.551 288.208C190.019 248.357 222.789 216.5 263 216.5V215.5ZM302.942 226.919C291.356 219.682 277.666 215.5 263 215.5V216.5C277.473 216.5 290.981 220.627 302.413 227.767L302.942 226.919ZM412 162.5C364.787 162.5 323.664 188.571 302.24 227.1L303.114 227.586C324.368 189.362 365.164 163.5 412 163.5V162.5ZM537.5 288C537.5 218.688 481.312 162.5 412 162.5V163.5C480.759 163.5 536.5 219.241 536.5 288H537.5ZM536.176 306.292C537.049 300.321 537.5 294.213 537.5 288H536.5C536.5 294.164 536.052 300.224 535.187 306.147L536.176 306.292ZM629.5 406C629.5 352.752 588.089 309.176 535.715 305.721L535.649 306.719C587.501 310.139 628.5 353.282 628.5 406H629.5ZM529 506.5C584.505 506.5 629.5 461.505 629.5 406H628.5C628.5 460.952 583.952 505.5 529 505.5V506.5Z" fill="white" fill-opacity="0.8"/>
</g>
<g filter="url(#filter1_bi_1_511)">
<mask id="path-4-inside-1_1_511" fill="white">
<path fill-rule="evenodd" clip-rule="evenodd" d="M345.121 488.44L406.113 365L280.314 505.391L320.144 532.335L258 655.242L385.086 516.016L345.121 488.44Z"/>
</mask>
<path fill-rule="evenodd" clip-rule="evenodd" d="M345.121 488.44L406.113 365L280.314 505.391L320.144 532.335L258 655.242L385.086 516.016L345.121 488.44Z" fill="url(#paint2_linear_1_511)"/>
<path d="M406.113 365L407.01 365.443L405.368 364.333L406.113 365ZM345.121 488.44L344.224 487.997L343.841 488.772L344.553 489.263L345.121 488.44ZM280.314 505.391L279.57 504.723L278.805 505.577L279.754 506.219L280.314 505.391ZM320.144 532.335L321.036 532.787L321.434 532.001L320.704 531.507L320.144 532.335ZM258 655.242L257.108 654.791L258.739 655.917L258 655.242ZM385.086 516.016L385.825 516.69L386.597 515.844L385.654 515.193L385.086 516.016ZM405.217 364.557L344.224 487.997L346.017 488.883L407.01 365.443L405.217 364.557ZM281.059 506.058L406.858 365.667L405.368 364.333L279.57 504.723L281.059 506.058ZM320.704 531.507L280.875 504.562L279.754 506.219L319.584 533.164L320.704 531.507ZM258.892 655.694L321.036 532.787L319.252 531.884L257.108 654.791L258.892 655.694ZM384.348 515.342L257.261 654.568L258.739 655.917L385.825 516.69L384.348 515.342ZM344.553 489.263L384.518 516.839L385.654 515.193L345.689 487.617L344.553 489.263Z" fill="white" mask="url(#path-4-inside-1_1_511)"/>
</g>
<defs>
<filter id="filter0_bi_1_511" x="83.5" y="146.5" width="562" height="376" filterUnits="userSpaceOnUse" color-interpolation-filters="sRGB">
<feFlood flood-opacity="0" result="BackgroundImageFix"/>
<feGaussianBlur in="BackgroundImageFix" stdDeviation="8"/>
<feComposite in2="SourceAlpha" operator="in" result="effect1_backgroundBlur_1_511"/>
<feBlend mode="normal" in="SourceGraphic" in2="effect1_backgroundBlur_1_511" result="shape"/>
<feColorMatrix in="SourceAlpha" type="matrix" values="0 0 0 0 0 0 0 0 0 0 0 0 0 0 0 0 0 0 127 0" result="hardAlpha"/>
<feOffset dy="4"/>
<feGaussianBlur stdDeviation="8"/>
<feComposite in2="hardAlpha" operator="arithmetic" k2="-1" k3="1"/>
<feColorMatrix type="matrix" values="0 0 0 0 1 0 0 0 0 1 0 0 0 0 1 0 0 0 1 0"/>
<feBlend mode="normal" in2="shape" result="effect2_innerShadow_1_511"/>
</filter>
<filter id="filter1_bi_1_511" x="242" y="349" width="180.113" height="322.242" filterUnits="userSpaceOnUse" color-interpolation-filters="sRGB">
<feFlood flood-opacity="0" result="BackgroundImageFix"/>
<feGaussianBlur in="BackgroundImageFix" stdDeviation="8"/>
<feComposite in2="SourceAlpha" operator="in" result="effect1_backgroundBlur_1_511"/>
<feBlend mode="normal" in="SourceGraphic" in2="effect1_backgroundBlur_1_511" result="shape"/>
<feColorMatrix in="SourceAlpha" type="matrix" values="0 0 0 0 0 0 0 0 0 0 0 0 0 0 0 0 0 0 127 0" result="hardAlpha"/>
<feOffset dy="4"/>
<feGaussianBlur stdDeviation="2"/>
<feComposite in2="hardAlpha" operator="arithmetic" k2="-1" k3="1"/>
<feColorMatrix type="matrix" values="0 0 0 0 1 0 0 0 0 1 0 0 0 0 1 0 0 0 0.9 0"/>
<feBlend mode="normal" in2="shape" result="effect2_innerShadow_1_511"/>
</filter>
<linearGradient id="paint0_linear_1_511" x1="486.485" y1="527.069" x2="410.312" y2="598.117" gradientUnits="userSpaceOnUse">
<stop stop-color="#B0CEFC" stop-opacity="0.48"/>
<stop offset="1" stop-color="#4597EE" stop-opacity="0.85"/>
</linearGradient>
<linearGradient id="paint1_linear_1_511" x1="309.5" y1="552" x2="476" y2="122" gradientUnits="userSpaceOnUse">
<stop stop-color="#7096D2"/>
<stop offset="1" stop-color="white" stop-opacity="0.9"/>
</linearGradient>
<linearGradient id="paint2_linear_1_511" x1="282" y1="471.5" x2="208" y2="696" gradientUnits="userSpaceOnUse">
<stop stop-color="#E9C549"/>
<stop offset="0.729167" stop-color="#F9F9F9"/>
</linearGradient>
</defs>
</svg>
