<svg width="729" height="729" viewBox="0 0 729 729" fill="none" xmlns="http://www.w3.org/2000/svg">
<g filter="url(#filter0_i_4_864)">
<circle cx="277" cy="303" r="150" fill="url(#paint0_radial_4_864)"/>
</g>
<circle cx="275" cy="302" r="149" fill="url(#paint1_radial_4_864)"/>
<g style="mix-blend-mode:overlay" filter="url(#filter1_dif_4_864)">
<path fill-rule="evenodd" clip-rule="evenodd" d="M295.115 216.697C295.115 223.486 289.611 228.99 282.822 228.99C276.033 228.99 270.53 223.486 270.53 216.697C270.53 209.908 276.033 204.405 282.822 204.405C289.611 204.405 295.115 209.908 295.115 216.697ZM335.432 294.874C342.4 303.26 354.847 304.41 363.234 297.442C371.621 290.474 372.771 278.027 365.803 269.641C358.835 261.254 346.387 260.104 338.001 267.072C329.614 274.04 328.464 286.487 335.432 294.874ZM237.716 330.578C245.887 337.797 258.364 337.025 265.583 328.854C272.802 320.682 272.03 308.206 263.859 300.987C255.688 293.768 243.211 294.539 235.992 302.711C228.773 310.882 229.545 323.358 237.716 330.578ZM185.6 378.735C191.36 378.735 196.03 374.065 196.03 368.305C196.03 362.544 191.36 357.875 185.6 357.875C179.84 357.875 175.17 362.544 175.17 368.305C175.17 374.065 179.84 378.735 185.6 378.735ZM200.712 246.08C190.884 258.504 175.985 263.092 167.434 256.328C158.882 249.564 159.916 234.009 169.743 221.585C179.57 209.16 194.469 204.572 203.021 211.336C211.573 218.1 210.539 233.656 200.712 246.08ZM310.031 390.801C323.312 403.995 345.244 403.453 359.019 389.588C372.794 375.724 373.195 353.788 359.914 340.593C346.633 327.398 324.701 327.941 310.926 341.806C297.151 355.67 296.75 377.606 310.031 390.801Z" fill="url(#paint2_linear_4_864)" fill-opacity="0.1" shape-rendering="crispEdges"/>
</g>
<g filter="url(#filter2_bi_4_864)">
<path fill-rule="evenodd" clip-rule="evenodd" d="M529 506H210H207V505.96C147.636 504.37 100 455.748 100 396C100 342.765 137.817 298.362 188.052 288.19C189.529 248.071 222.519 216 263 216C277.569 216 291.169 220.154 302.677 227.343C324.016 188.966 364.976 163 412 163C481.036 163 537 218.964 537 288C537 294.189 536.55 300.272 535.682 306.22C587.795 309.658 629 353.017 629 406C629 461.228 584.228 506 529 506Z" fill="url(#paint3_linear_4_864)" fill-opacity="0.6"/>
<path d="M207 506H206.5V506.5H207V506ZM207 505.96H207.5V505.473L207.013 505.46L207 505.96ZM188.052 288.19L188.151 288.68L188.537 288.602L188.551 288.208L188.052 288.19ZM302.677 227.343L302.413 227.767L302.859 228.046L303.114 227.586L302.677 227.343ZM535.682 306.22L535.187 306.147L535.109 306.683L535.649 306.719L535.682 306.22ZM529 505.5H210V506.5H529V505.5ZM210 505.5H207V506.5H210V505.5ZM207.5 506V505.96H206.5V506H207.5ZM99.5 396C99.5 456.02 147.352 504.863 206.987 506.46L207.013 505.46C147.919 503.878 100.5 455.476 100.5 396H99.5ZM187.952 287.7C137.489 297.918 99.5 342.522 99.5 396H100.5C100.5 343.007 138.144 298.806 188.151 288.68L187.952 287.7ZM263 215.5C222.25 215.5 189.04 247.784 187.552 288.172L188.551 288.208C190.019 248.357 222.789 216.5 263 216.5V215.5ZM302.942 226.919C291.356 219.682 277.666 215.5 263 215.5V216.5C277.473 216.5 290.981 220.627 302.413 227.767L302.942 226.919ZM412 162.5C364.787 162.5 323.664 188.571 302.24 227.1L303.114 227.586C324.368 189.362 365.164 163.5 412 163.5V162.5ZM537.5 288C537.5 218.688 481.312 162.5 412 162.5V163.5C480.759 163.5 536.5 219.241 536.5 288H537.5ZM536.176 306.292C537.049 300.321 537.5 294.213 537.5 288H536.5C536.5 294.164 536.052 300.224 535.187 306.147L536.176 306.292ZM629.5 406C629.5 352.752 588.089 309.176 535.715 305.721L535.649 306.719C587.501 310.139 628.5 353.282 628.5 406H629.5ZM529 506.5C584.505 506.5 629.5 461.505 629.5 406H628.5C628.5 460.952 583.952 505.5 529 505.5V506.5Z" fill="white" fill-opacity="0.8"/>
</g>
<g filter="url(#filter3_ii_4_864)">
<path d="M477.509 526.816C475.347 528.533 474.986 531.678 476.703 533.841L504.687 569.081C506.404 571.244 509.549 571.605 511.712 569.888C513.874 568.171 514.235 565.025 512.518 562.863L487.644 531.538L518.969 506.663C521.131 504.946 521.492 501.801 519.775 499.638C518.058 497.476 514.913 497.115 512.75 498.832L477.509 526.816ZM514.357 539.637C517.1 539.952 519.579 537.983 519.894 535.24C520.209 532.496 518.24 530.017 515.497 529.702L514.357 539.637ZM466.806 524.288C464.062 523.973 461.583 525.942 461.268 528.685C460.953 531.429 462.922 533.908 465.665 534.223L466.806 524.288ZM499.973 538.161C502.717 538.476 505.196 536.507 505.511 533.764C505.826 531.02 503.857 528.541 501.114 528.226L499.973 538.161ZM422.651 526.601C424.814 524.883 425.175 521.738 423.457 519.576L395.474 484.335C393.757 482.172 390.611 481.811 388.449 483.528C386.286 485.246 385.925 488.391 387.643 490.553L412.517 521.879L381.192 546.753C379.029 548.47 378.668 551.615 380.385 553.778C382.103 555.94 385.248 556.301 387.41 554.584L422.651 526.601ZM385.804 513.779C383.061 513.465 380.581 515.433 380.266 518.177C379.952 520.92 381.92 523.399 384.664 523.714L385.804 513.779ZM430.862 529.003C433.605 529.317 436.084 527.349 436.399 524.605C436.714 521.862 434.745 519.383 432.002 519.068L430.862 529.003ZM397.694 515.13C394.951 514.815 392.471 516.783 392.156 519.527C391.842 522.27 393.81 524.75 396.554 525.064L397.694 515.13ZM436.495 504.564C439.047 505.62 441.971 504.407 443.027 501.855L460.227 460.272C461.282 457.72 460.069 454.796 457.517 453.74C454.966 452.685 452.041 453.898 450.986 456.449L435.697 493.412L398.734 478.123C396.183 477.068 393.258 478.281 392.203 480.833C391.147 483.384 392.36 486.309 394.912 487.364L436.495 504.564ZM429.794 466.13C428.735 463.579 425.81 462.369 423.259 463.427C420.709 464.485 419.499 467.411 420.557 469.961L429.794 466.13ZM438.386 512.907C439.444 515.457 442.369 516.667 444.92 515.609C447.471 514.551 448.681 511.626 447.623 509.075L438.386 512.907ZM434.392 477.177C433.334 474.627 430.408 473.417 427.857 474.475C425.307 475.533 424.097 478.458 425.155 481.009L434.392 477.177ZM462.747 550.07C460.196 549.015 457.271 550.227 456.216 552.779L439.016 594.362C437.96 596.914 439.173 599.838 441.725 600.894C444.277 601.949 447.201 600.736 448.257 598.185L463.545 561.222L500.508 576.511C503.06 577.566 505.984 576.353 507.04 573.801C508.095 571.25 506.882 568.325 504.33 567.27L462.747 550.07ZM469.449 588.504C470.507 591.055 473.433 592.265 475.983 591.207C478.534 590.149 479.744 587.223 478.686 584.673L469.449 588.504ZM460.572 540.979C459.514 538.428 456.589 537.218 454.038 538.276C451.488 539.334 450.277 542.26 451.335 544.81L460.572 540.979ZM464.567 576.708C465.625 579.259 468.55 580.469 471.101 579.411C473.652 578.353 474.862 575.427 473.804 572.877L464.567 576.708ZM460.931 505.295C461.315 508.03 463.843 509.935 466.577 509.551L511.141 503.296C513.875 502.912 515.781 500.384 515.397 497.65C515.013 494.915 512.485 493.009 509.751 493.393L470.139 498.953L464.579 459.342C464.195 456.607 461.667 454.701 458.932 455.085C456.198 455.469 454.292 457.997 454.676 460.732L460.931 505.295ZM490.952 479.65C492.614 477.445 492.174 474.31 489.969 472.647C487.764 470.985 484.629 471.425 482.967 473.63L490.952 479.65ZM455.461 510.118C453.799 512.324 454.239 515.459 456.444 517.121C458.649 518.783 461.784 518.343 463.446 516.138L455.461 510.118ZM484.523 488.178C486.185 485.973 485.745 482.838 483.54 481.176C481.335 479.513 478.2 479.953 476.538 482.159L484.523 488.178ZM435.654 550.573C435.27 547.839 432.742 545.933 430.008 546.317L385.445 552.572C382.71 552.956 380.804 555.484 381.188 558.219C381.572 560.953 384.1 562.859 386.835 562.475L426.446 556.915L432.007 596.527C432.39 599.261 434.918 601.167 437.653 600.783C440.388 600.399 442.293 597.871 441.91 595.136L435.654 550.573ZM405.633 576.219C403.971 578.424 404.411 581.559 406.616 583.221C408.821 584.883 411.956 584.443 413.619 582.238L405.633 576.219ZM442.283 544.213C443.945 542.007 443.505 538.872 441.3 537.21C439.095 535.548 435.96 535.988 434.298 538.193L442.283 544.213ZM413.221 566.153C411.559 568.358 411.999 571.493 414.204 573.155C416.409 574.818 419.544 574.378 421.206 572.172L413.221 566.153ZM480.049 535.699L514.357 539.637L515.497 529.702L481.189 525.764L480.049 535.699ZM465.665 534.223L499.973 538.161L501.114 528.226L466.806 524.288L465.665 534.223ZM420.112 517.718L385.804 513.779L384.664 523.714L418.972 527.652L420.112 517.718ZM432.002 519.068L397.694 515.13L396.554 525.064L430.862 529.003L432.002 519.068ZM443.025 498.028L429.794 466.13L420.557 469.961L433.788 501.859L443.025 498.028ZM447.623 509.075L434.392 477.177L425.155 481.009L438.386 512.907L447.623 509.075ZM456.218 556.606L469.449 588.504L478.686 584.673L465.455 552.775L456.218 556.606ZM451.335 544.81L464.567 576.708L473.804 572.877L460.572 540.979L451.335 544.81ZM469.875 507.61L490.952 479.65L482.967 473.63L461.89 501.59L469.875 507.61ZM463.446 516.138L484.523 488.178L476.538 482.159L455.461 510.118L463.446 516.138ZM426.71 548.259L405.633 576.219L413.619 582.238L434.696 554.278L426.71 548.259ZM434.298 538.193L413.221 566.153L421.206 572.172L442.283 544.213L434.298 538.193ZM455.815 532.489C452.768 536.531 447.197 537.27 443.408 534.414L437.388 542.399C445.726 548.685 457.535 546.82 463.8 538.509L455.815 532.489ZM443.408 534.414C439.619 531.558 438.796 525.998 441.843 521.957L433.857 515.937C427.592 524.249 429.051 536.114 437.388 542.399L443.408 534.414ZM441.843 521.957C444.889 517.915 450.461 517.175 454.25 520.031L460.269 512.046C451.931 505.761 440.123 507.625 433.857 515.937L441.843 521.957ZM454.25 520.031C458.039 522.888 458.862 528.447 455.815 532.489L463.8 538.509C470.066 530.197 468.607 518.331 460.269 512.046L454.25 520.031Z" fill="url(#paint4_linear_4_864)"/>
</g>
<defs>
<filter id="filter0_i_4_864" x="127" y="153" width="300" height="304" filterUnits="userSpaceOnUse" color-interpolation-filters="sRGB">
<feFlood flood-opacity="0" result="BackgroundImageFix"/>
<feBlend mode="normal" in="SourceGraphic" in2="BackgroundImageFix" result="shape"/>
<feColorMatrix in="SourceAlpha" type="matrix" values="0 0 0 0 0 0 0 0 0 0 0 0 0 0 0 0 0 0 127 0" result="hardAlpha"/>
<feOffset dy="4"/>
<feGaussianBlur stdDeviation="8"/>
<feComposite in2="hardAlpha" operator="arithmetic" k2="-1" k3="1"/>
<feColorMatrix type="matrix" values="0 0 0 0 1 0 0 0 0 1 0 0 0 0 1 0 0 0 0.7 0"/>
<feBlend mode="overlay" in2="shape" result="effect1_innerShadow_4_864"/>
</filter>
<filter id="filter1_dif_4_864" x="157.639" y="202.405" width="216.721" height="205.948" filterUnits="userSpaceOnUse" color-interpolation-filters="sRGB">
<feFlood flood-opacity="0" result="BackgroundImageFix"/>
<feColorMatrix in="SourceAlpha" type="matrix" values="0 0 0 0 0 0 0 0 0 0 0 0 0 0 0 0 0 0 127 0" result="hardAlpha"/>
<feOffset dy="4"/>
<feGaussianBlur stdDeviation="2"/>
<feComposite in2="hardAlpha" operator="out"/>
<feColorMatrix type="matrix" values="0 0 0 0 0 0 0 0 0 0 0 0 0 0 0 0 0 0 0.25 0"/>
<feBlend mode="normal" in2="BackgroundImageFix" result="effect1_dropShadow_4_864"/>
<feBlend mode="normal" in="SourceGraphic" in2="effect1_dropShadow_4_864" result="shape"/>
<feColorMatrix in="SourceAlpha" type="matrix" values="0 0 0 0 0 0 0 0 0 0 0 0 0 0 0 0 0 0 127 0" result="hardAlpha"/>
<feMorphology radius="2" operator="erode" in="SourceAlpha" result="effect2_innerShadow_4_864"/>
<feOffset dx="8" dy="3"/>
<feGaussianBlur stdDeviation="1"/>
<feComposite in2="hardAlpha" operator="arithmetic" k2="-1" k3="1"/>
<feColorMatrix type="matrix" values="0 0 0 0 0.341176 0 0 0 0 0.341176 0 0 0 0 0.341176 0 0 0 0.6 0"/>
<feBlend mode="normal" in2="shape" result="effect2_innerShadow_4_864"/>
<feGaussianBlur stdDeviation="1" result="effect3_foregroundBlur_4_864"/>
</filter>
<filter id="filter2_bi_4_864" x="83.5" y="146.5" width="562" height="376" filterUnits="userSpaceOnUse" color-interpolation-filters="sRGB">
<feFlood flood-opacity="0" result="BackgroundImageFix"/>
<feGaussianBlur in="BackgroundImageFix" stdDeviation="8"/>
<feComposite in2="SourceAlpha" operator="in" result="effect1_backgroundBlur_4_864"/>
<feBlend mode="normal" in="SourceGraphic" in2="effect1_backgroundBlur_4_864" result="shape"/>
<feColorMatrix in="SourceAlpha" type="matrix" values="0 0 0 0 0 0 0 0 0 0 0 0 0 0 0 0 0 0 127 0" result="hardAlpha"/>
<feOffset dy="4"/>
<feGaussianBlur stdDeviation="8"/>
<feComposite in2="hardAlpha" operator="arithmetic" k2="-1" k3="1"/>
<feColorMatrix type="matrix" values="0 0 0 0 1 0 0 0 0 1 0 0 0 0 1 0 0 0 1 0"/>
<feBlend mode="normal" in2="shape" result="effect2_innerShadow_4_864"/>
</filter>
<filter id="filter3_ii_4_864" x="379.301" y="450.359" width="145.559" height="150.916" filterUnits="userSpaceOnUse" color-interpolation-filters="sRGB">
<feFlood flood-opacity="0" result="BackgroundImageFix"/>
<feBlend mode="normal" in="SourceGraphic" in2="BackgroundImageFix" result="shape"/>
<feColorMatrix in="SourceAlpha" type="matrix" values="0 0 0 0 0 0 0 0 0 0 0 0 0 0 0 0 0 0 127 0" result="hardAlpha"/>
<feOffset dx="4" dy="-3"/>
<feGaussianBlur stdDeviation="2"/>
<feComposite in2="hardAlpha" operator="arithmetic" k2="-1" k3="1"/>
<feColorMatrix type="matrix" values="0 0 0 0 1 0 0 0 0 1 0 0 0 0 1 0 0 0 0.8 0"/>
<feBlend mode="normal" in2="shape" result="effect1_innerShadow_4_864"/>
<feColorMatrix in="SourceAlpha" type="matrix" values="0 0 0 0 0 0 0 0 0 0 0 0 0 0 0 0 0 0 127 0" result="hardAlpha"/>
<feOffset dy="-2"/>
<feGaussianBlur stdDeviation="2"/>
<feComposite in2="hardAlpha" operator="arithmetic" k2="-1" k3="1"/>
<feColorMatrix type="matrix" values="0 0 0 0 1 0 0 0 0 1 0 0 0 0 1 0 0 0 0.9 0"/>
<feBlend mode="normal" in2="effect1_innerShadow_4_864" result="effect2_innerShadow_4_864"/>
</filter>
<radialGradient id="paint0_radial_4_864" cx="0" cy="0" r="1" gradientUnits="userSpaceOnUse" gradientTransform="translate(188.5 453) rotate(-57.5981) scale(222.075)">
<stop stop-color="#FF951A"/>
<stop offset="1" stop-color="#FFD55E"/>
</radialGradient>
<radialGradient id="paint1_radial_4_864" cx="0" cy="0" r="1" gradientUnits="userSpaceOnUse" gradientTransform="translate(26.17 190.25) rotate(18.3738) scale(330.886)">
<stop offset="0.0943593" stop-color="white" stop-opacity="0.53"/>
<stop offset="0.990994" stop-color="#315B82"/>
</radialGradient>
<linearGradient id="paint2_linear_4_864" x1="310.045" y1="326.59" x2="365.91" y2="401.848" gradientUnits="userSpaceOnUse">
<stop offset="0.380208" stop-color="#E2EAF1"/>
<stop offset="1" stop-color="#749EC4" stop-opacity="0"/>
</linearGradient>
<linearGradient id="paint3_linear_4_864" x1="309.5" y1="552" x2="476" y2="122" gradientUnits="userSpaceOnUse">
<stop stop-color="#7096D2"/>
<stop offset="1" stop-color="white" stop-opacity="0.9"/>
</linearGradient>
<linearGradient id="paint4_linear_4_864" x1="569.611" y1="443" x2="317.18" y2="609.407" gradientUnits="userSpaceOnUse">
<stop offset="0.15625" stop-color="#69A3D9"/>
<stop offset="0.848958" stop-color="#53B3EA" stop-opacity="0.5"/>
</linearGradient>
</defs>
</svg>
