<svg width="729" height="729" viewBox="0 0 729 729" fill="none" xmlns="http://www.w3.org/2000/svg">
<path fill-rule="evenodd" clip-rule="evenodd" d="M298.895 475.246C297.052 474.648 294.845 475.178 293.965 476.429L251.111 537.336C249.09 540.21 251.146 543.642 255.548 544.741C259.653 545.765 264.206 544.35 265.746 541.571L300.762 478.396C301.439 477.176 300.627 475.808 298.895 475.246ZM508.895 485.246C507.052 484.648 504.845 485.178 503.965 486.429L461.111 547.336C459.09 550.21 461.146 553.642 465.548 554.741C469.653 555.765 474.206 554.35 475.746 551.571L510.762 488.396C511.439 487.176 510.627 485.808 508.895 485.246ZM398.895 535.246C397.052 534.648 394.845 535.178 393.965 536.429L351.111 597.336C349.09 600.21 351.146 603.642 355.548 604.741C359.653 605.765 364.206 604.35 365.746 601.571L400.762 538.396C401.439 537.176 400.627 535.808 398.895 535.246ZM173.965 536.429C174.845 535.178 177.052 534.648 178.895 535.246C180.627 535.808 181.439 537.176 180.762 538.396L145.746 601.571C144.206 604.35 139.653 605.765 135.548 604.741C131.146 603.642 129.09 600.21 131.111 597.336L173.965 536.429Z" fill="url(#paint0_linear_1_130)"/>
<path fill-rule="evenodd" clip-rule="evenodd" d="M308.895 515.246C307.052 514.648 304.845 515.178 303.965 516.429L261.111 577.336C259.09 580.21 261.146 583.642 265.548 584.741C269.653 585.765 274.206 584.35 275.746 581.571L310.762 518.396C311.439 517.176 310.627 515.808 308.895 515.246ZM456.895 515.246C455.052 514.648 452.845 515.178 451.965 516.429L409.111 577.336C407.09 580.21 409.146 583.642 413.548 584.741C417.653 585.765 422.206 584.35 423.746 581.571L458.762 518.396C459.439 517.176 458.627 515.808 456.895 515.246Z" fill="url(#paint1_linear_1_130)"/>
<g filter="url(#filter0_bi_1_130)">
<path fill-rule="evenodd" clip-rule="evenodd" d="M529 506H210H207V505.96C147.636 504.37 100 455.748 100 396C100 342.765 137.817 298.362 188.052 288.19C189.529 248.071 222.519 216 263 216C277.569 216 291.169 220.154 302.677 227.343C324.016 188.966 364.976 163 412 163C481.036 163 537 218.964 537 288C537 294.189 536.55 300.272 535.682 306.22C587.795 309.658 629 353.017 629 406C629 461.228 584.228 506 529 506Z" fill="url(#paint2_linear_1_130)" fill-opacity="0.6"/>
<path d="M207 506H206.5V506.5H207V506ZM207 505.96H207.5V505.473L207.013 505.46L207 505.96ZM188.052 288.19L188.151 288.68L188.537 288.602L188.551 288.208L188.052 288.19ZM302.677 227.343L302.413 227.767L302.859 228.046L303.114 227.586L302.677 227.343ZM535.682 306.22L535.187 306.147L535.109 306.683L535.649 306.719L535.682 306.22ZM529 505.5H210V506.5H529V505.5ZM210 505.5H207V506.5H210V505.5ZM207.5 506V505.96H206.5V506H207.5ZM99.5 396C99.5 456.02 147.352 504.863 206.987 506.46L207.013 505.46C147.919 503.878 100.5 455.476 100.5 396H99.5ZM187.952 287.7C137.489 297.918 99.5 342.522 99.5 396H100.5C100.5 343.007 138.144 298.806 188.151 288.68L187.952 287.7ZM263 215.5C222.25 215.5 189.04 247.784 187.552 288.172L188.551 288.208C190.019 248.357 222.789 216.5 263 216.5V215.5ZM302.942 226.919C291.356 219.682 277.666 215.5 263 215.5V216.5C277.473 216.5 290.981 220.627 302.413 227.767L302.942 226.919ZM412 162.5C364.787 162.5 323.664 188.571 302.24 227.1L303.114 227.586C324.368 189.362 365.164 163.5 412 163.5V162.5ZM537.5 288C537.5 218.688 481.312 162.5 412 162.5V163.5C480.759 163.5 536.5 219.241 536.5 288H537.5ZM536.176 306.292C537.049 300.321 537.5 294.213 537.5 288H536.5C536.5 294.164 536.052 300.224 535.187 306.147L536.176 306.292ZM629.5 406C629.5 352.752 588.089 309.176 535.715 305.721L535.649 306.719C587.501 310.139 628.5 353.282 628.5 406H629.5ZM529 506.5C584.505 506.5 629.5 461.505 629.5 406H628.5C628.5 460.952 583.952 505.5 529 505.5V506.5Z" fill="white" fill-opacity="0.8"/>
</g>
<defs>
<filter id="filter0_bi_1_130" x="83.5" y="146.5" width="562" height="376" filterUnits="userSpaceOnUse" color-interpolation-filters="sRGB">
<feFlood flood-opacity="0" result="BackgroundImageFix"/>
<feGaussianBlur in="BackgroundImageFix" stdDeviation="8"/>
<feComposite in2="SourceAlpha" operator="in" result="effect1_backgroundBlur_1_130"/>
<feBlend mode="normal" in="SourceGraphic" in2="effect1_backgroundBlur_1_130" result="shape"/>
<feColorMatrix in="SourceAlpha" type="matrix" values="0 0 0 0 0 0 0 0 0 0 0 0 0 0 0 0 0 0 127 0" result="hardAlpha"/>
<feOffset dy="4"/>
<feGaussianBlur stdDeviation="8"/>
<feComposite in2="hardAlpha" operator="arithmetic" k2="-1" k3="1"/>
<feColorMatrix type="matrix" values="0 0 0 0 1 0 0 0 0 1 0 0 0 0 1 0 0 0 1 0"/>
<feBlend mode="normal" in2="shape" result="effect2_innerShadow_1_130"/>
</filter>
<linearGradient id="paint0_linear_1_130" x1="298.759" y1="475.201" x2="274.053" y2="551.358" gradientUnits="userSpaceOnUse">
<stop stop-color="#B0CEFC" stop-opacity="0.48"/>
<stop offset="1" stop-color="#4597EE" stop-opacity="0.85"/>
</linearGradient>
<linearGradient id="paint1_linear_1_130" x1="400.089" y1="515.108" x2="389.578" y2="557.87" gradientUnits="userSpaceOnUse">
<stop stop-color="#B0CEFC" stop-opacity="0.48"/>
<stop offset="1" stop-color="#4597EE" stop-opacity="0.85"/>
</linearGradient>
<linearGradient id="paint2_linear_1_130" x1="309.5" y1="552" x2="476" y2="122" gradientUnits="userSpaceOnUse">
<stop stop-color="#7096D2"/>
<stop offset="1" stop-color="white" stop-opacity="0.9"/>
</linearGradient>
</defs>
</svg>
