<svg width="729" height="729" viewBox="0 0 729 729" fill="none" xmlns="http://www.w3.org/2000/svg">
<path fill-rule="evenodd" clip-rule="evenodd" d="M320.605 467.399C319.589 465.99 317.846 466.598 316.712 468.757L261.498 573.828C258.893 578.785 258.859 585.451 261.425 588.21C263.818 590.782 267.549 588.934 269.783 584.07L320.56 473.514C321.54 471.379 321.559 468.723 320.605 467.399ZM495.605 467.399C494.589 465.991 492.846 466.599 491.712 468.757L436.498 573.828C433.893 578.786 433.86 585.451 436.425 588.21C438.818 590.782 442.549 588.934 444.783 584.07L495.56 473.514C496.54 471.379 496.56 468.723 495.605 467.399ZM215.605 527.399C214.589 525.99 212.846 526.598 211.712 528.757L156.498 633.828C153.894 638.785 153.86 645.451 156.425 648.21C158.819 650.782 162.549 648.934 164.783 644.07L215.56 533.514C216.54 531.379 216.56 528.723 215.605 527.399ZM371.712 528.757C372.846 526.598 374.589 525.99 375.605 527.399C376.559 528.723 376.54 531.379 375.56 533.514L324.783 644.07C322.549 648.934 318.818 650.782 316.425 648.21C313.86 645.45 313.893 638.785 316.498 633.827L371.712 528.757ZM317.484 538.823C318.975 535.84 321.322 534.923 322.726 536.774C324.045 538.515 324.073 542.11 322.789 545.052L256.286 697.414C253.36 704.117 248.347 706.82 245.056 703.468C241.527 699.872 241.439 690.85 244.865 684L317.484 538.823ZM532.726 536.774C531.322 534.923 528.975 535.84 527.484 538.823L454.865 684C451.439 690.85 451.527 699.872 455.056 703.468C458.347 706.82 463.36 704.117 466.286 697.414L532.789 545.052C534.073 542.11 534.045 538.515 532.726 536.774Z" fill="url(#paint0_linear_1_265)"/>
<g filter="url(#filter0_bi_1_265)">
<path fill-rule="evenodd" clip-rule="evenodd" d="M543 521H224H221V520.96C161.636 519.37 114 470.748 114 411C114 357.765 151.817 313.362 202.052 303.19C203.529 263.071 236.519 231 277 231C291.569 231 305.169 235.154 316.677 242.343C338.016 203.966 378.976 178 426 178C495.036 178 551 233.964 551 303C551 309.189 550.55 315.272 549.682 321.22C601.795 324.658 643 368.017 643 421C643 476.228 598.228 521 543 521Z" fill="url(#paint1_linear_1_265)" fill-opacity="0.6"/>
<path d="M221 521H220.5V521.5H221V521ZM221 520.96H221.5V520.473L221.013 520.46L221 520.96ZM202.052 303.19L202.151 303.68L202.537 303.602L202.551 303.208L202.052 303.19ZM316.677 242.343L316.413 242.767L316.859 243.046L317.114 242.586L316.677 242.343ZM549.682 321.22L549.187 321.147L549.109 321.683L549.649 321.719L549.682 321.22ZM543 520.5H224V521.5H543V520.5ZM224 520.5H221V521.5H224V520.5ZM221.5 521V520.96H220.5V521H221.5ZM113.5 411C113.5 471.02 161.352 519.863 220.987 521.46L221.013 520.46C161.919 518.878 114.5 470.476 114.5 411H113.5ZM201.952 302.7C151.489 312.918 113.5 357.522 113.5 411H114.5C114.5 358.007 152.144 313.806 202.151 303.68L201.952 302.7ZM277 230.5C236.25 230.5 203.04 262.784 201.552 303.172L202.551 303.208C204.019 263.357 236.789 231.5 277 231.5V230.5ZM316.942 241.919C305.356 234.682 291.666 230.5 277 230.5V231.5C291.473 231.5 304.981 235.627 316.413 242.767L316.942 241.919ZM426 177.5C378.787 177.5 337.664 203.571 316.24 242.1L317.114 242.586C338.368 204.362 379.164 178.5 426 178.5V177.5ZM551.5 303C551.5 233.688 495.312 177.5 426 177.5V178.5C494.759 178.5 550.5 234.241 550.5 303H551.5ZM550.176 321.292C551.049 315.321 551.5 309.213 551.5 303H550.5C550.5 309.164 550.052 315.224 549.187 321.147L550.176 321.292ZM643.5 421C643.5 367.752 602.089 324.176 549.715 320.721L549.649 321.719C601.501 325.139 642.5 368.282 642.5 421H643.5ZM543 521.5C598.505 521.5 643.5 476.505 643.5 421H642.5C642.5 475.952 597.952 520.5 543 520.5V521.5Z" fill="white" fill-opacity="0.8"/>
</g>
<defs>
<filter id="filter0_bi_1_265" x="97.5" y="161.5" width="562" height="376" filterUnits="userSpaceOnUse" color-interpolation-filters="sRGB">
<feFlood flood-opacity="0" result="BackgroundImageFix"/>
<feGaussianBlur in="BackgroundImageFix" stdDeviation="8"/>
<feComposite in2="SourceAlpha" operator="in" result="effect1_backgroundBlur_1_265"/>
<feBlend mode="normal" in="SourceGraphic" in2="effect1_backgroundBlur_1_265" result="shape"/>
<feColorMatrix in="SourceAlpha" type="matrix" values="0 0 0 0 0 0 0 0 0 0 0 0 0 0 0 0 0 0 127 0" result="hardAlpha"/>
<feOffset dy="4"/>
<feGaussianBlur stdDeviation="8"/>
<feComposite in2="hardAlpha" operator="arithmetic" k2="-1" k3="1"/>
<feColorMatrix type="matrix" values="0 0 0 0 1 0 0 0 0 1 0 0 0 0 1 0 0 0 1 0"/>
<feBlend mode="normal" in2="shape" result="effect2_innerShadow_1_265"/>
</filter>
<linearGradient id="paint0_linear_1_265" x1="522.835" y1="545.436" x2="425.871" y2="622.39" gradientUnits="userSpaceOnUse">
<stop stop-color="#B0CEFC" stop-opacity="0.48"/>
<stop offset="1" stop-color="#4597EE" stop-opacity="0.85"/>
</linearGradient>
<linearGradient id="paint1_linear_1_265" x1="323.5" y1="567" x2="490" y2="137" gradientUnits="userSpaceOnUse">
<stop stop-color="#7096D2"/>
<stop offset="1" stop-color="white" stop-opacity="0.9"/>
</linearGradient>
</defs>
</svg>
