<svg width="729" height="729" viewBox="0 0 729 729" fill="none" xmlns="http://www.w3.org/2000/svg">
<g filter="url(#filter0_ii_1_346)">
<path d="M477.509 526.816C475.347 528.533 474.986 531.678 476.703 533.841L504.687 569.081C506.404 571.244 509.549 571.605 511.712 569.888C513.874 568.171 514.235 565.025 512.518 562.863L487.644 531.538L518.969 506.663C521.131 504.946 521.492 501.801 519.775 499.638C518.058 497.476 514.913 497.115 512.75 498.832L477.509 526.816ZM514.356 539.637C517.1 539.952 519.579 537.983 519.894 535.24C520.209 532.496 518.24 530.017 515.497 529.702L514.356 539.637ZM466.805 524.288C464.062 523.973 461.583 525.942 461.268 528.685C460.953 531.429 462.922 533.908 465.665 534.223L466.805 524.288ZM499.973 538.161C502.717 538.476 505.196 536.507 505.511 533.764C505.826 531.02 503.857 528.541 501.114 528.226L499.973 538.161ZM422.651 526.601C424.814 524.883 425.175 521.738 423.457 519.576L395.474 484.335C393.757 482.172 390.611 481.811 388.449 483.528C386.286 485.246 385.925 488.391 387.642 490.553L412.517 521.879L381.192 546.753C379.029 548.47 378.668 551.615 380.385 553.778C382.102 555.94 385.248 556.301 387.41 554.584L422.651 526.601ZM385.804 513.779C383.06 513.465 380.581 515.433 380.266 518.177C379.951 520.92 381.92 523.399 384.663 523.714L385.804 513.779ZM430.862 529.003C433.605 529.317 436.084 527.349 436.399 524.605C436.714 521.862 434.745 519.383 432.002 519.068L430.862 529.003ZM397.694 515.13C394.95 514.815 392.471 516.783 392.156 519.527C391.841 522.27 393.81 524.75 396.554 525.064L397.694 515.13ZM436.495 504.564C439.047 505.62 441.971 504.407 443.027 501.855L460.227 460.272C461.282 457.72 460.069 454.796 457.517 453.74C454.966 452.685 452.041 453.898 450.986 456.449L435.697 493.412L398.734 478.123C396.182 477.068 393.258 478.281 392.203 480.833C391.147 483.384 392.36 486.309 394.912 487.364L436.495 504.564ZM429.793 466.13C428.735 463.579 425.81 462.369 423.259 463.427C420.709 464.485 419.498 467.411 420.556 469.961L429.793 466.13ZM438.386 512.907C439.444 515.457 442.369 516.667 444.92 515.609C447.471 514.551 448.681 511.626 447.623 509.075L438.386 512.907ZM434.391 477.177C433.333 474.627 430.408 473.417 427.857 474.475C425.307 475.533 424.097 478.458 425.155 481.009L434.391 477.177ZM462.747 550.07C460.195 549.015 457.271 550.227 456.216 552.779L439.016 594.362C437.96 596.914 439.173 599.838 441.725 600.894C444.277 601.949 447.201 600.736 448.256 598.185L463.545 561.222L500.508 576.511C503.06 577.566 505.984 576.353 507.04 573.801C508.095 571.25 506.882 568.325 504.33 567.27L462.747 550.07ZM469.449 588.504C470.507 591.055 473.432 592.265 475.983 591.207C478.534 590.149 479.744 587.223 478.686 584.673L469.449 588.504ZM460.572 540.979C459.514 538.428 456.589 537.218 454.038 538.276C451.487 539.334 450.277 542.26 451.335 544.81L460.572 540.979ZM464.567 576.708C465.625 579.259 468.55 580.469 471.101 579.411C473.651 578.353 474.862 575.427 473.804 572.877L464.567 576.708ZM460.931 505.295C461.315 508.03 463.843 509.935 466.577 509.551L511.14 503.296C513.875 502.912 515.781 500.384 515.397 497.65C515.013 494.915 512.485 493.009 509.75 493.393L470.139 498.953L464.579 459.342C464.195 456.607 461.667 454.701 458.932 455.085C456.197 455.469 454.292 457.997 454.676 460.732L460.931 505.295ZM490.952 479.65C492.614 477.445 492.174 474.31 489.969 472.647C487.764 470.985 484.629 471.425 482.966 473.63L490.952 479.65ZM455.461 510.118C453.799 512.324 454.239 515.459 456.444 517.121C458.649 518.783 461.784 518.343 463.446 516.138L455.461 510.118ZM484.523 488.178C486.185 485.973 485.745 482.838 483.54 481.176C481.335 479.513 478.2 479.953 476.538 482.159L484.523 488.178ZM435.654 550.573C435.27 547.839 432.742 545.933 430.008 546.317L385.445 552.572C382.71 552.956 380.804 555.484 381.188 558.219C381.572 560.953 384.1 562.859 386.835 562.475L426.446 556.915L432.006 596.527C432.39 599.261 434.918 601.167 437.653 600.783C440.388 600.399 442.293 597.871 441.909 595.136L435.654 550.573ZM405.633 576.219C403.971 578.424 404.411 581.559 406.616 583.221C408.821 584.883 411.956 584.443 413.619 582.238L405.633 576.219ZM442.283 544.213C443.945 542.007 443.505 538.872 441.3 537.21C439.095 535.548 435.96 535.988 434.298 538.193L442.283 544.213ZM413.221 566.153C411.559 568.358 411.999 571.493 414.204 573.155C416.409 574.818 419.544 574.378 421.206 572.172L413.221 566.153ZM480.048 535.699L514.356 539.637L515.497 529.702L481.189 525.764L480.048 535.699ZM465.665 534.223L499.973 538.161L501.114 528.226L466.805 524.288L465.665 534.223ZM420.112 517.718L385.804 513.779L384.663 523.714L418.972 527.652L420.112 517.718ZM432.002 519.068L397.694 515.13L396.554 525.064L430.862 529.003L432.002 519.068ZM443.025 498.028L429.793 466.13L420.556 469.961L433.788 501.859L443.025 498.028ZM447.623 509.075L434.391 477.177L425.155 481.009L438.386 512.907L447.623 509.075ZM456.218 556.606L469.449 588.504L478.686 584.673L465.455 552.775L456.218 556.606ZM451.335 544.81L464.567 576.708L473.804 572.877L460.572 540.979L451.335 544.81ZM469.875 507.61L490.952 479.65L482.966 473.63L461.89 501.59L469.875 507.61ZM463.446 516.138L484.523 488.178L476.538 482.159L455.461 510.118L463.446 516.138ZM426.71 548.259L405.633 576.219L413.619 582.238L434.695 554.278L426.71 548.259ZM434.298 538.193L413.221 566.153L421.206 572.172L442.283 544.213L434.298 538.193ZM455.815 532.489C452.768 536.531 447.197 537.27 443.408 534.414L437.388 542.399C445.726 548.685 457.535 546.82 463.8 538.509L455.815 532.489ZM443.408 534.414C439.619 531.558 438.796 525.998 441.843 521.957L433.857 515.937C427.592 524.249 429.05 536.114 437.388 542.399L443.408 534.414ZM441.843 521.957C444.889 517.915 450.461 517.175 454.25 520.031L460.269 512.046C451.931 505.761 440.123 507.625 433.857 515.937L441.843 521.957ZM454.25 520.031C458.039 522.888 458.862 528.447 455.815 532.489L463.8 538.509C470.066 530.197 468.607 518.331 460.269 512.046L454.25 520.031Z" fill="url(#paint0_linear_1_346)"/>
</g>
<g filter="url(#filter1_bi_1_346)">
<path fill-rule="evenodd" clip-rule="evenodd" d="M529 506H210H207V505.96C147.636 504.37 100 455.748 100 396C100 342.765 137.817 298.362 188.052 288.19C189.529 248.071 222.519 216 263 216C277.569 216 291.169 220.154 302.677 227.343C324.016 188.966 364.976 163 412 163C481.036 163 537 218.964 537 288C537 294.189 536.55 300.272 535.682 306.22C587.795 309.658 629 353.017 629 406C629 461.228 584.228 506 529 506Z" fill="url(#paint1_linear_1_346)" fill-opacity="0.6"/>
<path d="M207 506H206.5V506.5H207V506ZM207 505.96H207.5V505.473L207.013 505.46L207 505.96ZM188.052 288.19L188.151 288.68L188.537 288.602L188.551 288.208L188.052 288.19ZM302.677 227.343L302.413 227.767L302.859 228.046L303.114 227.586L302.677 227.343ZM535.682 306.22L535.187 306.147L535.109 306.683L535.649 306.719L535.682 306.22ZM529 505.5H210V506.5H529V505.5ZM210 505.5H207V506.5H210V505.5ZM207.5 506V505.96H206.5V506H207.5ZM99.5 396C99.5 456.02 147.352 504.863 206.987 506.46L207.013 505.46C147.919 503.878 100.5 455.476 100.5 396H99.5ZM187.952 287.7C137.489 297.918 99.5 342.522 99.5 396H100.5C100.5 343.007 138.144 298.806 188.151 288.68L187.952 287.7ZM263 215.5C222.25 215.5 189.04 247.784 187.552 288.172L188.551 288.208C190.019 248.357 222.789 216.5 263 216.5V215.5ZM302.942 226.919C291.356 219.682 277.666 215.5 263 215.5V216.5C277.473 216.5 290.981 220.627 302.413 227.767L302.942 226.919ZM412 162.5C364.787 162.5 323.664 188.571 302.24 227.1L303.114 227.586C324.368 189.362 365.164 163.5 412 163.5V162.5ZM537.5 288C537.5 218.688 481.312 162.5 412 162.5V163.5C480.759 163.5 536.5 219.241 536.5 288H537.5ZM536.176 306.292C537.049 300.321 537.5 294.213 537.5 288H536.5C536.5 294.164 536.052 300.224 535.187 306.147L536.176 306.292ZM629.5 406C629.5 352.752 588.089 309.176 535.715 305.721L535.649 306.719C587.501 310.139 628.5 353.282 628.5 406H629.5ZM529 506.5C584.505 506.5 629.5 461.505 629.5 406H628.5C628.5 460.952 583.952 505.5 529 505.5V506.5Z" fill="white" fill-opacity="0.8"/>
</g>
<g filter="url(#filter2_ii_1_346)">
<path d="M267.509 486.816C265.347 488.533 264.986 491.678 266.703 493.841L294.687 529.081C296.404 531.244 299.549 531.605 301.712 529.888C303.874 528.171 304.235 525.025 302.518 522.863L277.644 491.538L308.969 466.663C311.131 464.946 311.492 461.801 309.775 459.638C308.058 457.476 304.913 457.115 302.75 458.832L267.509 486.816ZM304.356 499.637C307.1 499.952 309.579 497.983 309.894 495.24C310.209 492.496 308.24 490.017 305.497 489.702L304.356 499.637ZM256.805 484.288C254.062 483.973 251.583 485.942 251.268 488.685C250.953 491.429 252.922 493.908 255.665 494.223L256.805 484.288ZM289.973 498.161C292.717 498.476 295.196 496.507 295.511 493.764C295.826 491.02 293.857 488.541 291.114 488.226L289.973 498.161ZM212.651 486.601C214.814 484.883 215.175 481.738 213.457 479.576L185.474 444.335C183.757 442.172 180.611 441.811 178.449 443.528C176.286 445.246 175.925 448.391 177.642 450.553L202.517 481.879L171.192 506.753C169.029 508.47 168.668 511.615 170.385 513.778C172.102 515.94 175.248 516.301 177.41 514.584L212.651 486.601ZM175.804 473.779C173.06 473.465 170.581 475.433 170.266 478.177C169.951 480.92 171.92 483.399 174.663 483.714L175.804 473.779ZM220.862 489.003C223.605 489.317 226.084 487.349 226.399 484.605C226.714 481.862 224.745 479.383 222.002 479.068L220.862 489.003ZM187.694 475.13C184.95 474.815 182.471 476.783 182.156 479.527C181.841 482.27 183.81 484.75 186.554 485.064L187.694 475.13ZM226.495 464.564C229.047 465.62 231.971 464.407 233.027 461.855L250.227 420.272C251.282 417.72 250.069 414.796 247.517 413.74C244.966 412.685 242.041 413.898 240.986 416.449L225.697 453.412L188.734 438.123C186.182 437.068 183.258 438.281 182.203 440.833C181.147 443.384 182.36 446.309 184.912 447.364L226.495 464.564ZM219.793 426.13C218.735 423.579 215.81 422.369 213.259 423.427C210.709 424.485 209.498 427.411 210.556 429.961L219.793 426.13ZM228.386 472.907C229.444 475.457 232.369 476.667 234.92 475.609C237.471 474.551 238.681 471.626 237.623 469.075L228.386 472.907ZM224.391 437.177C223.333 434.627 220.408 433.417 217.857 434.475C215.307 435.533 214.097 438.458 215.155 441.009L224.391 437.177ZM252.747 510.07C250.195 509.015 247.271 510.227 246.216 512.779L229.016 554.362C227.96 556.914 229.173 559.838 231.725 560.894C234.277 561.949 237.201 560.736 238.256 558.185L253.545 521.222L290.508 536.511C293.06 537.566 295.984 536.353 297.04 533.801C298.095 531.25 296.882 528.325 294.33 527.27L252.747 510.07ZM259.449 548.504C260.507 551.055 263.432 552.265 265.983 551.207C268.534 550.149 269.744 547.223 268.686 544.673L259.449 548.504ZM250.572 500.979C249.514 498.428 246.589 497.218 244.038 498.276C241.487 499.334 240.277 502.26 241.335 504.81L250.572 500.979ZM254.567 536.708C255.625 539.259 258.55 540.469 261.101 539.411C263.651 538.353 264.862 535.427 263.804 532.877L254.567 536.708ZM250.931 465.295C251.315 468.03 253.843 469.935 256.577 469.551L301.14 463.296C303.875 462.912 305.781 460.384 305.397 457.65C305.013 454.915 302.485 453.009 299.75 453.393L260.139 458.953L254.579 419.342C254.195 416.607 251.667 414.701 248.932 415.085C246.197 415.469 244.292 417.997 244.676 420.732L250.931 465.295ZM280.952 439.65C282.614 437.445 282.174 434.31 279.969 432.647C277.764 430.985 274.629 431.425 272.966 433.63L280.952 439.65ZM245.461 470.118C243.799 472.324 244.239 475.459 246.444 477.121C248.649 478.783 251.784 478.343 253.446 476.138L245.461 470.118ZM274.523 448.178C276.185 445.973 275.745 442.838 273.54 441.176C271.335 439.513 268.2 439.953 266.538 442.159L274.523 448.178ZM225.654 510.573C225.27 507.839 222.742 505.933 220.008 506.317L175.445 512.572C172.71 512.956 170.804 515.484 171.188 518.219C171.572 520.953 174.1 522.859 176.835 522.475L216.446 516.915L222.006 556.527C222.39 559.261 224.918 561.167 227.653 560.783C230.388 560.399 232.293 557.871 231.909 555.136L225.654 510.573ZM195.633 536.219C193.971 538.424 194.411 541.559 196.616 543.221C198.821 544.883 201.956 544.443 203.619 542.238L195.633 536.219ZM232.283 504.213C233.945 502.007 233.505 498.872 231.3 497.21C229.095 495.548 225.96 495.988 224.298 498.193L232.283 504.213ZM203.221 526.153C201.559 528.358 201.999 531.493 204.204 533.155C206.409 534.818 209.544 534.378 211.206 532.172L203.221 526.153ZM270.048 495.699L304.356 499.637L305.497 489.702L271.189 485.764L270.048 495.699ZM255.665 494.223L289.973 498.161L291.114 488.226L256.805 484.288L255.665 494.223ZM210.112 477.718L175.804 473.779L174.663 483.714L208.972 487.652L210.112 477.718ZM222.002 479.068L187.694 475.13L186.554 485.064L220.862 489.003L222.002 479.068ZM233.025 458.028L219.793 426.13L210.556 429.961L223.788 461.859L233.025 458.028ZM237.623 469.075L224.391 437.177L215.155 441.009L228.386 472.907L237.623 469.075ZM246.218 516.606L259.449 548.504L268.686 544.673L255.455 512.775L246.218 516.606ZM241.335 504.81L254.567 536.708L263.804 532.877L250.572 500.979L241.335 504.81ZM259.875 467.61L280.952 439.65L272.966 433.63L251.89 461.59L259.875 467.61ZM253.446 476.138L274.523 448.178L266.538 442.159L245.461 470.118L253.446 476.138ZM216.71 508.259L195.633 536.219L203.619 542.238L224.695 514.278L216.71 508.259ZM224.298 498.193L203.221 526.153L211.206 532.172L232.283 504.213L224.298 498.193ZM245.815 492.489C242.768 496.531 237.197 497.27 233.408 494.414L227.388 502.399C235.726 508.685 247.535 506.82 253.8 498.509L245.815 492.489ZM233.408 494.414C229.619 491.558 228.796 485.998 231.843 481.957L223.857 475.937C217.592 484.249 219.05 496.114 227.388 502.399L233.408 494.414ZM231.843 481.957C234.889 477.915 240.461 477.175 244.25 480.031L250.269 472.046C241.931 465.761 230.123 467.625 223.857 475.937L231.843 481.957ZM244.25 480.031C248.039 482.888 248.862 488.447 245.815 492.489L253.8 498.509C260.066 490.197 258.607 478.331 250.269 472.046L244.25 480.031Z" fill="url(#paint2_linear_1_346)"/>
</g>
<defs>
<filter id="filter0_ii_1_346" x="379.301" y="450.359" width="145.559" height="150.916" filterUnits="userSpaceOnUse" color-interpolation-filters="sRGB">
<feFlood flood-opacity="0" result="BackgroundImageFix"/>
<feBlend mode="normal" in="SourceGraphic" in2="BackgroundImageFix" result="shape"/>
<feColorMatrix in="SourceAlpha" type="matrix" values="0 0 0 0 0 0 0 0 0 0 0 0 0 0 0 0 0 0 127 0" result="hardAlpha"/>
<feOffset dx="4" dy="-3"/>
<feGaussianBlur stdDeviation="2"/>
<feComposite in2="hardAlpha" operator="arithmetic" k2="-1" k3="1"/>
<feColorMatrix type="matrix" values="0 0 0 0 1 0 0 0 0 1 0 0 0 0 1 0 0 0 0.8 0"/>
<feBlend mode="normal" in2="shape" result="effect1_innerShadow_1_346"/>
<feColorMatrix in="SourceAlpha" type="matrix" values="0 0 0 0 0 0 0 0 0 0 0 0 0 0 0 0 0 0 127 0" result="hardAlpha"/>
<feOffset dy="-2"/>
<feGaussianBlur stdDeviation="2"/>
<feComposite in2="hardAlpha" operator="arithmetic" k2="-1" k3="1"/>
<feColorMatrix type="matrix" values="0 0 0 0 1 0 0 0 0 1 0 0 0 0 1 0 0 0 0.9 0"/>
<feBlend mode="normal" in2="effect1_innerShadow_1_346" result="effect2_innerShadow_1_346"/>
</filter>
<filter id="filter1_bi_1_346" x="83.5" y="146.5" width="562" height="376" filterUnits="userSpaceOnUse" color-interpolation-filters="sRGB">
<feFlood flood-opacity="0" result="BackgroundImageFix"/>
<feGaussianBlur in="BackgroundImageFix" stdDeviation="8"/>
<feComposite in2="SourceAlpha" operator="in" result="effect1_backgroundBlur_1_346"/>
<feBlend mode="normal" in="SourceGraphic" in2="effect1_backgroundBlur_1_346" result="shape"/>
<feColorMatrix in="SourceAlpha" type="matrix" values="0 0 0 0 0 0 0 0 0 0 0 0 0 0 0 0 0 0 127 0" result="hardAlpha"/>
<feOffset dy="4"/>
<feGaussianBlur stdDeviation="8"/>
<feComposite in2="hardAlpha" operator="arithmetic" k2="-1" k3="1"/>
<feColorMatrix type="matrix" values="0 0 0 0 1 0 0 0 0 1 0 0 0 0 1 0 0 0 1 0"/>
<feBlend mode="normal" in2="shape" result="effect2_innerShadow_1_346"/>
</filter>
<filter id="filter2_ii_1_346" x="169.301" y="410.359" width="145.559" height="150.916" filterUnits="userSpaceOnUse" color-interpolation-filters="sRGB">
<feFlood flood-opacity="0" result="BackgroundImageFix"/>
<feBlend mode="normal" in="SourceGraphic" in2="BackgroundImageFix" result="shape"/>
<feColorMatrix in="SourceAlpha" type="matrix" values="0 0 0 0 0 0 0 0 0 0 0 0 0 0 0 0 0 0 127 0" result="hardAlpha"/>
<feOffset dx="4" dy="-3"/>
<feGaussianBlur stdDeviation="2"/>
<feComposite in2="hardAlpha" operator="arithmetic" k2="-1" k3="1"/>
<feColorMatrix type="matrix" values="0 0 0 0 1 0 0 0 0 1 0 0 0 0 1 0 0 0 0.8 0"/>
<feBlend mode="normal" in2="shape" result="effect1_innerShadow_1_346"/>
<feColorMatrix in="SourceAlpha" type="matrix" values="0 0 0 0 0 0 0 0 0 0 0 0 0 0 0 0 0 0 127 0" result="hardAlpha"/>
<feOffset dy="-2"/>
<feGaussianBlur stdDeviation="2"/>
<feComposite in2="hardAlpha" operator="arithmetic" k2="-1" k3="1"/>
<feColorMatrix type="matrix" values="0 0 0 0 1 0 0 0 0 1 0 0 0 0 1 0 0 0 0.9 0"/>
<feBlend mode="normal" in2="effect1_innerShadow_1_346" result="effect2_innerShadow_1_346"/>
</filter>
<linearGradient id="paint0_linear_1_346" x1="569.611" y1="443" x2="317.18" y2="609.407" gradientUnits="userSpaceOnUse">
<stop offset="0.15625" stop-color="#69A3D9"/>
<stop offset="0.848958" stop-color="#53B3EA" stop-opacity="0.5"/>
</linearGradient>
<linearGradient id="paint1_linear_1_346" x1="309.5" y1="552" x2="476" y2="122" gradientUnits="userSpaceOnUse">
<stop stop-color="#7096D2"/>
<stop offset="1" stop-color="white" stop-opacity="0.9"/>
</linearGradient>
<linearGradient id="paint2_linear_1_346" x1="359.611" y1="403" x2="107.18" y2="569.407" gradientUnits="userSpaceOnUse">
<stop offset="0.15625" stop-color="#69A3D9"/>
<stop offset="0.848958" stop-color="#53B3EA" stop-opacity="0.5"/>
</linearGradient>
</defs>
</svg>
