<svg width="729" height="729" viewBox="0 0 729 729" fill="none" xmlns="http://www.w3.org/2000/svg">
<g filter="url(#filter0_bi_1_515)">
<path fill-rule="evenodd" clip-rule="evenodd" d="M543 521H224H221V520.96C161.636 519.37 114 470.748 114 411C114 357.765 151.817 313.362 202.052 303.19C203.529 263.071 236.519 231 277 231C291.569 231 305.169 235.154 316.677 242.343C338.016 203.966 378.976 178 426 178C495.036 178 551 233.964 551 303C551 309.189 550.55 315.272 549.682 321.22C601.795 324.658 643 368.017 643 421C643 476.228 598.228 521 543 521Z" fill="url(#paint0_linear_1_515)" fill-opacity="0.6"/>
<path d="M221 521H220.5V521.5H221V521ZM221 520.96H221.5V520.473L221.013 520.46L221 520.96ZM202.052 303.19L202.151 303.68L202.537 303.602L202.551 303.208L202.052 303.19ZM316.677 242.343L316.413 242.767L316.859 243.046L317.114 242.586L316.677 242.343ZM549.682 321.22L549.187 321.147L549.109 321.683L549.649 321.719L549.682 321.22ZM543 520.5H224V521.5H543V520.5ZM224 520.5H221V521.5H224V520.5ZM221.5 521V520.96H220.5V521H221.5ZM113.5 411C113.5 471.02 161.352 519.863 220.987 521.46L221.013 520.46C161.919 518.878 114.5 470.476 114.5 411H113.5ZM201.952 302.7C151.489 312.918 113.5 357.522 113.5 411H114.5C114.5 358.007 152.144 313.806 202.151 303.68L201.952 302.7ZM277 230.5C236.25 230.5 203.04 262.784 201.552 303.172L202.551 303.208C204.019 263.357 236.789 231.5 277 231.5V230.5ZM316.942 241.919C305.356 234.682 291.666 230.5 277 230.5V231.5C291.473 231.5 304.981 235.627 316.413 242.767L316.942 241.919ZM426 177.5C378.787 177.5 337.664 203.571 316.24 242.1L317.114 242.586C338.368 204.362 379.164 178.5 426 178.5V177.5ZM551.5 303C551.5 233.688 495.312 177.5 426 177.5V178.5C494.759 178.5 550.5 234.241 550.5 303H551.5ZM550.176 321.292C551.049 315.321 551.5 309.213 551.5 303H550.5C550.5 309.164 550.052 315.224 549.187 321.147L550.176 321.292ZM643.5 421C643.5 367.752 602.089 324.176 549.715 320.721L549.649 321.719C601.501 325.139 642.5 368.282 642.5 421H643.5ZM543 521.5C598.505 521.5 643.5 476.505 643.5 421H642.5C642.5 475.952 597.952 520.5 543 520.5V521.5Z" fill="white" fill-opacity="0.8"/>
</g>
<path fill-rule="evenodd" clip-rule="evenodd" d="M520.773 467.189C519.228 465.454 516.96 466.552 515.707 469.643L454.708 620.072C451.83 627.171 452.627 636.158 456.427 639.466C459.971 642.548 464.757 639.461 467.147 632.549L521.485 475.437C522.534 472.403 522.224 468.821 520.773 467.189ZM378.72 469.643C379.973 466.552 382.24 465.454 383.785 467.189C385.237 468.821 385.547 472.403 384.497 475.437L330.16 632.549C327.769 639.461 322.984 642.548 319.439 639.466C315.639 636.158 314.843 627.171 317.72 620.072L378.72 469.643ZM241.732 469.643C242.985 466.552 245.253 465.454 246.798 467.189C248.249 468.821 248.559 472.403 247.51 475.437L193.172 632.549C190.782 639.461 185.996 642.548 182.452 639.466C178.652 636.158 177.855 627.171 180.733 620.072L241.732 469.643Z" fill="url(#paint1_linear_1_515)"/>
<path fill-rule="evenodd" clip-rule="evenodd" d="M315.509 499.06C313.895 498.604 312.085 499.759 311.464 501.639L281.24 593.163C279.814 597.481 281.884 601.765 285.706 602.405C289.27 603.002 292.973 600.181 294.002 596.085L317.392 502.996C317.843 501.199 317.025 499.489 315.509 499.06ZM445.509 499.06C443.895 498.604 442.085 499.759 441.464 501.639L411.24 593.163C409.814 597.481 411.884 601.765 415.706 602.405C419.27 603.002 422.973 600.181 424.002 596.085L447.392 502.996C447.843 501.199 447.025 499.489 445.509 499.06Z" fill="url(#paint2_linear_1_515)"/>
<g filter="url(#filter1_bi_1_515)">
<mask id="path-5-inside-1_1_515" fill="white">
<path fill-rule="evenodd" clip-rule="evenodd" d="M345.121 488.44L406.113 365L280.314 505.391L320.144 532.335L258 655.242L385.086 516.016L345.121 488.44Z"/>
</mask>
<path fill-rule="evenodd" clip-rule="evenodd" d="M345.121 488.44L406.113 365L280.314 505.391L320.144 532.335L258 655.242L385.086 516.016L345.121 488.44Z" fill="url(#paint3_linear_1_515)"/>
<path d="M406.113 365L407.01 365.443L405.368 364.333L406.113 365ZM345.121 488.44L344.224 487.997L343.841 488.772L344.553 489.263L345.121 488.44ZM280.314 505.391L279.57 504.723L278.805 505.577L279.754 506.219L280.314 505.391ZM320.144 532.335L321.036 532.787L321.434 532.001L320.704 531.507L320.144 532.335ZM258 655.242L257.108 654.791L258.739 655.917L258 655.242ZM385.086 516.016L385.825 516.69L386.597 515.844L385.654 515.193L385.086 516.016ZM405.217 364.557L344.224 487.997L346.017 488.883L407.01 365.443L405.217 364.557ZM281.059 506.058L406.858 365.667L405.368 364.333L279.57 504.723L281.059 506.058ZM320.704 531.507L280.875 504.562L279.754 506.219L319.584 533.164L320.704 531.507ZM258.892 655.694L321.036 532.787L319.252 531.884L257.108 654.791L258.892 655.694ZM384.348 515.342L257.261 654.568L258.739 655.917L385.825 516.69L384.348 515.342ZM344.553 489.263L384.518 516.839L385.654 515.193L345.689 487.617L344.553 489.263Z" fill="white" mask="url(#path-5-inside-1_1_515)"/>
</g>
<defs>
<filter id="filter0_bi_1_515" x="97.5" y="161.5" width="562" height="376" filterUnits="userSpaceOnUse" color-interpolation-filters="sRGB">
<feFlood flood-opacity="0" result="BackgroundImageFix"/>
<feGaussianBlur in="BackgroundImageFix" stdDeviation="8"/>
<feComposite in2="SourceAlpha" operator="in" result="effect1_backgroundBlur_1_515"/>
<feBlend mode="normal" in="SourceGraphic" in2="effect1_backgroundBlur_1_515" result="shape"/>
<feColorMatrix in="SourceAlpha" type="matrix" values="0 0 0 0 0 0 0 0 0 0 0 0 0 0 0 0 0 0 127 0" result="hardAlpha"/>
<feOffset dy="4"/>
<feGaussianBlur stdDeviation="8"/>
<feComposite in2="hardAlpha" operator="arithmetic" k2="-1" k3="1"/>
<feColorMatrix type="matrix" values="0 0 0 0 1 0 0 0 0 1 0 0 0 0 1 0 0 0 1 0"/>
<feBlend mode="normal" in2="shape" result="effect2_innerShadow_1_515"/>
</filter>
<filter id="filter1_bi_1_515" x="242" y="349" width="180.113" height="322.242" filterUnits="userSpaceOnUse" color-interpolation-filters="sRGB">
<feFlood flood-opacity="0" result="BackgroundImageFix"/>
<feGaussianBlur in="BackgroundImageFix" stdDeviation="8"/>
<feComposite in2="SourceAlpha" operator="in" result="effect1_backgroundBlur_1_515"/>
<feBlend mode="normal" in="SourceGraphic" in2="effect1_backgroundBlur_1_515" result="shape"/>
<feColorMatrix in="SourceAlpha" type="matrix" values="0 0 0 0 0 0 0 0 0 0 0 0 0 0 0 0 0 0 127 0" result="hardAlpha"/>
<feOffset dy="4"/>
<feGaussianBlur stdDeviation="2"/>
<feComposite in2="hardAlpha" operator="arithmetic" k2="-1" k3="1"/>
<feColorMatrix type="matrix" values="0 0 0 0 1 0 0 0 0 1 0 0 0 0 1 0 0 0 0.9 0"/>
<feBlend mode="normal" in2="shape" result="effect2_innerShadow_1_515"/>
</filter>
<linearGradient id="paint0_linear_1_515" x1="323.5" y1="567" x2="490" y2="137" gradientUnits="userSpaceOnUse">
<stop stop-color="#7096D2"/>
<stop offset="1" stop-color="white" stop-opacity="0.9"/>
</linearGradient>
<linearGradient id="paint1_linear_1_515" x1="520.658" y1="467.06" x2="398.302" y2="575.945" gradientUnits="userSpaceOnUse">
<stop stop-color="#B0CEFC" stop-opacity="0.48"/>
<stop offset="1" stop-color="#4597EE" stop-opacity="0.85"/>
</linearGradient>
<linearGradient id="paint2_linear_1_515" x1="445.389" y1="499.026" x2="415.908" y2="603.283" gradientUnits="userSpaceOnUse">
<stop stop-color="#B0CEFC" stop-opacity="0.48"/>
<stop offset="1" stop-color="#4597EE" stop-opacity="0.85"/>
</linearGradient>
<linearGradient id="paint3_linear_1_515" x1="282" y1="471.5" x2="208" y2="696" gradientUnits="userSpaceOnUse">
<stop stop-color="#E9C549"/>
<stop offset="0.729167" stop-color="#F9F9F9"/>
</linearGradient>
</defs>
</svg>
