<svg width="729" height="729" viewBox="0 0 729 729" fill="none" xmlns="http://www.w3.org/2000/svg">
<circle cx="275" cy="302" r="149" fill="url(#paint0_radial_4_713)"/>
<g style="mix-blend-mode:overlay" filter="url(#filter0_dif_4_713)">
<path fill-rule="evenodd" clip-rule="evenodd" d="M295.115 216.697C295.115 223.486 289.611 228.99 282.822 228.99C276.033 228.99 270.53 223.486 270.53 216.697C270.53 209.908 276.033 204.405 282.822 204.405C289.611 204.405 295.115 209.908 295.115 216.697ZM335.432 294.874C342.4 303.26 354.847 304.41 363.234 297.442C371.621 290.474 372.771 278.027 365.803 269.641C358.835 261.254 346.387 260.104 338.001 267.072C329.614 274.04 328.464 286.487 335.432 294.874ZM237.716 330.578C245.887 337.797 258.364 337.025 265.583 328.854C272.802 320.682 272.03 308.206 263.859 300.987C255.688 293.768 243.211 294.539 235.992 302.711C228.773 310.882 229.545 323.358 237.716 330.578ZM185.6 378.735C191.36 378.735 196.03 374.065 196.03 368.305C196.03 362.544 191.36 357.875 185.6 357.875C179.84 357.875 175.17 362.544 175.17 368.305C175.17 374.065 179.84 378.735 185.6 378.735ZM200.712 246.08C190.884 258.504 175.985 263.092 167.434 256.328C158.882 249.564 159.916 234.009 169.743 221.585C179.57 209.16 194.469 204.572 203.021 211.336C211.573 218.1 210.539 233.656 200.712 246.08ZM310.031 390.801C323.312 403.995 345.244 403.453 359.019 389.588C372.794 375.724 373.195 353.788 359.914 340.593C346.633 327.398 324.701 327.941 310.926 341.806C297.151 355.67 296.75 377.606 310.031 390.801Z" fill="url(#paint1_linear_4_713)" fill-opacity="0.1" shape-rendering="crispEdges"/>
</g>
<g filter="url(#filter1_bi_4_713)">
<path fill-rule="evenodd" clip-rule="evenodd" d="M529 576H210H207V575.96C147.636 574.37 100 525.748 100 466C100 412.765 137.817 368.362 188.052 358.19C189.529 318.071 222.519 286 263 286C277.569 286 291.169 290.154 302.677 297.343C324.016 258.966 364.976 233 412 233C481.036 233 537 288.964 537 358C537 364.189 536.55 370.272 535.682 376.22C587.795 379.658 629 423.017 629 476C629 531.228 584.228 576 529 576Z" fill="url(#paint2_linear_4_713)" fill-opacity="0.6"/>
</g>
<defs>
<filter id="filter0_dif_4_713" x="157.639" y="202.405" width="216.721" height="205.948" filterUnits="userSpaceOnUse" color-interpolation-filters="sRGB">
<feFlood flood-opacity="0" result="BackgroundImageFix"/>
<feColorMatrix in="SourceAlpha" type="matrix" values="0 0 0 0 0 0 0 0 0 0 0 0 0 0 0 0 0 0 127 0" result="hardAlpha"/>
<feOffset dy="4"/>
<feGaussianBlur stdDeviation="2"/>
<feComposite in2="hardAlpha" operator="out"/>
<feColorMatrix type="matrix" values="0 0 0 0 0 0 0 0 0 0 0 0 0 0 0 0 0 0 0.25 0"/>
<feBlend mode="normal" in2="BackgroundImageFix" result="effect1_dropShadow_4_713"/>
<feBlend mode="normal" in="SourceGraphic" in2="effect1_dropShadow_4_713" result="shape"/>
<feColorMatrix in="SourceAlpha" type="matrix" values="0 0 0 0 0 0 0 0 0 0 0 0 0 0 0 0 0 0 127 0" result="hardAlpha"/>
<feMorphology radius="2" operator="erode" in="SourceAlpha" result="effect2_innerShadow_4_713"/>
<feOffset dx="8" dy="3"/>
<feGaussianBlur stdDeviation="1"/>
<feComposite in2="hardAlpha" operator="arithmetic" k2="-1" k3="1"/>
<feColorMatrix type="matrix" values="0 0 0 0 0.341176 0 0 0 0 0.341176 0 0 0 0 0.341176 0 0 0 0.6 0"/>
<feBlend mode="normal" in2="shape" result="effect2_innerShadow_4_713"/>
<feGaussianBlur stdDeviation="1" result="effect3_foregroundBlur_4_713"/>
</filter>
<filter id="filter1_bi_4_713" x="84" y="217" width="561" height="375" filterUnits="userSpaceOnUse" color-interpolation-filters="sRGB">
<feFlood flood-opacity="0" result="BackgroundImageFix"/>
<feGaussianBlur in="BackgroundImageFix" stdDeviation="8"/>
<feComposite in2="SourceAlpha" operator="in" result="effect1_backgroundBlur_4_713"/>
<feBlend mode="normal" in="SourceGraphic" in2="effect1_backgroundBlur_4_713" result="shape"/>
<feColorMatrix in="SourceAlpha" type="matrix" values="0 0 0 0 0 0 0 0 0 0 0 0 0 0 0 0 0 0 127 0" result="hardAlpha"/>
<feOffset dy="4"/>
<feGaussianBlur stdDeviation="8"/>
<feComposite in2="hardAlpha" operator="arithmetic" k2="-1" k3="1"/>
<feColorMatrix type="matrix" values="0 0 0 0 1 0 0 0 0 1 0 0 0 0 1 0 0 0 1 0"/>
<feBlend mode="normal" in2="shape" result="effect2_innerShadow_4_713"/>
</filter>
<radialGradient id="paint0_radial_4_713" cx="0" cy="0" r="1" gradientUnits="userSpaceOnUse" gradientTransform="translate(26.17 190.25) rotate(18.3738) scale(330.886)">
<stop offset="0.0943593" stop-color="white" stop-opacity="0.53"/>
<stop offset="0.990994" stop-color="#315B82"/>
</radialGradient>
<linearGradient id="paint1_linear_4_713" x1="310.045" y1="326.59" x2="365.91" y2="401.848" gradientUnits="userSpaceOnUse">
<stop offset="0.380208" stop-color="#E2EAF1"/>
<stop offset="1" stop-color="#749EC4" stop-opacity="0"/>
</linearGradient>
<linearGradient id="paint2_linear_4_713" x1="309.5" y1="622" x2="476" y2="192" gradientUnits="userSpaceOnUse">
<stop stop-color="#7096D2"/>
<stop offset="1" stop-color="white" stop-opacity="0.9"/>
</linearGradient>
</defs>
</svg>
