<svg width="729" height="729" viewBox="0 0 729 729" fill="none" xmlns="http://www.w3.org/2000/svg">
<g filter="url(#filter0_i_1_51)">
<circle cx="277" cy="303" r="150" fill="url(#paint0_radial_1_51)"/>
</g>
<g filter="url(#filter1_bi_1_51)">
<path fill-rule="evenodd" clip-rule="evenodd" d="M529 576H210H207V575.96C147.636 574.37 100 525.748 100 466C100 412.765 137.817 368.362 188.052 358.19C189.529 318.071 222.519 286 263 286C277.569 286 291.169 290.154 302.677 297.343C324.016 258.966 364.976 233 412 233C481.036 233 537 288.964 537 358C537 364.189 536.55 370.272 535.682 376.22C587.795 379.658 629 423.017 629 476C629 531.228 584.228 576 529 576Z" fill="url(#paint1_linear_1_51)" fill-opacity="0.6"/>
<path d="M207 576H206.5V576.5H207V576ZM207 575.96H207.5V575.473L207.013 575.46L207 575.96ZM188.052 358.19L188.151 358.68L188.537 358.602L188.551 358.208L188.052 358.19ZM302.677 297.343L302.413 297.767L302.859 298.046L303.114 297.586L302.677 297.343ZM535.682 376.22L535.187 376.147L535.109 376.683L535.649 376.719L535.682 376.22ZM529 575.5H210V576.5H529V575.5ZM210 575.5H207V576.5H210V575.5ZM207.5 576V575.96H206.5V576H207.5ZM99.5 466C99.5 526.02 147.352 574.863 206.987 576.46L207.013 575.46C147.919 573.878 100.5 525.476 100.5 466H99.5ZM187.952 357.7C137.489 367.918 99.5 412.522 99.5 466H100.5C100.5 413.007 138.144 368.806 188.151 358.68L187.952 357.7ZM263 285.5C222.25 285.5 189.04 317.784 187.552 358.172L188.551 358.208C190.019 318.357 222.789 286.5 263 286.5V285.5ZM302.942 296.919C291.356 289.682 277.666 285.5 263 285.5V286.5C277.473 286.5 290.981 290.627 302.413 297.767L302.942 296.919ZM412 232.5C364.787 232.5 323.664 258.571 302.24 297.1L303.114 297.586C324.368 259.362 365.164 233.5 412 233.5V232.5ZM537.5 358C537.5 288.688 481.312 232.5 412 232.5V233.5C480.759 233.5 536.5 289.241 536.5 358H537.5ZM536.176 376.292C537.049 370.321 537.5 364.213 537.5 358H536.5C536.5 364.164 536.052 370.224 535.187 376.147L536.176 376.292ZM629.5 476C629.5 422.752 588.089 379.176 535.715 375.721L535.649 376.719C587.501 380.139 628.5 423.282 628.5 476H629.5ZM529 576.5C584.505 576.5 629.5 531.505 629.5 476H628.5C628.5 530.952 583.952 575.5 529 575.5V576.5Z" fill="white" fill-opacity="0.8"/>
</g>
<defs>
<filter id="filter0_i_1_51" x="127" y="153" width="300" height="304" filterUnits="userSpaceOnUse" color-interpolation-filters="sRGB">
<feFlood flood-opacity="0" result="BackgroundImageFix"/>
<feBlend mode="normal" in="SourceGraphic" in2="BackgroundImageFix" result="shape"/>
<feColorMatrix in="SourceAlpha" type="matrix" values="0 0 0 0 0 0 0 0 0 0 0 0 0 0 0 0 0 0 127 0" result="hardAlpha"/>
<feOffset dy="4"/>
<feGaussianBlur stdDeviation="8"/>
<feComposite in2="hardAlpha" operator="arithmetic" k2="-1" k3="1"/>
<feColorMatrix type="matrix" values="0 0 0 0 1 0 0 0 0 1 0 0 0 0 1 0 0 0 0.7 0"/>
<feBlend mode="overlay" in2="shape" result="effect1_innerShadow_1_51"/>
</filter>
<filter id="filter1_bi_1_51" x="83.5" y="216.5" width="562" height="376" filterUnits="userSpaceOnUse" color-interpolation-filters="sRGB">
<feFlood flood-opacity="0" result="BackgroundImageFix"/>
<feGaussianBlur in="BackgroundImageFix" stdDeviation="8"/>
<feComposite in2="SourceAlpha" operator="in" result="effect1_backgroundBlur_1_51"/>
<feBlend mode="normal" in="SourceGraphic" in2="effect1_backgroundBlur_1_51" result="shape"/>
<feColorMatrix in="SourceAlpha" type="matrix" values="0 0 0 0 0 0 0 0 0 0 0 0 0 0 0 0 0 0 127 0" result="hardAlpha"/>
<feOffset dy="4"/>
<feGaussianBlur stdDeviation="8"/>
<feComposite in2="hardAlpha" operator="arithmetic" k2="-1" k3="1"/>
<feColorMatrix type="matrix" values="0 0 0 0 1 0 0 0 0 1 0 0 0 0 1 0 0 0 1 0"/>
<feBlend mode="normal" in2="shape" result="effect2_innerShadow_1_51"/>
</filter>
<radialGradient id="paint0_radial_1_51" cx="0" cy="0" r="1" gradientUnits="userSpaceOnUse" gradientTransform="translate(188.5 453) rotate(-57.5981) scale(222.075)">
<stop stop-color="#FF951A"/>
<stop offset="1" stop-color="#FFD55E"/>
</radialGradient>
<linearGradient id="paint1_linear_1_51" x1="309.5" y1="622" x2="476" y2="192" gradientUnits="userSpaceOnUse">
<stop stop-color="#7096D2"/>
<stop offset="1" stop-color="white" stop-opacity="0.9"/>
</linearGradient>
</defs>
</svg>
