<svg width="729" height="729" viewBox="0 0 729 729" fill="none" xmlns="http://www.w3.org/2000/svg">
<path fill-rule="evenodd" clip-rule="evenodd" d="M583.889 407.189C582.48 405.454 580.41 406.552 579.267 409.643L523.606 560.072C520.98 567.171 521.707 576.158 525.174 579.466C528.408 582.548 532.775 579.461 534.956 572.549L584.539 415.437C585.496 412.403 585.214 408.821 583.889 407.189ZM323.498 411.083C324.798 408.054 326.92 407.063 328.24 408.868C329.479 410.565 329.579 414.157 328.468 417.138L270.936 571.516C268.405 578.308 263.886 581.169 260.814 577.925C257.519 574.445 257.252 565.432 260.236 558.477L323.498 411.083ZM448.752 411.177C450.06 408.152 452.186 407.167 453.5 408.977C454.734 410.677 454.823 414.27 453.702 417.247L395.694 571.447C393.142 578.231 388.615 581.078 385.553 577.825C382.269 574.335 382.029 565.321 385.035 558.375L448.752 411.177Z" fill="url(#paint0_linear_4_875)"/>
<g filter="url(#filter0_bi_4_875)">
<mask id="path-2-inside-1_4_875" fill="white">
<path fill-rule="evenodd" clip-rule="evenodd" d="M569 446H250H247V445.96C187.636 444.37 140 395.748 140 336C140 282.765 177.817 238.362 228.052 228.19C229.529 188.071 262.519 156 303 156C317.569 156 331.169 160.154 342.677 167.343C364.016 128.966 404.976 103 452 103C521.036 103 577 158.964 577 228C577 234.189 576.55 240.272 575.682 246.22C627.795 249.658 669 293.017 669 346C669 401.228 624.228 446 569 446Z"/>
</mask>
<path fill-rule="evenodd" clip-rule="evenodd" d="M569 446H250H247V445.96C187.636 444.37 140 395.748 140 336C140 282.765 177.817 238.362 228.052 228.19C229.529 188.071 262.519 156 303 156C317.569 156 331.169 160.154 342.677 167.343C364.016 128.966 404.976 103 452 103C521.036 103 577 158.964 577 228C577 234.189 576.55 240.272 575.682 246.22C627.795 249.658 669 293.017 669 346C669 401.228 624.228 446 569 446Z" fill="url(#paint1_linear_4_875)" fill-opacity="0.6"/>
<path d="M247 446H245V448H247V446ZM247 445.96H249V444.013L247.054 443.961L247 445.96ZM228.052 228.19L228.449 230.15L229.992 229.838L230.05 228.264L228.052 228.19ZM342.677 167.343L341.618 169.039L343.403 170.154L344.425 168.315L342.677 167.343ZM575.682 246.22L573.703 245.931L573.39 248.073L575.55 248.215L575.682 246.22ZM569 444H250V448H569V444ZM250 444H247V448H250V444ZM249 446V445.96H245V446H249ZM138 336C138 396.835 186.502 446.341 246.946 447.959L247.054 443.961C188.77 442.4 142 394.661 142 336H138ZM227.655 226.23C176.506 236.587 138 281.794 138 336H142C142 283.735 179.128 240.137 228.449 230.15L227.655 226.23ZM303 154C261.44 154 227.57 186.926 226.053 228.116L230.05 228.264C231.489 189.215 263.599 158 303 158V154ZM343.737 165.647C331.92 158.265 317.955 154 303 154V158C317.184 158 330.418 162.043 341.618 169.039L343.737 165.647ZM452 101C404.221 101 362.607 127.386 340.929 166.371L344.425 168.315C365.425 130.547 405.731 105 452 105V101ZM579 228C579 157.86 522.14 101 452 101V105C519.931 105 575 160.069 575 228H579ZM577.661 246.509C578.543 240.466 579 234.286 579 228H575C575 234.092 574.557 240.079 573.703 245.931L577.661 246.509ZM671 346C671 291.956 628.971 247.731 575.813 244.224L575.55 248.215C626.619 251.584 667 294.077 667 346H671ZM569 448C625.333 448 671 402.333 671 346H667C667 400.124 623.124 444 569 444V448Z" fill="white" fill-opacity="0.3" style="mix-blend-mode:overlay" mask="url(#path-2-inside-1_4_875)"/>
</g>
<g filter="url(#filter1_i_4_875)">
<circle cx="277" cy="303" r="150" fill="url(#paint2_radial_4_875)"/>
</g>
<circle cx="275" cy="302" r="149" fill="url(#paint3_radial_4_875)"/>
<g style="mix-blend-mode:overlay" filter="url(#filter2_dif_4_875)">
<path fill-rule="evenodd" clip-rule="evenodd" d="M295.115 216.697C295.115 223.486 289.611 228.99 282.822 228.99C276.033 228.99 270.53 223.486 270.53 216.697C270.53 209.908 276.033 204.405 282.822 204.405C289.611 204.405 295.115 209.908 295.115 216.697ZM335.432 294.874C342.4 303.26 354.847 304.41 363.234 297.442C371.621 290.474 372.771 278.027 365.803 269.641C358.835 261.254 346.387 260.104 338.001 267.072C329.614 274.04 328.464 286.487 335.432 294.874ZM237.716 330.578C245.887 337.797 258.364 337.025 265.583 328.854C272.802 320.682 272.03 308.206 263.859 300.987C255.688 293.768 243.211 294.539 235.992 302.711C228.773 310.882 229.545 323.358 237.716 330.578ZM185.6 378.735C191.36 378.735 196.03 374.065 196.03 368.305C196.03 362.544 191.36 357.875 185.6 357.875C179.84 357.875 175.17 362.544 175.17 368.305C175.17 374.065 179.84 378.735 185.6 378.735ZM200.712 246.08C190.884 258.504 175.985 263.092 167.434 256.328C158.882 249.564 159.916 234.009 169.743 221.585C179.57 209.16 194.469 204.572 203.021 211.336C211.573 218.1 210.539 233.656 200.712 246.08ZM310.031 390.801C323.312 403.995 345.244 403.453 359.019 389.588C372.794 375.724 373.195 353.788 359.914 340.593C346.633 327.398 324.701 327.941 310.926 341.806C297.151 355.67 296.75 377.606 310.031 390.801Z" fill="url(#paint4_linear_4_875)" fill-opacity="0.1" shape-rendering="crispEdges"/>
</g>
<g filter="url(#filter3_bi_4_875)">
<path fill-rule="evenodd" clip-rule="evenodd" d="M529 496H210H207V495.96C147.636 494.37 100 445.748 100 386C100 332.765 137.817 288.362 188.052 278.19C189.529 238.071 222.519 206 263 206C277.569 206 291.169 210.154 302.677 217.343C324.016 178.966 364.976 153 412 153C481.036 153 537 208.964 537 278C537 284.189 536.55 290.272 535.682 296.22C587.795 299.658 629 343.017 629 396C629 451.228 584.228 496 529 496Z" fill="url(#paint5_linear_4_875)" fill-opacity="0.6"/>
<path d="M207 496H206.5V496.5H207V496ZM207 495.96H207.5V495.473L207.013 495.46L207 495.96ZM188.052 278.19L188.151 278.68L188.537 278.602L188.551 278.208L188.052 278.19ZM302.677 217.343L302.413 217.767L302.859 218.046L303.114 217.586L302.677 217.343ZM535.682 296.22L535.187 296.147L535.109 296.683L535.649 296.719L535.682 296.22ZM529 495.5H210V496.5H529V495.5ZM210 495.5H207V496.5H210V495.5ZM207.5 496V495.96H206.5V496H207.5ZM99.5 386C99.5 446.02 147.352 494.863 206.987 496.46L207.013 495.46C147.919 493.878 100.5 445.476 100.5 386H99.5ZM187.952 277.7C137.489 287.918 99.5 332.522 99.5 386H100.5C100.5 333.007 138.144 288.806 188.151 278.68L187.952 277.7ZM263 205.5C222.25 205.5 189.04 237.784 187.552 278.172L188.551 278.208C190.019 238.357 222.789 206.5 263 206.5V205.5ZM302.942 216.919C291.356 209.682 277.666 205.5 263 205.5V206.5C277.473 206.5 290.981 210.627 302.413 217.767L302.942 216.919ZM412 152.5C364.787 152.5 323.664 178.571 302.24 217.1L303.114 217.586C324.368 179.362 365.164 153.5 412 153.5V152.5ZM537.5 278C537.5 208.688 481.312 152.5 412 152.5V153.5C480.759 153.5 536.5 209.241 536.5 278H537.5ZM536.176 296.292C537.049 290.321 537.5 284.213 537.5 278H536.5C536.5 284.164 536.052 290.224 535.187 296.147L536.176 296.292ZM629.5 396C629.5 342.752 588.089 299.176 535.715 295.721L535.649 296.719C587.501 300.139 628.5 343.282 628.5 396H629.5ZM529 496.5C584.505 496.5 629.5 451.505 629.5 396H628.5C628.5 450.952 583.952 495.5 529 495.5V496.5Z" fill="white" fill-opacity="0.8"/>
</g>
<path fill-rule="evenodd" clip-rule="evenodd" d="M221.596 467.108C219.127 465.455 216.059 466.672 214.743 469.828L150.649 623.414C147.625 630.661 150.133 639.603 156.059 642.71C161.587 645.604 167.944 642.266 170.301 635.231L223.87 475.316C224.905 472.228 223.916 468.663 221.596 467.108ZM364.743 469.828C366.059 466.672 369.127 465.455 371.596 467.108C373.916 468.663 374.905 472.228 373.87 475.316L320.301 635.231C317.944 642.266 311.587 645.604 306.059 642.71C300.133 639.603 297.625 630.661 300.649 623.414L364.743 469.828ZM504.743 469.828C506.059 466.672 509.128 465.455 511.596 467.108C513.916 468.663 514.905 472.228 513.87 475.316L460.301 635.231C457.944 642.266 451.587 645.605 446.059 642.71C440.133 639.603 437.625 630.661 440.649 623.414L504.743 469.828Z" fill="url(#paint6_linear_4_875)"/>
<g filter="url(#filter4_bi_4_875)">
<mask id="path-10-inside-2_4_875" fill="white">
<path fill-rule="evenodd" clip-rule="evenodd" d="M345.121 488.44L406.113 365L280.314 505.391L320.144 532.335L258 655.242L385.086 516.016L345.121 488.44Z"/>
</mask>
<path fill-rule="evenodd" clip-rule="evenodd" d="M345.121 488.44L406.113 365L280.314 505.391L320.144 532.335L258 655.242L385.086 516.016L345.121 488.44Z" fill="url(#paint7_linear_4_875)"/>
<path d="M406.113 365L407.01 365.443L405.368 364.333L406.113 365ZM345.121 488.44L344.224 487.997L343.841 488.772L344.553 489.263L345.121 488.44ZM280.314 505.391L279.57 504.723L278.805 505.577L279.754 506.219L280.314 505.391ZM320.144 532.335L321.036 532.787L321.434 532.001L320.704 531.507L320.144 532.335ZM258 655.242L257.108 654.791L258.739 655.917L258 655.242ZM385.086 516.016L385.825 516.69L386.597 515.844L385.654 515.193L385.086 516.016ZM405.217 364.557L344.224 487.997L346.017 488.883L407.01 365.443L405.217 364.557ZM281.059 506.058L406.858 365.667L405.368 364.333L279.57 504.723L281.059 506.058ZM320.704 531.507L280.875 504.562L279.754 506.219L319.584 533.164L320.704 531.507ZM258.892 655.694L321.036 532.787L319.252 531.884L257.108 654.791L258.892 655.694ZM384.348 515.342L257.261 654.568L258.739 655.917L385.825 516.69L384.348 515.342ZM344.553 489.263L384.518 516.839L385.654 515.193L345.689 487.617L344.553 489.263Z" fill="white" mask="url(#path-10-inside-2_4_875)"/>
</g>
<defs>
<filter id="filter0_bi_4_875" x="124" y="87" width="561" height="375" filterUnits="userSpaceOnUse" color-interpolation-filters="sRGB">
<feFlood flood-opacity="0" result="BackgroundImageFix"/>
<feGaussianBlur in="BackgroundImageFix" stdDeviation="8"/>
<feComposite in2="SourceAlpha" operator="in" result="effect1_backgroundBlur_4_875"/>
<feBlend mode="normal" in="SourceGraphic" in2="effect1_backgroundBlur_4_875" result="shape"/>
<feColorMatrix in="SourceAlpha" type="matrix" values="0 0 0 0 0 0 0 0 0 0 0 0 0 0 0 0 0 0 127 0" result="hardAlpha"/>
<feOffset dy="4"/>
<feGaussianBlur stdDeviation="8"/>
<feComposite in2="hardAlpha" operator="arithmetic" k2="-1" k3="1"/>
<feColorMatrix type="matrix" values="0 0 0 0 1 0 0 0 0 1 0 0 0 0 1 0 0 0 1 0"/>
<feBlend mode="normal" in2="shape" result="effect2_innerShadow_4_875"/>
</filter>
<filter id="filter1_i_4_875" x="127" y="153" width="300" height="304" filterUnits="userSpaceOnUse" color-interpolation-filters="sRGB">
<feFlood flood-opacity="0" result="BackgroundImageFix"/>
<feBlend mode="normal" in="SourceGraphic" in2="BackgroundImageFix" result="shape"/>
<feColorMatrix in="SourceAlpha" type="matrix" values="0 0 0 0 0 0 0 0 0 0 0 0 0 0 0 0 0 0 127 0" result="hardAlpha"/>
<feOffset dy="4"/>
<feGaussianBlur stdDeviation="8"/>
<feComposite in2="hardAlpha" operator="arithmetic" k2="-1" k3="1"/>
<feColorMatrix type="matrix" values="0 0 0 0 1 0 0 0 0 1 0 0 0 0 1 0 0 0 0.7 0"/>
<feBlend mode="overlay" in2="shape" result="effect1_innerShadow_4_875"/>
</filter>
<filter id="filter2_dif_4_875" x="157.639" y="202.405" width="216.721" height="205.948" filterUnits="userSpaceOnUse" color-interpolation-filters="sRGB">
<feFlood flood-opacity="0" result="BackgroundImageFix"/>
<feColorMatrix in="SourceAlpha" type="matrix" values="0 0 0 0 0 0 0 0 0 0 0 0 0 0 0 0 0 0 127 0" result="hardAlpha"/>
<feOffset dy="4"/>
<feGaussianBlur stdDeviation="2"/>
<feComposite in2="hardAlpha" operator="out"/>
<feColorMatrix type="matrix" values="0 0 0 0 0 0 0 0 0 0 0 0 0 0 0 0 0 0 0.25 0"/>
<feBlend mode="normal" in2="BackgroundImageFix" result="effect1_dropShadow_4_875"/>
<feBlend mode="normal" in="SourceGraphic" in2="effect1_dropShadow_4_875" result="shape"/>
<feColorMatrix in="SourceAlpha" type="matrix" values="0 0 0 0 0 0 0 0 0 0 0 0 0 0 0 0 0 0 127 0" result="hardAlpha"/>
<feMorphology radius="2" operator="erode" in="SourceAlpha" result="effect2_innerShadow_4_875"/>
<feOffset dx="8" dy="3"/>
<feGaussianBlur stdDeviation="1"/>
<feComposite in2="hardAlpha" operator="arithmetic" k2="-1" k3="1"/>
<feColorMatrix type="matrix" values="0 0 0 0 0.341176 0 0 0 0 0.341176 0 0 0 0 0.341176 0 0 0 0.6 0"/>
<feBlend mode="normal" in2="shape" result="effect2_innerShadow_4_875"/>
<feGaussianBlur stdDeviation="1" result="effect3_foregroundBlur_4_875"/>
</filter>
<filter id="filter3_bi_4_875" x="83.5" y="136.5" width="562" height="376" filterUnits="userSpaceOnUse" color-interpolation-filters="sRGB">
<feFlood flood-opacity="0" result="BackgroundImageFix"/>
<feGaussianBlur in="BackgroundImageFix" stdDeviation="8"/>
<feComposite in2="SourceAlpha" operator="in" result="effect1_backgroundBlur_4_875"/>
<feBlend mode="normal" in="SourceGraphic" in2="effect1_backgroundBlur_4_875" result="shape"/>
<feColorMatrix in="SourceAlpha" type="matrix" values="0 0 0 0 0 0 0 0 0 0 0 0 0 0 0 0 0 0 127 0" result="hardAlpha"/>
<feOffset dy="4"/>
<feGaussianBlur stdDeviation="8"/>
<feComposite in2="hardAlpha" operator="arithmetic" k2="-1" k3="1"/>
<feColorMatrix type="matrix" values="0 0 0 0 1 0 0 0 0 1 0 0 0 0 1 0 0 0 1 0"/>
<feBlend mode="normal" in2="shape" result="effect2_innerShadow_4_875"/>
</filter>
<filter id="filter4_bi_4_875" x="242" y="349" width="180.113" height="322.242" filterUnits="userSpaceOnUse" color-interpolation-filters="sRGB">
<feFlood flood-opacity="0" result="BackgroundImageFix"/>
<feGaussianBlur in="BackgroundImageFix" stdDeviation="8"/>
<feComposite in2="SourceAlpha" operator="in" result="effect1_backgroundBlur_4_875"/>
<feBlend mode="normal" in="SourceGraphic" in2="effect1_backgroundBlur_4_875" result="shape"/>
<feColorMatrix in="SourceAlpha" type="matrix" values="0 0 0 0 0 0 0 0 0 0 0 0 0 0 0 0 0 0 127 0" result="hardAlpha"/>
<feOffset dy="4"/>
<feGaussianBlur stdDeviation="2"/>
<feComposite in2="hardAlpha" operator="arithmetic" k2="-1" k3="1"/>
<feColorMatrix type="matrix" values="0 0 0 0 1 0 0 0 0 1 0 0 0 0 1 0 0 0 0.9 0"/>
<feBlend mode="normal" in2="shape" result="effect2_innerShadow_4_875"/>
</filter>
<linearGradient id="paint0_linear_4_875" x1="573.785" y1="407.06" x2="453.219" y2="504.963" gradientUnits="userSpaceOnUse">
<stop stop-color="#B0CEFC" stop-opacity="0.48"/>
<stop offset="1" stop-color="#4597EE" stop-opacity="0.85"/>
</linearGradient>
<linearGradient id="paint1_linear_4_875" x1="398" y1="442" x2="398" y2="122.5" gradientUnits="userSpaceOnUse">
<stop stop-color="#AABFE1"/>
<stop offset="0.0001" stop-color="#576479"/>
<stop offset="1" stop-color="#D7DEE9" stop-opacity="0.9"/>
</linearGradient>
<radialGradient id="paint2_radial_4_875" cx="0" cy="0" r="1" gradientUnits="userSpaceOnUse" gradientTransform="translate(188.5 453) rotate(-57.5981) scale(222.075)">
<stop stop-color="#FF951A"/>
<stop offset="1" stop-color="#FFD55E"/>
</radialGradient>
<radialGradient id="paint3_radial_4_875" cx="0" cy="0" r="1" gradientUnits="userSpaceOnUse" gradientTransform="translate(26.17 190.25) rotate(18.3738) scale(330.886)">
<stop offset="0.0943593" stop-color="white" stop-opacity="0.53"/>
<stop offset="0.990994" stop-color="#315B82"/>
</radialGradient>
<linearGradient id="paint4_linear_4_875" x1="310.045" y1="326.59" x2="365.91" y2="401.848" gradientUnits="userSpaceOnUse">
<stop offset="0.380208" stop-color="#E2EAF1"/>
<stop offset="1" stop-color="#749EC4" stop-opacity="0"/>
</linearGradient>
<linearGradient id="paint5_linear_4_875" x1="309.5" y1="542" x2="476" y2="112" gradientUnits="userSpaceOnUse">
<stop stop-color="#7096D2"/>
<stop offset="1" stop-color="white" stop-opacity="0.9"/>
</linearGradient>
<linearGradient id="paint6_linear_4_875" x1="492.804" y1="467.064" x2="370.378" y2="576.582" gradientUnits="userSpaceOnUse">
<stop stop-color="#B0CEFC" stop-opacity="0.48"/>
<stop offset="1" stop-color="#4597EE" stop-opacity="0.85"/>
</linearGradient>
<linearGradient id="paint7_linear_4_875" x1="282" y1="471.5" x2="208" y2="696" gradientUnits="userSpaceOnUse">
<stop stop-color="#E9C549"/>
<stop offset="0.729167" stop-color="#F9F9F9"/>
</linearGradient>
</defs>
</svg>
